<?xml version="1.0" encoding="UTF-8" standalone="no"?>
<svg
   width="680"
   height="1000"
   viewBox="0 0 680 1000"
   fill="none"
   version="1.1"
   id="svg28"
   sodipodi:docname="logo-nombre-vertical.svg"
   inkscape:version="1.4 (86a8ad7, 2024-10-11)"
   xmlns:inkscape="http://www.inkscape.org/namespaces/inkscape"
   xmlns:sodipodi="http://sodipodi.sourceforge.net/DTD/sodipodi-0.dtd"
   xmlns="http://www.w3.org/2000/svg"
   xmlns:svg="http://www.w3.org/2000/svg">
  <sodipodi:namedview
     id="namedview28"
     pagecolor="#ffffff"
     bordercolor="#999999"
     borderopacity="1"
     inkscape:showpageshadow="2"
     inkscape:pageopacity="0"
     inkscape:pagecheckerboard="0"
     inkscape:deskcolor="#d1d1d1"
     inkscape:zoom="0.815"
     inkscape:cx="340.4908"
     inkscape:cy="500"
     inkscape:window-width="1920"
     inkscape:window-height="1017"
     inkscape:window-x="-8"
     inkscape:window-y="-8"
     inkscape:window-maximized="1"
     inkscape:current-layer="svg28" />
  <path
     d="M340.26 4.00999C153.04 4.00999 1.26001 155.79 1.26001 343.01C1.26001 481 83.71 599.74 202.03 652.64C244.24 671.51 287.36 673.49 336.59 673.49C377.55 673.49 420.47 674.74 456.81 661.43C586.61 613.9 679.25 489.27 679.25 343C679.25 155.78 527.47 4 340.25 4L340.26 4.00999Z"
     fill="#291711"
     id="path1" />
  <path
     d="M582.26 342.701C581.84 350.681 579.15 358.411 573.82 364.331C565.04 374.061 551.88 376.821 538.36 376.651C534.3 379.811 529.79 382.431 525.1 384.481C513.05 389.731 499.85 391.641 486.8 393.181C462.3 396.061 436.89 397.721 413.49 389.901C409.22 388.471 405.04 386.741 400.73 385.451C389.09 392.461 381.25 405.601 378.32 419.131C377.86 421.251 377.5 423.391 377.23 425.531C402.68 427.171 428.12 429.041 453.62 428.101C472.16 427.421 489.05 426.321 506.51 419.681C533.39 409.461 565.48 393.731 578.02 366.731C581.49 359.261 582.47 350.381 582.27 342.711L582.26 342.701Z"
     fill="#C86C22"
     id="path2" />
  <path
     d="M280.91 387.881C277.41 385.211 273.65 383.581 269.66 382.601C268.18 383.381 266.72 384.191 265.24 384.951C231.34 402.481 190.13 398.061 153.66 386.791C148.23 385.111 142.75 383.251 138.16 379.891C137.6 379.481 137.06 379.051 136.54 378.611C125.41 377.971 114.05 375.491 105.75 368.201C99.2499 362.491 95.5 354.391 94.21 345.781C94.81 351.291 95.7599 358.471 96.2499 359.961C97.7399 364.481 99.4199 368.941 101.29 373.321C106.7 386.041 117.81 395.871 129.2 403.421C146.71 415.031 167.57 420.701 188.41 423.371C224.69 428.021 261.8 425.261 298.6 423.981C297.17 406.821 292.59 396.771 280.91 387.871V387.881Z"
     fill="#C86C22"
     id="path3" />
  <path
     d="M439.98 665.49C433.09 663.95 429.91 658.49 427.67 651.85C424.81 643.39 422.02 634.82 419.19 626.32C413.51 609.22 408.27 591.97 403.47 574.6C393.86 539.86 386.02 504.63 379.98 469.09C377.53 454.7 375.39 439.92 377.23 425.52C377.5 423.38 377.86 421.24 378.32 419.12C381.26 405.59 389.09 392.45 400.73 385.44C403.19 383.96 405.82 382.74 408.61 381.86C417.86 378.94 427.88 379.83 437.4 377.96C448.24 375.83 460.69 366.51 469.22 358.28C465.15 356.28 461.19 353.49 456.64 351.2C455.85 350.8 455.05 350.43 454.26 350.05C454.02 349.94 453.78 349.83 453.56 349.72C443.76 357.74 428.69 357.34 415.54 359.24C404.03 360.91 392.9 365.08 383.13 371.4C379.89 373.5 376.34 375.94 372.53 375.31C370.04 374.9 367.97 373.22 365.93 371.73C355.08 363.83 341.42 359.88 328.03 360.78C325.01 360.98 321.91 361.46 319.37 363.09C316.41 364.99 314.36 368.35 310.99 369.35C308.93 369.96 306.71 369.55 304.6 369.14C288.4 366 272.21 362.86 256.01 359.71C243.83 357.35 231.16 353.4 223.01 343.4C217.24 344.99 211.65 347.01 206.42 349.72C205.61 350.14 204.8 350.59 204 351.04C214.86 363.94 231.03 375.25 249.34 379.09C256.21 380.53 263.07 380.97 269.67 382.59C273.66 383.57 277.42 385.2 280.92 387.87C292.61 396.77 297.19 406.82 298.61 423.98C299.08 429.59 299.21 435.97 299.13 443.32C299.09 447.76 298.97 452.56 298.81 457.76C298.81 457.96 298.81 458.12 298.8 458.23C297.98 465.74 296.56 473.17 295.17 480.6C294.93 481.86 294.68 483.12 294.44 484.38C284.69 535.26 270.4 585.26 251.77 633.6C250.33 637.33 248.87 641.06 247.38 644.78C247 644.95 246.52 646.23 246.31 646.57C245.53 647.88 244.75 649.18 243.95 650.48C242.06 653.58 239.9 656.56 237.46 659.25C235.57 661.33 233.16 661.84 230.42 661.84C225.37 661.84 218.02 659.11 213.25 657.4C252.48 673.26 295.34 682.02 340.25 682.02C380.08 682.02 418.29 675.13 453.79 662.51C449.72 663.79 443.94 666.38 439.96 665.49H439.98Z"
     fill="url(#paint0_linear_927_6541)"
     id="path4" />
  <path
     d="M97.69 332.681C99.5 337.771 102.37 342.431 106.58 345.751C111.09 349.301 116.78 351.031 122.48 351.741C122.58 351.751 122.69 351.771 122.79 351.781C142.73 354.101 161.27 344.211 174.04 329.401C180.54 321.871 185.68 313.141 189.21 303.851C193.12 293.571 195.33 282.601 201.4 273.251C203.89 269.421 207.77 264.161 212.84 264.481C214.99 264.791 215.8 266.241 216.07 268.381C220.6 304.931 245.48 319.341 285.91 317.471C307.14 316.491 353.73 317.241 374.89 315.091C394.93 313.051 409.27 305.691 409.87 287.241C410.32 273.471 406.81 260.071 387.12 244.111C375.94 235.051 359.72 227.581 330.74 220.341C323.33 218.491 286.1 215.601 282.04 216.281C255.43 220.751 252.5 221.661 226.82 230.121C225.15 230.671 223.2 231.131 221.62 231.921C201.8 238.361 182.26 245.911 163.97 255.961C146.58 265.521 130.35 277.341 116.7 291.741C107.59 301.351 99.5 312.441 95.76 325.071C95.78 325.191 95.79 325.311 95.81 325.431C96.22 327.881 96.84 330.331 97.68 332.681H97.69Z"
     fill="white"
     id="path5" />
  <path
     d="M579.3 324.32C576.82 317.92 573.07 312.1 569.04 306.55C558.02 291.41 544.64 277.99 529.52 266.93C509.33 252.17 486.58 241.23 463.22 232.49C439.51 223.62 415.2 217.1 390.29 212.51C373.29 209.38 355.59 206.83 338.31 207.81C331.38 208.2 293.62 213.31 282.05 216.27C286.11 215.59 323.34 218.48 330.75 220.33C359.73 227.58 375.95 235.05 387.13 244.1C406.83 260.06 410.33 273.47 409.88 287.23C409.28 305.68 394.94 313.04 374.9 315.08C353.74 317.23 307.15 316.48 285.92 317.46C245.49 319.33 220.61 304.92 216.08 268.37C215.81 266.23 215.01 264.78 212.85 264.47C207.78 264.15 203.9 269.41 201.41 273.24C195.34 282.59 193.13 293.56 189.22 303.84C185.68 313.13 180.54 321.86 174.05 329.39C161.27 344.2 142.74 354.09 122.8 351.77C122.7 351.76 122.59 351.74 122.49 351.73C116.79 351.03 111.09 349.29 106.59 345.74C102.38 342.42 99.5201 337.76 97.7001 332.67C96.8601 330.31 96.2501 327.87 95.8301 325.42C95.8101 325.3 95.8001 325.18 95.7801 325.06C95.4501 326.18 95.1401 327.31 94.8801 328.46C94.0701 332.02 93.6801 335.71 93.7101 339.4C93.7101 339.88 93.7401 340.36 93.7601 340.84C93.8401 342.04 94.0101 343.8 94.2201 345.78C95.5001 354.38 99.2601 362.49 105.76 368.2C114.06 375.49 125.42 377.97 136.55 378.61C137.75 378.68 138.95 378.73 140.14 378.76C148.27 378.97 156.57 378.47 164.16 375.57C177.91 370.32 189.37 359.69 202.11 352.13C202.74 351.76 203.37 351.4 204 351.04C204.8 350.59 205.61 350.14 206.42 349.72C211.65 347.01 217.25 344.99 223.01 343.4C223.47 343.27 223.94 343.14 224.4 343.02C234.7 340.32 245.5 338.96 255.78 337.63C296.4 332.39 337.52 334.34 378.29 336.32C403.91 337.56 430.35 339.02 453.56 349.72C461.64 354.39 477.98 366.7 501.84 371.6C507.58 372.94 513.4 373.95 519.22 374.86C525.4 375.83 531.92 376.56 538.37 376.64C551.89 376.8 565.05 374.05 573.83 364.32C579.17 358.41 581.85 350.68 582.27 342.69C582.6 336.47 581.55 330.1 579.31 324.31L579.3 324.32Z"
     fill="url(#paint1_linear_927_6541)"
     id="path6" />
  <path
     d="M496.01 348.12C501.55 350.69 507.37 352.47 512.76 353.32C520.26 354.51 525.81 351.58 528.01 344.11C532.31 329.47 524.35 311.5 515.14 300.33C508.45 292.22 501.48 284.17 493.08 277.78C488.9 274.6 484.38 271.88 479.54 269.82C475.05 267.91 467.8 264.22 462.84 266.53C462.31 266.78 461.85 267.29 461.84 267.88C461.84 268.31 462.06 268.71 462.29 269.07C463.83 271.54 465.96 273.54 467.5 275.99C469.11 278.55 470.35 281.32 471.3 284.19C473.17 289.84 473.89 295.82 474.06 301.74C474.32 310.88 469.87 322.79 474.96 330.91C479.56 338.25 487.45 344.13 496.01 348.12Z"
     fill="#FCEED8"
     id="path7" />
  <path
     d="M278.09 649.391C305.98 643.181 312.42 617.391 316.04 596.591C319.43 577.141 321.93 557.271 321.51 537.601C321.38 531.701 321.97 506.991 308.93 508.841C305.12 509.381 303.65 513.271 302.94 516.491C294.67 554.301 284.21 591.571 270.86 628.321C269.03 633.361 262.69 652.091 275.4 649.921C276.29 649.771 277.18 649.591 278.09 649.391Z"
     fill="white"
     id="path8" />
  <path
     d="M42.45 901.87C42.16 901.14 41.8 900.56 41.36 900.13C40.92 899.7 40.42 899.37 39.83 899.15C39.25 898.93 38.63 898.82 37.98 898.82C37.04 898.82 36.15 899.09 35.31 899.64C34.47 900.18 33.84 900.89 33.4 901.76L2.13997 967.01C1.55997 968.25 1.19996 969.34 1.04996 970.28C0.899958 971.22 1.08997 972.02 1.58997 972.68C2.09997 973.33 2.89996 973.88 3.98996 974.31C5.79996 975.11 7.19996 975.29 8.17996 974.85C9.15996 974.41 10.05 973.36 10.85 971.69L19.5 953.17H56.34L65.09 971.8C65.89 973.47 66.78 974.54 67.76 975.01C68.74 975.48 70.1 975.28 71.84 974.41C72.93 973.9 73.73 973.34 74.24 972.72C74.75 972.1 74.98 971.41 74.95 970.65C74.91 969.89 74.6 968.96 74.02 967.87L42.43 901.86L42.45 901.87ZM23.43 944.78L37.88 913.84L52.42 944.78H23.43Z"
     fill="#291711"
     id="path9" />
  <path
     d="M134.17 898.43C133.52 898.03 132.46 897.83 131.01 897.83C129.7 897.83 128.7 898.03 128.01 898.43C127.32 898.83 126.88 899.39 126.7 900.12C126.52 900.85 126.43 901.75 126.43 902.84V930.7C126.11 930.28 125.79 929.87 125.45 929.47C123.42 927.11 120.97 925.28 118.1 923.97C115.23 922.66 112.02 922.01 108.46 922.01C105.19 922.01 102.07 922.66 99.0899 923.97C96.1099 925.28 93.5199 927.11 91.2999 929.47C89.0799 931.83 87.3399 934.61 86.0699 937.8C84.7999 941 84.1599 944.48 84.1599 948.26C84.1599 952.04 84.7899 955.65 86.0699 958.88C87.3399 962.11 89.0799 964.93 91.2999 967.32C93.5099 969.72 96.0899 971.57 99.0299 972.87C101.97 974.18 105.11 974.83 108.45 974.83C112.01 974.83 115.24 974.18 118.14 972.87C121.04 971.56 123.51 969.71 125.55 967.32C125.85 966.96 126.14 966.6 126.42 966.22V971.02C126.57 972.4 126.98 973.38 127.67 973.96C128.36 974.54 129.5 974.83 131.1 974.83C132.55 974.83 133.61 974.63 134.26 974.23C134.91 973.83 135.35 973.25 135.57 972.49C135.79 971.73 135.9 970.84 135.9 969.82V902.72C135.9 901.7 135.77 900.83 135.52 900.11C135.26 899.38 134.81 898.82 134.16 898.42L134.17 898.43ZM123.88 957.36C122.46 959.94 120.54 961.95 118.11 963.41C115.68 964.86 112.94 965.59 109.89 965.59C106.84 965.59 104.17 964.86 101.67 963.41C99.1599 961.96 97.1999 959.94 95.7899 957.36C94.3699 954.78 93.6699 951.82 93.6699 948.48C93.6699 945.14 94.3799 942.16 95.7899 939.55C97.2099 936.94 99.1499 934.9 101.62 933.45C104.09 932 106.85 931.27 109.9 931.27C112.95 931.27 115.69 932.02 118.12 933.5C120.55 934.99 122.48 937.02 123.89 939.6C125.31 942.18 126.01 945.14 126.01 948.48C126.01 951.82 125.3 954.78 123.89 957.36H123.88Z"
     fill="#291711"
     id="path10" />
  <path
     d="M199.91 922.781C199.29 922.341 198.29 922.131 196.91 922.131C195.24 922.131 194.02 922.481 193.26 923.161C192.5 923.851 192.12 924.991 192.12 926.591L192.45 931.161C191.21 929.491 189.78 927.981 188.15 926.641C186.52 925.301 184.57 924.211 182.32 923.371C180.07 922.541 177.35 922.121 174.15 922.121C170.74 922.121 167.52 922.811 164.51 924.191C161.5 925.571 158.83 927.461 156.5 929.851C154.17 932.251 152.36 935.021 151.05 938.181C149.74 941.341 149.09 944.701 149.09 948.261C149.09 951.821 149.74 955.301 151.05 958.501C152.36 961.701 154.15 964.531 156.44 967.001C158.73 969.471 161.38 971.391 164.39 972.771C167.4 974.151 170.65 974.841 174.14 974.841C177.63 974.841 180.62 974.281 183.13 973.151C185.64 972.021 187.65 970.721 189.18 969.231C190.71 967.741 191.83 966.421 192.56 965.251L192.12 970.701C192.19 972.081 192.59 973.101 193.32 973.751C194.05 974.401 195.21 974.731 196.81 974.731C198.19 974.731 199.21 974.531 199.86 974.131C200.51 973.731 200.95 973.131 201.17 972.331C201.39 971.531 201.5 970.621 201.5 969.611V927.561C201.5 926.401 201.39 925.421 201.17 924.621C200.95 923.821 200.53 923.201 199.92 922.771L199.91 922.781ZM189.5 957.251C188.05 959.831 186.12 961.881 183.73 963.401C181.33 964.931 178.65 965.691 175.67 965.691C172.33 965.691 169.37 964.951 166.79 963.461C164.21 961.971 162.2 959.941 160.74 957.361C159.29 954.781 158.56 951.861 158.56 948.591C158.56 945.321 159.29 942.271 160.74 939.661C162.19 937.051 164.17 934.981 166.68 933.451C169.19 931.931 172.11 931.161 175.45 931.161C178.43 931.161 181.13 931.891 183.57 933.341C186 934.791 187.96 936.811 189.45 939.391C190.94 941.971 191.68 944.961 191.68 948.381C191.68 951.801 190.95 954.681 189.5 957.261V957.251Z"
     fill="#291711"
     id="path11" />
  <path
     d="M260.74 929.37C258.49 927.01 255.91 925.18 253.01 923.87C250.1 922.56 246.95 921.91 243.53 921.91C240.11 921.91 236.87 922.55 234 923.82C231.13 925.09 228.66 926.91 226.59 929.27C226.31 929.59 226.04 929.92 225.77 930.26V925.62C225.62 924.31 225.17 923.41 224.41 922.9C223.65 922.39 222.47 922.14 220.87 922.14C219.49 922.14 218.45 922.34 217.77 922.74C217.08 923.14 216.63 923.7 216.41 924.43C216.19 925.16 216.08 926.03 216.08 927.04V991.42C216.08 992.44 216.19 993.31 216.41 994.03C216.63 994.76 217.1 995.32 217.83 995.72C218.56 996.12 219.61 996.32 220.99 996.32C222.44 996.32 223.51 996.12 224.2 995.72C224.89 995.32 225.34 994.74 225.56 993.98C225.78 993.22 225.85 992.33 225.78 991.31V966.03C226.03 966.35 226.28 966.66 226.54 966.96C228.57 969.32 231.02 971.15 233.89 972.46C236.76 973.77 239.97 974.42 243.53 974.42C247.09 974.42 250.12 973.78 253.06 972.51C256 971.24 258.58 969.44 260.79 967.12C263 964.8 264.75 962.04 266.02 958.84C267.29 955.65 267.93 952.16 267.93 948.38C267.93 944.6 267.29 941.08 266.02 937.81C264.75 934.54 262.99 931.73 260.74 929.37ZM256.33 957.09C254.91 959.7 252.97 961.76 250.5 963.24C248.03 964.73 245.27 965.47 242.22 965.47C239.17 965.47 236.43 964.73 234 963.24C231.57 961.75 229.64 959.7 228.23 957.09C226.81 954.48 226.11 951.5 226.11 948.16C226.11 944.82 226.82 941.88 228.23 939.34C229.65 936.8 231.57 934.8 234 933.35C236.43 931.9 239.17 931.17 242.22 931.17C245.27 931.17 248.03 931.88 250.5 933.29C252.97 934.71 254.91 936.7 256.33 939.28C257.75 941.86 258.45 944.82 258.45 948.16C258.45 951.5 257.74 954.48 256.33 957.09Z"
     fill="#291711"
     id="path12" />
  <path
     d="M310.63 923.49C309.9 923.31 309.03 923.22 308.02 923.22L297.67 923.37V908.95C297.67 908.01 297.56 907.17 297.34 906.44C297.12 905.71 296.65 905.15 295.92 904.75C295.19 904.35 294.14 904.15 292.76 904.15C291.38 904.15 290.36 904.35 289.71 904.75C289.06 905.15 288.62 905.71 288.4 906.44C288.18 907.17 288.07 908.07 288.07 909.16V923.38L282.41 923.32C280.96 923.32 279.9 923.68 279.25 924.41C278.6 925.14 278.27 926.3 278.27 927.9C278.27 929.5 278.54 930.77 279.09 931.49C279.63 932.22 280.67 932.62 282.19 932.69L288.07 932.57V957.19C288.07 960.46 288.4 963.2 289.05 965.41C289.7 967.63 290.77 969.42 292.26 970.8C293.75 972.18 295.69 973.2 298.09 973.85C300.49 974.5 303.39 974.83 306.8 974.83C307.74 974.83 308.6 974.74 309.36 974.56C310.12 974.38 310.7 973.94 311.1 973.25C311.5 972.56 311.7 971.53 311.7 970.15C311.7 968.84 311.52 967.86 311.16 967.21C310.8 966.56 310.25 966.12 309.53 965.9C308.8 965.68 307.86 965.57 306.7 965.57C305.03 965.57 303.61 965.5 302.45 965.35C301.29 965.21 300.36 964.84 299.67 964.26C298.98 963.68 298.47 962.83 298.15 961.7C297.82 960.57 297.66 959.07 297.66 957.18V932.52L308.12 932.67C309.14 932.67 310.01 932.56 310.73 932.34C311.45 932.12 312 931.67 312.36 930.98C312.72 930.29 312.9 929.26 312.9 927.88C312.9 926.5 312.7 925.47 312.3 924.78C311.9 924.09 311.34 923.65 310.61 923.47L310.63 923.49Z"
     fill="#291711"
     id="path13" />
  <path
     d="M343.74 914.72C344.39 915.16 345.3 915.23 346.46 914.94L363.56 909.17C364.94 908.73 365.83 908.12 366.23 907.32C366.63 906.52 366.57 905.36 366.07 903.83C365.63 902.45 365.09 901.53 364.44 901.05C363.79 900.58 362.91 900.45 361.83 900.67L344.4 906.55C343.02 906.99 342.17 907.6 341.84 908.4C341.51 909.2 341.6 910.36 342.11 911.89C342.55 913.34 343.09 914.29 343.74 914.72Z"
     fill="#291711"
     id="path14" />
  <path
     d="M362.64 925.011C358.61 922.651 354.09 921.471 349.08 921.471C345.38 921.471 341.91 922.181 338.68 923.591C335.45 925.011 332.6 926.951 330.13 929.421C327.66 931.891 325.72 934.741 324.3 937.971C322.88 941.201 322.18 944.711 322.18 948.481C322.18 952.251 322.92 955.891 324.41 959.151C325.9 962.421 327.91 965.271 330.46 967.701C333 970.131 335.89 972.041 339.12 973.421C342.35 974.801 345.75 975.491 349.3 975.491C352.85 975.491 356.13 974.821 359.32 973.481C362.51 972.141 365.35 970.271 367.82 967.871C370.29 965.471 372.25 962.621 373.7 959.321C375.15 956.021 375.88 952.371 375.88 948.371C375.88 943.291 374.68 938.711 372.29 934.651C369.89 930.581 366.68 927.371 362.65 925.011H362.64ZM363.89 957.421C362.29 960.111 360.19 962.211 357.57 963.741C354.95 965.271 352.12 966.031 349.07 966.031C346.02 966.031 343.17 965.291 340.52 963.801C337.87 962.311 335.74 960.241 334.15 957.591C332.55 954.941 331.75 951.871 331.75 948.391C331.75 944.911 332.53 942.071 334.09 939.461C335.65 936.851 337.72 934.781 340.3 933.251C342.88 931.721 345.76 930.961 348.96 930.961C352.16 930.961 355.28 931.691 357.89 933.141C360.5 934.591 362.56 936.631 364.04 939.241C365.53 941.851 366.27 944.871 366.27 948.281C366.27 951.691 365.47 954.741 363.87 957.431L363.89 957.421Z"
     fill="#291711"
     id="path15" />
  <path
     d="M434.58 922.51C433.93 922.11 432.95 921.91 431.64 921.91C429.97 921.91 428.75 922.2 427.99 922.78C427.23 923.36 426.81 924.34 426.74 925.72L426.76 930.47C426.5 930.1 426.25 929.72 425.97 929.37C424.15 927.08 421.94 925.32 419.33 924.09C416.72 922.86 413.77 922.24 410.51 922.24C407.25 922.24 403.92 922.88 400.98 924.15C398.04 925.42 395.48 927.22 393.3 929.54C391.12 931.87 389.43 934.59 388.24 937.71C387.04 940.83 386.44 944.25 386.44 947.95C386.44 951.65 387.04 955.07 388.24 958.19C389.44 961.31 391.13 964.04 393.3 966.36C395.48 968.68 398.04 970.48 400.98 971.75C403.92 973.02 407.17 973.66 410.73 973.66C415.09 973.66 418.81 972.61 421.9 970.5C423.86 969.16 425.53 967.48 426.94 965.44L426.97 971.05C426.97 973.66 426.59 976.01 425.83 978.08C425.07 980.15 424.01 981.91 422.67 983.36C421.33 984.81 419.69 985.9 417.77 986.63C415.84 987.36 413.72 987.72 411.4 987.72C409.08 987.72 407.13 987.41 405.57 986.79C404.01 986.17 402.7 985.48 401.65 984.72C400.6 983.96 399.71 983.27 398.98 982.65C398.25 982.03 397.53 981.72 396.8 981.72C396.07 981.72 395.49 981.86 395.06 982.16C394.62 982.45 394.04 982.96 393.32 983.68C392.88 984.19 392.56 984.68 392.34 985.15C392.12 985.62 392.01 986.22 392.01 986.95C392.01 987.89 392.52 988.91 393.54 990C394.56 991.09 395.94 992.11 397.68 993.05C399.42 993.99 401.44 994.76 403.73 995.34C406.02 995.92 408.47 996.21 411.08 996.21C414.71 996.21 418.05 995.67 421.1 994.58C424.15 993.49 426.8 991.89 429.05 989.79C431.3 987.68 433.04 985.12 434.28 982.11C435.51 979.1 436.13 975.66 436.13 971.82V926.72C436.13 925.7 436.04 924.85 435.86 924.16C435.68 923.47 435.26 922.93 434.61 922.53L434.58 922.51ZM424.67 956.55C423.29 959.09 421.44 961.09 419.11 962.54C416.79 963.99 414.14 964.72 411.16 964.72C408.18 964.72 405.53 964 403.21 962.54C400.88 961.09 399.07 959.11 397.76 956.6C396.45 954.09 395.8 951.17 395.8 947.83C395.8 944.49 396.43 941.59 397.71 939.12C398.98 936.65 400.78 934.71 403.1 933.29C405.42 931.87 408.07 931.17 411.05 931.17C414.03 931.17 416.7 931.86 419.06 933.24C421.42 934.62 423.29 936.56 424.67 939.07C426.05 941.58 426.74 944.46 426.74 947.73C426.74 951 426.05 954.01 424.67 956.55Z"
     fill="#291711"
     id="path16" />
  <path
     d="M494.49 928.12C492.46 926.23 490.01 924.73 487.14 923.6C484.27 922.47 481.02 921.91 477.39 921.91C472.09 921.91 467.37 923.05 463.23 925.34C459.09 927.63 455.86 930.73 453.54 934.65C451.21 938.57 450.05 943.04 450.05 948.05C450.05 951.83 450.68 955.35 451.96 958.62C453.23 961.89 455.05 964.77 457.41 967.28C459.77 969.79 462.66 971.76 466.07 973.22C469.48 974.67 473.37 975.4 477.73 975.4C481.65 975.4 485.15 974.96 488.24 974.09C491.33 973.22 493.74 972.18 495.48 970.99C497.22 969.79 498.09 968.65 498.09 967.56C498.09 966.98 498.02 966.44 497.87 965.93C497.72 965.42 497.43 964.88 497 964.3C496.64 963.58 496.13 963.08 495.47 962.83C494.82 962.58 494.2 962.52 493.62 962.67C493.04 962.82 492.42 963.07 491.77 963.43C491.12 963.79 490.41 964.16 489.65 964.52C488.89 964.88 487.96 965.25 486.87 965.61C485.78 965.97 484.49 966.26 483 966.48C481.51 966.7 479.79 966.81 477.83 966.81C475.07 966.81 472.33 966.19 469.61 964.96C466.89 963.73 464.64 961.96 462.86 959.68C461.08 957.39 460.23 954.69 460.3 951.57H491.78C494.32 951.57 496.46 950.81 498.21 949.28C499.95 947.76 500.82 945.14 500.82 941.44C500.82 939.12 500.28 936.79 499.19 934.47C498.1 932.15 496.54 930.04 494.51 928.15L494.49 928.12ZM490.68 944.46C489.95 944.82 488.94 945 487.63 945H460.29C460.22 942.24 460.94 939.77 462.47 937.59C464 935.41 466.08 933.69 468.73 932.42C471.38 931.15 474.27 930.51 477.39 930.51C480.22 930.51 482.71 931.02 484.85 932.03C486.99 933.05 488.68 934.39 489.91 936.06C491.14 937.73 491.76 939.55 491.76 941.51C491.76 943.11 491.4 944.09 490.67 944.45L490.68 944.46Z"
     fill="#291711"
     id="path17" />
  <path
     d="M555.87 928.5C553.94 926.36 551.64 924.73 548.95 923.6C546.26 922.47 543.32 921.91 540.13 921.91C538.17 921.91 536.34 922.16 534.63 922.67C532.92 923.18 531.34 923.89 529.89 924.79C528.44 925.7 527.17 926.71 526.08 927.84C524.99 928.97 524.08 930.15 523.36 931.38L523.58 926.37C523.58 925.93 523.54 925.46 523.47 924.95C523.4 924.44 523.23 923.97 522.98 923.53C522.73 923.09 522.29 922.75 521.67 922.5C521.05 922.25 520.2 922.12 519.11 922.12C517.73 922.12 516.68 922.3 515.95 922.66C515.22 923.02 514.77 923.53 514.59 924.18C514.41 924.83 514.32 925.63 514.32 926.58V969.82C514.32 970.84 514.41 971.71 514.59 972.43C514.77 973.16 515.21 973.72 515.9 974.12C516.59 974.52 517.62 974.72 519 974.72C520.38 974.72 521.41 974.54 522.1 974.18C522.79 973.82 523.24 973.27 523.46 972.55C523.68 971.83 523.79 970.95 523.79 969.94V946.19C523.79 943.14 524.39 940.49 525.59 938.24C526.79 935.99 528.49 934.25 530.71 933.01C532.92 931.78 535.52 931.16 538.5 931.16C541.48 931.16 544.18 931.78 546.18 933.01C548.18 934.25 549.7 935.99 550.75 938.24C551.8 940.49 552.33 943.14 552.33 946.19V969.83C552.33 970.85 552.42 971.72 552.6 972.44C552.78 973.17 553.23 973.73 553.96 974.13C554.69 974.53 555.74 974.73 557.12 974.73C558.57 974.73 559.64 974.55 560.33 974.19C561.02 973.83 561.46 973.28 561.64 972.56C561.82 971.84 561.91 970.96 561.91 969.95V946.31C561.91 942.53 561.38 939.16 560.33 936.18C559.28 933.2 557.79 930.64 555.86 928.5H555.87Z"
     fill="#291711"
     id="path18" />
  <path
     d="M614.58 925.011C610.55 922.651 606.03 921.471 601.02 921.471C597.32 921.471 593.85 922.181 590.62 923.591C587.39 925.011 584.54 926.951 582.07 929.421C579.6 931.891 577.66 934.741 576.24 937.971C574.82 941.201 574.12 944.711 574.12 948.481C574.12 952.251 574.86 955.891 576.35 959.151C577.84 962.421 579.85 965.271 582.4 967.701C584.94 970.131 587.83 972.041 591.06 973.421C594.29 974.801 597.69 975.491 601.24 975.491C604.79 975.491 608.07 974.821 611.26 973.481C614.45 972.141 617.29 970.271 619.76 967.871C622.23 965.471 624.19 962.621 625.64 959.321C627.09 956.021 627.82 952.371 627.82 948.371C627.82 943.291 626.62 938.711 624.23 934.651C621.83 930.581 618.62 927.371 614.59 925.011H614.58ZM615.84 957.421C614.24 960.111 612.14 962.211 609.52 963.741C606.9 965.271 604.07 966.031 601.02 966.031C597.97 966.031 595.12 965.291 592.47 963.801C589.82 962.311 587.69 960.241 586.1 957.591C584.5 954.941 583.7 951.871 583.7 948.391C583.7 944.911 584.48 942.071 586.04 939.461C587.6 936.851 589.67 934.781 592.25 933.251C594.83 931.721 597.71 930.961 600.91 930.961C604.11 930.961 607.23 931.691 609.84 933.141C612.45 934.591 614.51 936.631 615.99 939.241C617.48 941.851 618.22 944.871 618.22 948.281C618.22 951.691 617.42 954.741 615.82 957.431L615.84 957.421Z"
     fill="#291711"
     id="path19" />
  <path
     d="M677.32 952.571C676.19 950.721 674.74 949.231 672.96 948.101C671.18 946.971 669.18 946.071 666.97 945.381C664.75 944.691 662.59 944.091 660.49 943.581C659.04 943.221 657.64 942.841 656.3 942.441C654.96 942.041 653.79 941.591 652.81 941.081C651.83 940.571 651.03 939.951 650.41 939.231C649.79 938.511 649.48 937.561 649.48 936.401C649.48 935.091 649.86 933.911 650.62 932.861C651.38 931.811 652.47 931.011 653.89 930.461C655.31 929.921 656.92 929.641 658.74 929.641C660.19 929.641 661.61 929.861 662.99 930.291C664.37 930.731 665.71 931.291 667.02 931.981C668.33 932.671 669.56 933.451 670.72 934.321C671.52 934.901 672.32 935.071 673.12 934.811C673.92 934.561 674.64 933.991 675.3 933.121C676.17 931.961 676.57 930.871 676.5 929.851C676.43 928.831 675.74 927.891 674.43 927.021C673.34 926.151 672.21 925.411 671.05 924.791C669.89 924.171 668.67 923.631 667.4 923.161C666.13 922.691 664.8 922.341 663.42 922.131C662.04 921.911 660.55 921.801 658.95 921.801C655.17 921.801 651.91 922.401 649.15 923.601C646.39 924.801 644.27 926.491 642.78 928.671C641.29 930.851 640.55 933.431 640.55 936.401C640.55 938.941 641.02 941.031 641.97 942.661C642.91 944.291 644.13 945.641 645.62 946.691C647.11 947.741 648.81 948.601 650.74 949.251C652.66 949.901 654.57 950.491 656.46 950.991C657.84 951.431 659.18 951.831 660.49 952.191C661.8 952.551 663.01 952.971 664.14 953.441C665.26 953.911 666.26 954.441 667.14 955.021C668.01 955.601 668.7 956.331 669.21 957.201C669.72 958.071 669.97 959.131 669.97 960.361C669.97 962.471 668.95 964.161 666.92 965.431C664.89 966.701 662.2 967.341 658.86 967.341C657.7 967.341 656.52 967.181 655.32 966.851C654.12 966.521 652.92 966.131 651.73 965.651C650.53 965.181 649.4 964.631 648.35 964.021C647.3 963.401 646.37 962.841 645.57 962.331C644.41 961.391 643.48 960.901 642.79 960.861C642.1 960.821 641.39 961.241 640.67 962.111C640.02 962.691 639.56 963.271 639.31 963.851C639.05 964.431 638.96 965.031 639.04 965.651C639.11 966.271 639.33 966.941 639.69 967.661C640.27 968.821 641.25 969.881 642.63 970.821C644.01 971.761 645.57 972.581 647.31 973.271C649.05 973.961 650.89 974.491 652.81 974.851C654.73 975.211 656.57 975.391 658.31 975.391C664.55 975.391 669.56 974.011 673.34 971.251C677.11 968.491 679 964.711 679 959.921C679 956.871 678.44 954.421 677.31 952.571H677.32Z"
     fill="#291711"
     id="path20" />
  <path
     d="M149.01 717.41V861.75H142.66V724.92L74.53 864.45L6.79002 724.92V861.75H1.02002V717.41H10.26L75.12 850.59L140.17 717.41H149.02H149.01Z"
     fill="#291711"
     id="path21" />
  <path
     d="M221.95 864.45H220.03C208.22 864.45 198.25 860.35 190.1 852.13C181.95 843.92 177.88 833.59 177.88 821.15V717.42H184.23V820.96C184.23 831.87 187.76 840.91 194.81 848.1C201.86 855.29 210.59 858.88 220.98 858.88C231.37 858.88 240.06 855.32 247.06 848.2C254.05 841.08 257.55 832 257.55 820.97V717.43H263.9V820.78C263.9 833.36 259.82 843.78 251.68 852.05C243.53 860.33 233.62 864.46 221.95 864.46V864.45Z"
     fill="#291711"
     id="path22" />
  <path
     d="M399 717.411H404.58V863.871L298.35 733.191V861.751H292.77V715.291L399 845.771V717.401V717.411Z"
     fill="#291711"
     id="path23" />
  <path
     d="M433.45 717.41H439.61C461.17 717.41 478.55 724.5 491.76 738.68C504.97 752.86 511.58 769.86 511.58 789.68C511.58 809.5 505 826.47 491.85 840.58C478.7 854.7 461.28 861.75 439.6 861.75H433.44V717.41H433.45ZM441.14 723.19H439.6V855.79H441.14C459.87 855.79 475.23 849.31 487.23 836.35C499.23 823.39 505.22 807.84 505.22 789.68C505.22 771.52 499.22 755.9 487.23 742.82C475.23 729.73 459.87 723.19 441.14 723.19Z"
     fill="#291711"
     id="path24" />
  <path
     d="M550.74 841.74C536.18 826.73 528.9 809.19 528.9 789.1C528.9 769.01 536.28 751.64 551.03 736.95C565.78 722.26 583.49 714.91 604.15 714.91C624.81 714.91 642.45 722.22 657.07 736.85C671.7 751.48 679.01 768.89 679.01 789.1C679.01 809.31 671.76 826.89 657.26 841.83C642.76 856.78 625.44 864.25 605.3 864.25H602.41C582.52 864.25 565.3 856.74 550.74 841.73V841.74ZM672.66 789.49C672.66 770.57 665.95 754.34 652.55 740.8C639.14 727.27 622.98 720.5 604.05 720.5C585.12 720.5 568.93 727.27 555.46 740.8C541.99 754.34 535.25 770.57 535.25 789.49C535.25 808.41 541.99 824.68 555.46 838.28C568.93 851.88 585.1 858.68 603.96 858.68C622.82 858.68 638.99 851.88 652.46 838.28C665.93 824.68 672.67 808.42 672.67 789.49H672.66Z"
     fill="#291711"
     id="path25" />
  <defs
     id="defs28">
    <linearGradient
       id="paint0_linear_927_6541"
       x1="336.6"
       y1="682.01"
       x2="336.6"
       y2="343.41"
       gradientUnits="userSpaceOnUse">
      <stop
         stop-color="#FCEED8"
         id="stop25" />
      <stop
         offset="1"
         stop-color="#C86C22"
         id="stop26" />
    </linearGradient>
    <linearGradient
       id="paint1_linear_927_6541"
       x1="93.6901"
       y1="293.21"
       x2="582.32"
       y2="293.21"
       gradientUnits="userSpaceOnUse">
      <stop
         stop-color="#FCEED8"
         id="stop27" />
      <stop
         offset="0.86"
         stop-color="#C86C22"
         id="stop28" />
    </linearGradient>
  </defs>
</svg>
