<?xml version="1.0" encoding="UTF-8" standalone="no"?>
<svg
   width="1720"
   height="700"
   viewBox="0 0 1720 700"
   fill="none"
   version="1.1"
   id="svg28"
   sodipodi:docname="logo-nombre-horizontal.svg"
   inkscape:version="1.4 (86a8ad7, 2024-10-11)"
   xmlns:inkscape="http://www.inkscape.org/namespaces/inkscape"
   xmlns:sodipodi="http://sodipodi.sourceforge.net/DTD/sodipodi-0.dtd"
   xmlns="http://www.w3.org/2000/svg"
   xmlns:svg="http://www.w3.org/2000/svg">
  <sodipodi:namedview
     id="namedview28"
     pagecolor="#ffffff"
     bordercolor="#999999"
     borderopacity="1"
     inkscape:showpageshadow="2"
     inkscape:pageopacity="0"
     inkscape:pagecheckerboard="0"
     inkscape:deskcolor="#d1d1d1"
     inkscape:zoom="0.36506443"
     inkscape:cx="194.48622"
     inkscape:cy="568.39282"
     inkscape:window-width="1920"
     inkscape:window-height="1017"
     inkscape:window-x="-8"
     inkscape:window-y="-8"
     inkscape:window-maximized="1"
     inkscape:current-layer="svg28" />
  <path
     d="M811.81 426.71C811.4 425.68 810.89 424.86 810.27 424.25C809.65 423.64 808.93 423.17 808.11 422.86C807.29 422.55 806.42 422.4 805.49 422.4C804.15 422.4 802.9 422.78 801.72 423.56C800.54 424.33 799.64 425.33 799.03 426.56L754.83 518.81C754.01 520.56 753.49 522.1 753.29 523.43C753.08 524.76 753.34 525.89 754.06 526.82C754.78 527.74 755.91 528.51 757.45 529.13C760.01 530.26 761.99 530.52 763.38 529.9C764.77 529.28 766.02 527.8 767.15 525.43L779.38 499.25H831.47L843.85 525.58C844.98 527.94 846.24 529.46 847.62 530.12C849.01 530.79 850.93 530.5 853.39 529.27C854.93 528.55 856.06 527.76 856.78 526.88C857.5 526.01 857.83 525.03 857.78 523.95C857.73 522.87 857.29 521.56 856.47 520.02L811.81 426.7V426.71ZM784.91 487.38L805.34 443.64L825.89 487.38H784.91Z"
     fill="#291711"
     id="path1" />
  <path
     d="M941.48 421.85C940.56 421.29 939.07 421 937.01 421C935.16 421 933.75 421.28 932.78 421.85C931.8 422.42 931.19 423.21 930.93 424.24C930.67 425.27 930.55 426.55 930.55 428.09V467.48C930.1 466.89 929.65 466.3 929.16 465.74C926.28 462.4 922.82 459.81 918.76 457.96C914.7 456.11 910.16 455.19 905.13 455.19C900.51 455.19 896.09 456.11 891.89 457.96C887.68 459.81 884.01 462.4 880.88 465.74C877.75 469.08 875.28 473 873.49 477.52C871.69 482.04 870.79 486.97 870.79 492.3C870.79 497.63 871.69 502.75 873.49 507.31C875.28 511.88 877.75 515.86 880.88 519.25C884.01 522.64 887.66 525.26 891.81 527.1C895.97 528.95 900.41 529.87 905.13 529.87C910.16 529.87 914.73 528.95 918.84 527.1C922.95 525.25 926.44 522.63 929.31 519.25C929.74 518.75 930.14 518.23 930.54 517.7V524.49C930.75 526.44 931.33 527.83 932.31 528.65C933.28 529.47 934.9 529.88 937.16 529.88C939.21 529.88 940.7 529.6 941.63 529.03C942.55 528.46 943.17 527.64 943.48 526.57C943.79 525.49 943.94 524.24 943.94 522.8V427.94C943.94 426.5 943.76 425.27 943.4 424.24C943.04 423.21 942.4 422.42 941.48 421.85ZM926.92 505.17C924.92 508.82 922.2 511.66 918.76 513.72C915.32 515.77 911.45 516.8 907.13 516.8C902.81 516.8 899.05 515.77 895.5 513.72C891.96 511.67 889.19 508.82 887.18 505.17C885.18 501.53 884.18 497.34 884.18 492.62C884.18 487.9 885.18 483.69 887.18 479.99C889.18 476.29 891.93 473.42 895.42 471.37C898.91 469.32 902.81 468.29 907.12 468.29C911.43 468.29 915.31 469.34 918.75 471.45C922.19 473.56 924.91 476.43 926.91 480.07C928.91 483.72 929.91 487.9 929.91 492.62C929.91 497.34 928.91 501.53 926.91 505.17H926.92Z"
     fill="#291711"
     id="path2" />
  <path
     d="M1034.41 456.27C1033.54 455.65 1032.12 455.35 1030.17 455.35C1027.81 455.35 1026.09 455.84 1025.01 456.81C1023.93 457.79 1023.39 459.4 1023.39 461.66L1023.85 468.13C1022.1 465.77 1020.08 463.64 1017.77 461.74C1015.46 459.84 1012.71 458.3 1009.53 457.12C1006.35 455.94 1002.5 455.35 997.98 455.35C993.15 455.35 988.61 456.33 984.35 458.28C980.09 460.23 976.31 462.9 973.03 466.29C969.74 469.68 967.18 473.6 965.33 478.07C963.48 482.54 962.56 487.29 962.56 492.32C962.56 497.35 963.48 502.28 965.33 506.8C967.18 511.32 969.72 515.32 972.95 518.81C976.18 522.3 979.93 525.02 984.19 526.97C988.45 528.92 993.05 529.9 997.97 529.9C1002.89 529.9 1007.13 529.1 1010.68 527.51C1014.22 525.92 1017.07 524.07 1019.23 521.97C1021.39 519.87 1022.98 517.99 1024 516.35L1023.38 524.05C1023.48 526 1024.05 527.44 1025.07 528.36C1026.1 529.28 1027.74 529.75 1030 529.75C1031.95 529.75 1033.39 529.47 1034.31 528.9C1035.23 528.33 1035.85 527.49 1036.16 526.36C1036.47 525.23 1036.62 523.95 1036.62 522.51V463.07C1036.62 461.43 1036.47 460.04 1036.16 458.91C1035.85 457.78 1035.26 456.91 1034.39 456.29L1034.41 456.27ZM1019.71 505.01C1017.66 508.66 1014.94 511.55 1011.55 513.71C1008.16 515.87 1004.36 516.94 1000.15 516.94C995.43 516.94 991.24 515.89 987.6 513.78C983.95 511.68 981.11 508.8 979.05 505.16C977 501.52 975.97 497.38 975.97 492.76C975.97 488.14 977 483.83 979.05 480.13C981.1 476.43 983.9 473.51 987.44 471.35C990.98 469.19 995.11 468.12 999.84 468.12C1004.05 468.12 1007.87 469.15 1011.31 471.2C1014.75 473.25 1017.52 476.1 1019.63 479.75C1021.73 483.4 1022.79 487.63 1022.79 492.46C1022.79 497.29 1021.76 501.37 1019.71 505.01Z"
     fill="#291711"
     id="path3" />
  <path
     d="M1120.42 465.589C1117.24 462.259 1113.59 459.659 1109.49 457.809C1105.38 455.959 1100.92 455.039 1096.09 455.039C1091.26 455.039 1086.67 455.939 1082.61 457.729C1078.55 459.529 1075.06 462.099 1072.14 465.429C1071.74 465.889 1071.36 466.349 1070.98 466.829V460.269C1070.77 458.419 1070.13 457.139 1069.06 456.419C1067.98 455.699 1066.31 455.339 1064.06 455.339C1062.11 455.339 1060.64 455.619 1059.67 456.189C1058.69 456.759 1058.05 457.549 1057.74 458.579C1057.43 459.609 1057.28 460.839 1057.28 462.279V553.289C1057.28 554.729 1057.43 555.959 1057.74 556.989C1058.05 558.019 1058.71 558.809 1059.74 559.379C1060.77 559.939 1062.25 560.229 1064.21 560.229C1066.26 560.229 1067.78 559.949 1068.75 559.379C1069.72 558.809 1070.37 557.989 1070.67 556.919C1070.98 555.839 1071.08 554.579 1070.98 553.149V517.409C1071.33 517.859 1071.69 518.299 1072.06 518.729C1074.93 522.069 1078.4 524.659 1082.46 526.509C1086.51 528.359 1091.06 529.279 1096.09 529.279C1101.12 529.279 1105.41 528.379 1109.56 526.579C1113.72 524.789 1117.36 522.239 1120.49 518.959C1123.62 515.669 1126.08 511.769 1127.88 507.259C1129.67 502.739 1130.58 497.809 1130.58 492.479C1130.58 487.149 1129.68 482.159 1127.88 477.539C1126.08 472.919 1123.59 468.939 1120.41 465.609L1120.42 465.589ZM1114.18 504.779C1112.18 508.479 1109.43 511.379 1105.94 513.479C1102.45 515.589 1098.55 516.639 1094.24 516.639C1089.93 516.639 1086.05 515.589 1082.61 513.479C1079.17 511.379 1076.45 508.479 1074.45 504.779C1072.45 501.079 1071.45 496.869 1071.45 492.149C1071.45 487.429 1072.45 483.269 1074.45 479.679C1076.45 476.089 1079.17 473.259 1082.61 471.209C1086.05 469.159 1089.93 468.129 1094.24 468.129C1098.55 468.129 1102.45 469.129 1105.94 471.129C1109.43 473.129 1112.18 475.959 1114.18 479.599C1116.18 483.249 1117.18 487.429 1117.18 492.149C1117.18 496.869 1116.18 501.079 1114.18 504.779Z"
     fill="#291711"
     id="path4" />
  <path
     d="M1190.95 457.269C1189.92 457.019 1188.69 456.889 1187.25 456.889L1172.62 457.099V436.719C1172.62 435.389 1172.47 434.209 1172.16 433.179C1171.85 432.149 1171.18 431.359 1170.16 430.789C1169.13 430.229 1167.64 429.939 1165.69 429.939C1163.74 429.939 1162.3 430.219 1161.38 430.789C1160.46 431.359 1159.84 432.149 1159.53 433.179C1159.22 434.209 1159.07 435.489 1159.07 437.029V457.129L1151.06 457.049C1149 457.049 1147.52 457.559 1146.59 458.589C1145.67 459.619 1145.2 461.259 1145.2 463.519C1145.2 465.779 1145.58 467.579 1146.36 468.599C1147.13 469.629 1148.59 470.189 1150.75 470.289L1159.07 470.119V504.929C1159.07 509.549 1159.53 513.429 1160.46 516.559C1161.38 519.689 1162.9 522.229 1165 524.179C1167.1 526.129 1169.85 527.569 1173.24 528.489C1176.63 529.409 1180.73 529.879 1185.56 529.879C1186.89 529.879 1188.1 529.749 1189.18 529.499C1190.26 529.239 1191.08 528.629 1191.64 527.649C1192.2 526.679 1192.49 525.209 1192.49 523.259C1192.49 521.409 1192.23 520.029 1191.72 519.099C1191.21 518.179 1190.44 517.559 1189.41 517.249C1188.38 516.939 1187.05 516.789 1185.41 516.789C1183.05 516.789 1181.04 516.689 1179.4 516.479C1177.76 516.279 1176.45 515.759 1175.47 514.939C1174.49 514.119 1173.78 512.909 1173.31 511.319C1172.85 509.729 1172.62 507.599 1172.62 504.929V470.059L1187.4 470.279C1188.84 470.279 1190.07 470.129 1191.1 469.819C1192.12 469.509 1192.89 468.869 1193.41 467.889C1193.92 466.919 1194.18 465.449 1194.18 463.499C1194.18 461.549 1193.9 460.089 1193.33 459.109C1192.76 458.139 1191.97 457.519 1190.94 457.259L1190.95 457.269Z"
     fill="#291711"
     id="path5" />
  <path
     d="M1237.77 444.88C1238.69 445.5 1239.98 445.6 1241.62 445.19L1265.8 437.03C1267.75 436.41 1269.01 435.54 1269.57 434.41C1270.13 433.28 1270.06 431.64 1269.34 429.48C1268.72 427.53 1267.95 426.22 1267.03 425.55C1266.11 424.88 1264.87 424.7 1263.33 425.01L1238.69 433.33C1236.74 433.95 1235.53 434.82 1235.07 435.95C1234.61 437.08 1234.74 438.72 1235.45 440.88C1236.07 442.93 1236.84 444.27 1237.76 444.88H1237.77Z"
     fill="#291711"
     id="path6" />
  <path
     d="M1264.48 459.43C1258.78 456.1 1252.39 454.43 1245.31 454.43C1240.07 454.43 1235.17 455.43 1230.6 457.43C1226.03 459.43 1222 462.18 1218.51 465.67C1215.02 469.16 1212.27 473.19 1210.27 477.76C1208.27 482.33 1207.27 487.28 1207.27 492.62C1207.27 497.96 1208.32 503.09 1210.43 507.71C1212.53 512.33 1215.38 516.36 1218.98 519.8C1222.57 523.24 1226.65 525.94 1231.22 527.88C1235.79 529.83 1240.59 530.81 1245.62 530.81C1250.65 530.81 1255.27 529.86 1259.79 527.96C1264.31 526.06 1268.31 523.42 1271.8 520.03C1275.29 516.64 1278.06 512.61 1280.12 507.94C1282.17 503.27 1283.2 498.11 1283.2 492.46C1283.2 485.27 1281.51 478.81 1278.12 473.06C1274.73 467.31 1270.19 462.77 1264.49 459.43H1264.48ZM1266.26 505.25C1264 509.05 1261.02 512.03 1257.33 514.18C1253.64 516.33 1249.63 517.41 1245.32 517.41C1241.01 517.41 1236.98 516.36 1233.23 514.25C1229.48 512.15 1226.48 509.22 1224.22 505.47C1221.96 501.72 1220.83 497.39 1220.83 492.46C1220.83 487.53 1221.93 483.53 1224.14 479.83C1226.35 476.13 1229.27 473.21 1232.92 471.05C1236.56 468.89 1240.64 467.82 1245.16 467.82C1249.68 467.82 1254.09 468.85 1257.79 470.9C1261.49 472.96 1264.39 475.83 1266.49 479.52C1268.59 483.22 1269.65 487.48 1269.65 492.3C1269.65 497.12 1268.52 501.44 1266.26 505.24V505.25Z"
     fill="#291711"
     id="path7" />
  <path
     d="M1366.2 455.889C1365.28 455.329 1363.89 455.039 1362.04 455.039C1359.68 455.039 1357.96 455.449 1356.88 456.269C1355.8 457.089 1355.21 458.479 1355.11 460.429L1355.14 467.139C1354.78 466.619 1354.42 466.079 1354.03 465.589C1351.46 462.359 1348.33 459.869 1344.64 458.119C1340.94 456.369 1336.79 455.499 1332.17 455.499C1327.55 455.499 1322.85 456.399 1318.7 458.189C1314.54 459.989 1310.92 462.529 1307.84 465.809C1304.76 469.099 1302.37 472.949 1300.68 477.359C1298.99 481.779 1298.14 486.599 1298.14 491.839C1298.14 497.079 1298.99 501.899 1300.68 506.319C1302.37 510.739 1304.76 514.589 1307.84 517.869C1310.92 521.159 1314.54 523.699 1318.7 525.489C1322.86 527.289 1327.45 528.179 1332.48 528.179C1338.64 528.179 1343.9 526.689 1348.27 523.709C1351.04 521.819 1353.41 519.429 1355.39 516.549L1355.43 524.479C1355.43 528.179 1354.89 531.489 1353.81 534.409C1352.73 537.329 1351.24 539.819 1349.34 541.879C1347.44 543.929 1345.13 545.469 1342.41 546.499C1339.69 547.529 1336.69 548.039 1333.4 548.039C1330.11 548.039 1327.37 547.599 1325.16 546.729C1322.95 545.859 1321.1 544.879 1319.62 543.799C1318.13 542.719 1316.87 541.749 1315.85 540.869C1314.82 539.999 1313.79 539.559 1312.77 539.559C1311.75 539.559 1310.92 539.759 1310.31 540.179C1309.69 540.589 1308.87 541.309 1307.85 542.339C1307.23 543.059 1306.77 543.749 1306.46 544.419C1306.15 545.089 1306 545.929 1306 546.959C1306 548.289 1306.72 549.729 1308.16 551.269C1309.6 552.809 1311.55 554.249 1314.01 555.579C1316.47 556.909 1319.32 557.989 1322.56 558.809C1325.79 559.629 1329.26 560.039 1332.96 560.039C1338.09 560.039 1342.82 559.269 1347.13 557.729C1351.44 556.189 1355.19 553.929 1358.37 550.949C1361.55 547.969 1364.01 544.349 1365.76 540.089C1367.5 535.829 1368.38 530.979 1368.38 525.539V461.779C1368.38 460.339 1368.25 459.139 1368 458.159C1367.74 457.189 1367.15 456.419 1366.23 455.849L1366.2 455.889ZM1352.19 504.009C1350.24 507.599 1347.62 510.429 1344.34 512.479C1341.05 514.539 1337.31 515.559 1333.1 515.559C1328.89 515.559 1325.14 514.539 1321.86 512.479C1318.57 510.429 1316.01 507.629 1314.16 504.089C1312.31 500.549 1311.39 496.419 1311.39 491.689C1311.39 486.959 1312.29 482.859 1314.09 479.369C1315.88 475.879 1318.43 473.129 1321.71 471.129C1324.99 469.129 1328.74 468.129 1332.95 468.129C1337.16 468.129 1340.93 469.109 1344.27 471.059C1347.61 473.009 1350.25 475.759 1352.2 479.299C1354.15 482.839 1355.13 486.919 1355.13 491.539C1355.13 496.159 1354.15 500.419 1352.2 504.009H1352.19Z"
     fill="#291711"
     id="path8" />
  <path
     d="M1450.9 463.819C1448.02 461.149 1444.56 459.019 1440.5 457.429C1436.44 455.839 1431.85 455.039 1426.72 455.039C1419.22 455.039 1412.55 456.659 1406.7 459.889C1400.85 463.119 1396.28 467.509 1392.99 473.059C1389.7 478.599 1388.06 484.919 1388.06 491.999C1388.06 497.339 1388.96 502.319 1390.75 506.939C1392.55 511.559 1395.11 515.639 1398.45 519.179C1401.78 522.719 1405.87 525.519 1410.69 527.569C1415.51 529.619 1421.01 530.649 1427.17 530.649C1432.71 530.649 1437.67 530.029 1442.03 528.799C1446.39 527.569 1449.81 526.099 1452.27 524.409C1454.73 522.719 1455.97 521.099 1455.97 519.559C1455.97 518.739 1455.87 517.969 1455.66 517.249C1455.45 516.529 1455.04 515.759 1454.43 514.939C1453.91 513.919 1453.2 513.219 1452.27 512.859C1451.35 512.499 1450.47 512.419 1449.65 512.629C1448.83 512.839 1447.96 513.199 1447.03 513.709C1446.11 514.219 1445.11 514.739 1444.03 515.249C1442.95 515.759 1441.64 516.279 1440.1 516.789C1438.56 517.299 1436.74 517.709 1434.63 518.019C1432.52 518.329 1430.09 518.479 1427.31 518.479C1423.41 518.479 1419.53 517.609 1415.68 515.859C1411.83 514.109 1408.65 511.619 1406.13 508.389C1403.61 505.159 1402.41 501.329 1402.51 496.919H1447.02C1450.61 496.919 1453.64 495.839 1456.11 493.689C1458.57 491.529 1459.81 487.839 1459.81 482.599C1459.81 479.319 1459.04 476.029 1457.5 472.739C1455.96 469.449 1453.75 466.479 1450.88 463.809L1450.9 463.819ZM1445.51 486.919C1444.48 487.429 1443.05 487.689 1441.2 487.689H1402.55C1402.45 483.789 1403.47 480.299 1405.63 477.219C1407.79 474.139 1410.74 471.699 1414.49 469.899C1418.24 468.109 1422.32 467.209 1426.73 467.209C1430.73 467.209 1434.25 467.929 1437.28 469.369C1440.31 470.809 1442.69 472.709 1444.44 475.069C1446.19 477.429 1447.06 479.999 1447.06 482.769C1447.06 485.029 1446.55 486.419 1445.52 486.929L1445.51 486.919Z"
     fill="#291711"
     id="path9" />
  <path
     d="M1537.68 464.359C1534.96 461.329 1531.7 459.019 1527.9 457.429C1524.1 455.839 1519.94 455.039 1515.43 455.039C1512.66 455.039 1510.06 455.399 1507.65 456.119C1505.24 456.839 1503 457.839 1500.95 459.119C1498.9 460.399 1497.1 461.839 1495.56 463.429C1494.02 465.019 1492.73 466.689 1491.71 468.429L1492.02 461.349C1492.02 460.729 1491.97 460.069 1491.87 459.349C1491.77 458.629 1491.54 457.959 1491.18 457.349C1490.82 456.729 1490.2 456.249 1489.33 455.889C1488.46 455.529 1487.25 455.349 1485.71 455.349C1483.76 455.349 1482.27 455.609 1481.24 456.119C1480.21 456.629 1479.57 457.349 1479.32 458.279C1479.06 459.199 1478.94 460.339 1478.94 461.669V522.809C1478.94 524.249 1479.07 525.479 1479.32 526.509C1479.57 527.539 1480.19 528.329 1481.17 528.899C1482.14 529.459 1483.61 529.749 1485.56 529.749C1487.51 529.749 1488.97 529.489 1489.95 528.979C1490.92 528.459 1491.57 527.699 1491.87 526.669C1492.18 525.649 1492.33 524.409 1492.33 522.969V489.399C1492.33 485.089 1493.18 481.339 1494.87 478.159C1496.56 474.979 1498.98 472.519 1502.11 470.769C1505.24 469.019 1508.91 468.149 1513.12 468.149C1517.33 468.149 1521.15 469.019 1523.98 470.769C1526.8 472.519 1528.96 474.979 1530.45 478.159C1531.94 481.339 1532.68 485.089 1532.68 489.399V522.819C1532.68 524.259 1532.81 525.489 1533.07 526.519C1533.32 527.549 1533.97 528.339 1534.99 528.909C1536.02 529.469 1537.5 529.759 1539.46 529.759C1541.51 529.759 1543.03 529.499 1544 528.989C1544.97 528.469 1545.59 527.709 1545.85 526.679C1546.11 525.659 1546.24 524.419 1546.24 522.979V489.559C1546.24 484.219 1545.49 479.449 1544.01 475.239C1542.52 471.029 1540.42 467.409 1537.7 464.379L1537.68 464.359Z"
     fill="#291711"
     id="path10" />
  <path
     d="M1620.68 459.43C1614.98 456.1 1608.59 454.43 1601.51 454.43C1596.27 454.43 1591.37 455.43 1586.8 457.43C1582.23 459.43 1578.2 462.18 1574.71 465.67C1571.22 469.16 1568.47 473.19 1566.47 477.76C1564.47 482.33 1563.47 487.28 1563.47 492.62C1563.47 497.96 1564.52 503.09 1566.63 507.71C1568.73 512.33 1571.58 516.36 1575.18 519.8C1578.77 523.24 1582.85 525.94 1587.42 527.88C1591.99 529.83 1596.79 530.81 1601.82 530.81C1606.85 530.81 1611.47 529.86 1615.99 527.96C1620.51 526.06 1624.51 523.42 1628 520.03C1631.49 516.64 1634.26 512.61 1636.32 507.94C1638.37 503.27 1639.4 498.11 1639.4 492.46C1639.4 485.27 1637.71 478.81 1634.32 473.06C1630.93 467.31 1626.39 462.77 1620.69 459.43H1620.68ZM1622.45 505.25C1620.19 509.05 1617.21 512.03 1613.52 514.18C1609.83 516.33 1605.82 517.41 1601.51 517.41C1597.2 517.41 1593.17 516.36 1589.42 514.25C1585.67 512.15 1582.67 509.22 1580.41 505.47C1578.15 501.72 1577.02 497.39 1577.02 492.46C1577.02 487.53 1578.12 483.53 1580.33 479.83C1582.54 476.13 1585.46 473.21 1589.11 471.05C1592.75 468.89 1596.83 467.82 1601.35 467.82C1605.87 467.82 1610.28 468.85 1613.98 470.9C1617.68 472.96 1620.58 475.83 1622.68 479.52C1624.78 483.22 1625.84 487.48 1625.84 492.3C1625.84 497.12 1624.71 501.44 1622.45 505.24V505.25Z"
     fill="#291711"
     id="path11" />
  <path
     d="M1709.38 498.391C1707.79 495.771 1705.73 493.671 1703.22 492.081C1700.7 490.491 1697.88 489.211 1694.75 488.231C1691.62 487.261 1688.56 486.411 1685.59 485.691C1683.54 485.181 1681.56 484.641 1679.66 484.071C1677.76 483.511 1676.12 482.861 1674.73 482.151C1673.34 481.431 1672.21 480.561 1671.34 479.531C1670.47 478.511 1670.03 477.171 1670.03 475.531C1670.03 473.681 1670.57 472.011 1671.65 470.531C1672.73 469.041 1674.27 467.911 1676.27 467.141C1678.27 466.371 1680.56 465.981 1683.12 465.981C1685.17 465.981 1687.17 466.291 1689.13 466.901C1691.08 467.521 1692.98 468.311 1694.83 469.291C1696.68 470.271 1698.42 471.371 1700.07 472.601C1701.2 473.421 1702.33 473.651 1703.46 473.291C1704.59 472.931 1705.62 472.131 1706.54 470.901C1707.77 469.261 1708.34 467.721 1708.23 466.281C1708.13 464.841 1707.15 463.511 1705.3 462.281C1703.76 461.051 1702.17 460.001 1700.53 459.121C1698.89 458.251 1697.17 457.481 1695.37 456.811C1693.57 456.141 1691.7 455.651 1689.75 455.351C1687.8 455.041 1685.69 454.891 1683.44 454.891C1678.1 454.891 1673.48 455.741 1669.58 457.431C1665.68 459.121 1662.67 461.511 1660.57 464.591C1658.46 467.671 1657.41 471.321 1657.41 475.521C1657.41 479.111 1658.08 482.061 1659.41 484.381C1660.74 486.691 1662.46 488.591 1664.57 490.081C1666.67 491.571 1669.09 492.771 1671.81 493.701C1674.53 494.621 1677.22 495.451 1679.89 496.161C1681.84 496.781 1683.74 497.341 1685.59 497.851C1687.44 498.361 1689.16 498.951 1690.75 499.621C1692.34 500.291 1693.75 501.031 1694.98 501.851C1696.21 502.671 1697.19 503.701 1697.91 504.931C1698.63 506.161 1698.99 507.651 1698.99 509.401C1698.99 512.381 1697.55 514.771 1694.68 516.561C1691.8 518.361 1688.01 519.261 1683.28 519.261C1681.64 519.261 1679.97 519.031 1678.28 518.571C1676.59 518.111 1674.89 517.551 1673.2 516.881C1671.51 516.211 1669.91 515.441 1668.43 514.571C1666.94 513.701 1665.63 512.901 1664.5 512.181C1662.86 510.851 1661.55 510.151 1660.57 510.101C1659.59 510.051 1658.59 510.641 1657.57 511.871C1656.65 512.691 1656 513.511 1655.65 514.331C1655.29 515.151 1655.16 516.001 1655.27 516.871C1655.37 517.741 1655.68 518.691 1656.19 519.721C1657.01 521.361 1658.4 522.851 1660.35 524.191C1662.3 525.531 1664.51 526.681 1666.97 527.651C1669.43 528.621 1672.02 529.371 1674.75 529.881C1677.47 530.391 1680.06 530.651 1682.53 530.651C1691.36 530.651 1698.44 528.701 1703.78 524.801C1709.12 520.901 1711.79 515.561 1711.79 508.781C1711.79 504.471 1710.99 501.001 1709.4 498.381L1709.38 498.391Z"
     fill="#291711"
     id="path12" />
  <path
     d="M977.48 169.76V370.76H968.64V180.21L873.77 374.51L779.43 180.21V370.76H771.39V169.76H784.25L874.57 355.22L965.15 169.76H977.48Z"
     fill="#291711"
     id="path13" />
  <path
     d="M1079.05 374.51H1076.37C1059.93 374.51 1046.04 368.79 1034.7 357.36C1023.35 345.93 1017.68 331.54 1017.68 314.21V169.76H1026.52V313.94C1026.52 329.13 1031.43 341.72 1041.26 351.73C1051.08 361.74 1063.24 366.74 1077.71 366.74C1092.18 366.74 1104.28 361.78 1114.02 351.87C1123.76 341.95 1128.63 329.32 1128.63 313.95V169.77H1137.47V313.69C1137.47 331.2 1131.8 345.72 1120.45 357.24C1109.1 368.76 1095.3 374.53 1079.04 374.53L1079.05 374.51Z"
     fill="#291711"
     id="path14" />
  <path
     d="M1325.6 169.759H1333.37V373.709L1185.43 191.739V370.759H1177.66V166.809L1325.6 348.509V169.749V169.759Z"
     fill="#291711"
     id="path15" />
  <path
     d="M1373.57 169.76H1382.15C1412.17 169.76 1436.37 179.63 1454.78 199.37C1473.18 219.11 1482.38 242.79 1482.38 270.39C1482.38 297.99 1473.22 321.62 1454.91 341.28C1436.59 360.94 1412.34 370.76 1382.15 370.76H1373.57V169.76ZM1384.29 177.8H1382.15V362.45H1384.29C1410.37 362.45 1431.77 353.43 1448.48 335.38C1465.18 317.34 1473.54 295.67 1473.54 270.39C1473.54 245.11 1465.19 223.36 1448.48 205.13C1431.77 186.91 1410.38 177.79 1384.29 177.79V177.8Z"
     fill="#291711"
     id="path16" />
  <path
     d="M1536.91 342.889C1516.63 321.989 1506.49 297.56 1506.49 269.59C1506.49 241.62 1516.76 217.42 1537.31 196.96C1557.85 176.5 1582.51 166.27 1611.28 166.27C1640.05 166.27 1664.61 176.45 1684.98 196.82C1705.35 217.19 1715.53 241.44 1715.53 269.58C1715.53 297.72 1705.43 322.2 1685.25 343.01C1665.06 363.83 1640.94 374.23 1612.89 374.23H1608.87C1581.17 374.23 1557.19 363.78 1536.91 342.87V342.889ZM1706.69 270.13C1706.69 243.78 1697.35 221.18 1678.68 202.33C1660.01 183.48 1637.5 174.06 1611.14 174.06C1584.78 174.06 1562.23 183.49 1543.47 202.33C1524.71 221.18 1515.33 243.78 1515.33 270.13C1515.33 296.48 1524.71 319.13 1543.47 338.07C1562.23 357.01 1584.74 366.48 1611.01 366.48C1637.28 366.48 1659.79 357.01 1678.55 338.07C1697.31 319.13 1706.69 296.49 1706.69 270.13Z"
     fill="#291711"
     id="path17" />
  <path
     d="M344 11.01C156.78 11.01 5 162.79 5 350.01C5 488 87.45 606.74 205.77 659.64C247.98 678.51 291.1 680.49 340.33 680.49C381.29 680.49 424.21 681.74 460.55 668.43C590.35 620.9 682.99 496.27 682.99 350C682.99 162.78 531.21 11 343.99 11L344 11.01Z"
     fill="#291711"
     id="path18" />
  <path
     d="M586 349.701C585.58 357.681 582.89 365.411 577.56 371.331C568.78 381.061 555.62 383.821 542.1 383.651C538.04 386.811 533.53 389.431 528.84 391.481C516.79 396.731 503.59 398.641 490.54 400.181C466.04 403.061 440.63 404.721 417.23 396.901C412.96 395.471 408.78 393.741 404.47 392.451C392.83 399.461 384.99 412.601 382.06 426.131C381.6 428.251 381.24 430.391 380.97 432.531C406.42 434.171 431.86 436.041 457.36 435.101C475.9 434.421 492.79 433.321 510.25 426.681C537.13 416.461 569.22 400.731 581.76 373.731C585.23 366.261 586.21 357.381 586.01 349.711L586 349.701Z"
     fill="#C86C22"
     id="path19" />
  <path
     d="M284.65 394.881C281.15 392.211 277.39 390.581 273.4 389.601C271.92 390.381 270.46 391.191 268.98 391.951C235.08 409.481 193.87 405.061 157.4 393.791C151.97 392.111 146.49 390.251 141.9 386.891C141.34 386.481 140.8 386.051 140.28 385.611C129.15 384.971 117.79 382.491 109.49 375.201C102.99 369.491 99.24 361.391 97.95 352.781C98.55 358.291 99.4999 365.471 99.9899 366.961C101.48 371.481 103.16 375.941 105.03 380.321C110.44 393.041 121.55 402.871 132.94 410.421C150.45 422.031 171.31 427.701 192.15 430.371C228.43 435.021 265.54 432.261 302.34 430.981C300.91 413.821 296.33 403.771 284.65 394.871V394.881Z"
     fill="#C86C22"
     id="path20" />
  <path
     d="M443.72 672.49C436.83 670.95 433.65 665.49 431.41 658.85C428.55 650.39 425.76 641.82 422.93 633.32C417.25 616.22 412.01 598.97 407.21 581.6C397.6 546.86 389.76 511.63 383.72 476.09C381.27 461.7 379.13 446.92 380.97 432.52C381.24 430.38 381.6 428.24 382.06 426.12C385 412.59 392.83 399.45 404.47 392.44C406.93 390.96 409.56 389.74 412.35 388.86C421.6 385.94 431.62 386.83 441.14 384.96C451.98 382.83 464.43 373.51 472.96 365.28C468.89 363.28 464.93 360.49 460.38 358.2C459.59 357.8 458.79 357.43 458 357.05C457.76 356.94 457.52 356.83 457.3 356.72C447.5 364.74 432.43 364.34 419.28 366.24C407.77 367.91 396.64 372.08 386.87 378.4C383.63 380.5 380.08 382.94 376.27 382.31C373.78 381.9 371.71 380.22 369.67 378.73C358.82 370.83 345.16 366.88 331.77 367.78C328.75 367.98 325.65 368.46 323.11 370.09C320.15 371.99 318.1 375.35 314.73 376.35C312.67 376.96 310.45 376.55 308.34 376.14C292.14 373 275.95 369.86 259.75 366.71C247.57 364.35 234.9 360.4 226.75 350.4C220.98 351.99 215.39 354.01 210.16 356.72C209.35 357.14 208.54 357.59 207.74 358.04C218.6 370.94 234.77 382.25 253.08 386.09C259.95 387.53 266.81 387.97 273.41 389.59C277.4 390.57 281.16 392.2 284.66 394.87C296.35 403.77 300.93 413.82 302.35 430.98C302.82 436.59 302.95 442.97 302.87 450.32C302.83 454.76 302.71 459.56 302.55 464.76C302.55 464.96 302.55 465.12 302.54 465.23C301.72 472.74 300.3 480.17 298.91 487.6C298.67 488.86 298.42 490.12 298.18 491.38C288.43 542.26 274.14 592.26 255.51 640.6C254.07 644.33 252.61 648.06 251.12 651.78C250.74 651.95 250.26 653.23 250.05 653.57C249.27 654.88 248.49 656.18 247.69 657.48C245.8 660.58 243.64 663.56 241.2 666.25C239.31 668.33 236.9 668.84 234.16 668.84C229.11 668.84 221.76 666.11 216.99 664.4C256.22 680.26 299.08 689.02 343.99 689.02C383.82 689.02 422.03 682.13 457.53 669.51C453.46 670.79 447.68 673.38 443.7 672.49H443.72Z"
     fill="url(#paint0_linear_927_6540)"
     id="path21" />
  <path
     d="M101.43 339.681C103.24 344.771 106.11 349.431 110.32 352.751C114.83 356.301 120.52 358.031 126.22 358.741C126.32 358.751 126.43 358.771 126.53 358.781C146.47 361.101 165.01 351.211 177.78 336.401C184.28 328.871 189.42 320.141 192.95 310.851C196.86 300.571 199.07 289.601 205.14 280.251C207.63 276.421 211.51 271.161 216.58 271.481C218.73 271.791 219.54 273.241 219.81 275.381C224.34 311.931 249.22 326.341 289.65 324.471C310.88 323.491 357.47 324.241 378.63 322.091C398.67 320.051 413.01 312.691 413.61 294.241C414.06 280.471 410.55 267.071 390.86 251.111C379.68 242.051 363.46 234.581 334.48 227.341C327.07 225.491 289.84 222.601 285.78 223.281C259.17 227.751 256.24 228.661 230.56 237.121C228.89 237.671 226.94 238.131 225.36 238.921C205.54 245.361 186 252.911 167.71 262.961C150.32 272.521 134.09 284.341 120.44 298.741C111.33 308.351 103.24 319.441 99.5 332.071C99.52 332.191 99.53 332.311 99.55 332.431C99.96 334.881 100.58 337.331 101.42 339.681H101.43Z"
     fill="white"
     id="path22" />
  <path
     d="M583.04 331.32C580.56 324.92 576.81 319.1 572.78 313.55C561.76 298.41 548.38 284.99 533.26 273.93C513.07 259.17 490.32 248.23 466.96 239.49C443.25 230.62 418.94 224.1 394.03 219.51C377.03 216.38 359.33 213.83 342.05 214.81C335.12 215.2 297.36 220.31 285.79 223.27C289.85 222.59 327.08 225.48 334.49 227.33C363.47 234.58 379.69 242.05 390.87 251.1C410.57 267.06 414.07 280.47 413.62 294.23C413.02 312.68 398.68 320.04 378.64 322.08C357.48 324.23 310.89 323.48 289.66 324.46C249.23 326.33 224.35 311.92 219.82 275.37C219.55 273.23 218.75 271.78 216.59 271.47C211.52 271.15 207.64 276.41 205.15 280.24C199.08 289.59 196.87 300.56 192.96 310.84C189.42 320.13 184.28 328.86 177.79 336.39C165.01 351.2 146.48 361.09 126.54 358.77C126.44 358.76 126.33 358.74 126.23 358.73C120.53 358.03 114.83 356.29 110.33 352.74C106.12 349.42 103.26 344.76 101.44 339.67C100.6 337.31 99.9901 334.87 99.5701 332.42C99.5501 332.3 99.5401 332.18 99.5201 332.06C99.1901 333.18 98.8801 334.31 98.6201 335.46C97.8101 339.02 97.4201 342.71 97.4501 346.4C97.4501 346.88 97.4801 347.36 97.5001 347.84C97.5801 349.04 97.7501 350.8 97.9601 352.78C99.2401 361.38 103 369.49 109.5 375.2C117.8 382.49 129.16 384.97 140.29 385.61C141.49 385.68 142.69 385.73 143.88 385.76C152.01 385.97 160.31 385.47 167.9 382.57C181.65 377.32 193.11 366.69 205.85 359.13C206.48 358.76 207.11 358.4 207.74 358.04C208.54 357.59 209.35 357.14 210.16 356.72C215.39 354.01 220.99 351.99 226.75 350.4C227.21 350.27 227.68 350.14 228.14 350.02C238.44 347.32 249.24 345.96 259.52 344.63C300.14 339.39 341.26 341.34 382.03 343.32C407.65 344.56 434.09 346.02 457.3 356.72C465.38 361.39 481.72 373.7 505.58 378.6C511.32 379.94 517.14 380.95 522.96 381.86C529.14 382.83 535.66 383.56 542.11 383.64C555.63 383.8 568.79 381.05 577.57 371.32C582.91 365.41 585.59 357.68 586.01 349.69C586.34 343.47 585.29 337.1 583.05 331.31L583.04 331.32Z"
     fill="url(#paint1_linear_927_6540)"
     id="path23" />
  <path
     d="M499.75 355.12C505.29 357.69 511.11 359.47 516.5 360.32C524 361.51 529.55 358.58 531.75 351.11C536.05 336.47 528.09 318.5 518.88 307.33C512.19 299.22 505.22 291.17 496.82 284.78C492.64 281.6 488.12 278.88 483.28 276.82C478.79 274.91 471.54 271.22 466.58 273.53C466.05 273.78 465.59 274.29 465.58 274.88C465.58 275.31 465.8 275.71 466.03 276.07C467.57 278.54 469.7 280.54 471.24 282.99C472.85 285.55 474.09 288.32 475.04 291.19C476.91 296.84 477.63 302.82 477.8 308.74C478.06 317.88 473.61 329.79 478.7 337.91C483.3 345.25 491.19 351.13 499.75 355.12Z"
     fill="#FCEED8"
     id="path24" />
  <path
     d="M281.83 656.391C309.72 650.181 316.16 624.391 319.78 603.591C323.17 584.141 325.67 564.271 325.25 544.601C325.12 538.701 325.71 513.991 312.67 515.841C308.86 516.381 307.39 520.271 306.68 523.491C298.41 561.301 287.95 598.571 274.6 635.321C272.77 640.361 266.43 659.091 279.14 656.921C280.03 656.771 280.92 656.591 281.83 656.391Z"
     fill="white"
     id="path25" />
  <defs
     id="defs28">
    <linearGradient
       id="paint0_linear_927_6540"
       x1="340.34"
       y1="689.01"
       x2="340.34"
       y2="350.41"
       gradientUnits="userSpaceOnUse">
      <stop
         stop-color="#FCEED8"
         id="stop25" />
      <stop
         offset="1"
         stop-color="#C86C22"
         id="stop26" />
    </linearGradient>
    <linearGradient
       id="paint1_linear_927_6540"
       x1="97.4301"
       y1="300.21"
       x2="586.06"
       y2="300.21"
       gradientUnits="userSpaceOnUse">
      <stop
         stop-color="#FCEED8"
         id="stop27" />
      <stop
         offset="0.86"
         stop-color="#C86C22"
         id="stop28" />
    </linearGradient>
  </defs>
</svg>
