<?xml version="1.0" encoding="UTF-8" standalone="no"?>
<!-- Created with Inkscape (http://www.inkscape.org/) -->

<svg
   width="197mm"
   height="53mm"
   viewBox="0 0 197 53"
   version="1.1"
   id="svg1"
   inkscape:version="1.4 (86a8ad7, 2024-10-11)"
   sodipodi:docname="logo-nombre-horizontal.svg"
   xmlns:inkscape="http://www.inkscape.org/namespaces/inkscape"
   xmlns:sodipodi="http://sodipodi.sourceforge.net/DTD/sodipodi-0.dtd"
   xmlns="http://www.w3.org/2000/svg"
   xmlns:svg="http://www.w3.org/2000/svg">
  <sodipodi:namedview
     id="namedview1"
     pagecolor="#ffffff"
     bordercolor="#999999"
     borderopacity="1"
     inkscape:showpageshadow="2"
     inkscape:pageopacity="0"
     inkscape:pagecheckerboard="0"
     inkscape:deskcolor="#d1d1d1"
     inkscape:document-units="mm"
     inkscape:zoom="0.72604517"
     inkscape:cx="404.93348"
     inkscape:cy="176.98623"
     inkscape:window-width="1920"
     inkscape:window-height="1017"
     inkscape:window-x="-8"
     inkscape:window-y="-8"
     inkscape:window-maximized="1"
     inkscape:current-layer="layer1" />
  <defs
     id="defs1">
    <linearGradient
       id="paint1_linear_950_6882"
       x1="7.7974701"
       y1="21.3269"
       x2="43.870499"
       y2="21.3269"
       gradientUnits="userSpaceOnUse"
       gradientTransform="matrix(0.99846663,0,0,0.99952495,-0.67313586,0.10000002)">
      <stop
         stop-color="#FCEED8"
         id="stop27" />
      <stop
         offset="0.86"
         stop-color="#C86C22"
         id="stop28" />
    </linearGradient>
    <linearGradient
       id="paint0_linear_950_6882"
       x1="25.7306"
       y1="49.999001"
       x2="25.7306"
       y2="25.030001"
       gradientUnits="userSpaceOnUse"
       gradientTransform="matrix(0.99846663,0,0,0.99952495,-0.67313586,0.10000002)">
      <stop
         stop-color="#FCEED8"
         id="stop25" />
      <stop
         offset="1"
         stop-color="#C86C22"
         id="stop26" />
    </linearGradient>
  </defs>
  <g
     inkscape:label="Capa 1"
     inkscape:groupmode="layer"
     id="layer1">
    <path
       d="M 25.288292,0.10073837 C 11.488005,0.10073837 0.3,11.287981 0.3,25.087325 c 0,10.170775 6.0775311,18.922697 14.79904,22.821739 3.111452,1.390848 6.289839,1.536773 9.918699,1.536773 3.019242,0 6.182997,0.09203 8.861661,-0.888862 C 43.447117,45.053733 50.275826,35.867615 50.275826,25.086524 50.275826,11.287181 39.087821,0.1 25.287501,0.1 Z"
       fill="#291711"
       id="path1"
       sodipodi:nodetypes="cscscscc"
       style="stroke-width:0.999007" />
    <path
       d="m 43.126423,25.064738 c -0.0309,0.588118 -0.229409,1.15784 -0.622152,1.594242 -0.647224,0.717153 -1.617235,0.920554 -2.613792,0.90806 -0.299125,0.232878 -0.631735,0.426005 -0.977394,0.577131 -0.88824,0.386913 -1.861239,0.527746 -2.823179,0.641192 -1.805913,0.212307 -3.678932,0.334636 -5.403795,-0.241672 -0.314924,-0.10543 -0.622944,-0.23298 -0.940545,-0.328042 -0.858087,0.516649 -1.436008,1.485193 -1.651954,2.482411 -0.03434,0.15633 -0.06044,0.314066 -0.08036,0.471785 1.875937,0.120852 3.751153,0.258669 5.630869,0.189401 1.3666,-0.05007 2.61156,-0.131224 3.898588,-0.620609 1.981369,-0.753237 4.346726,-1.912689 5.271129,-3.902742 0.255854,-0.550642 0.327974,-1.205126 0.313206,-1.770456 z"
       fill="#c86c22"
       id="path2"
       style="stroke-width:0.999007" />
    <path
       d="m 20.912819,28.392253 c -0.257913,-0.196817 -0.535162,-0.316948 -0.829308,-0.389212 -0.10921,0.05762 -0.216702,0.117245 -0.325912,0.173224 -2.49888,1.292086 -5.536495,0.966335 -8.224776,0.13562 -0.400197,-0.123841 -0.80417,-0.260867 -1.14255,-0.508565 -0.04121,-0.03022 -0.08105,-0.0619 -0.119512,-0.09433 C 9.4504164,27.661841 8.613037,27.478993 8.0012214,26.941755 7.522106,26.52086 7.2456813,25.923838 7.1505862,25.289245 c 0.044302,0.406103 0.1143613,0.935346 0.1504213,1.045096 0.1098967,0.333159 0.2335304,0.661889 0.3714853,0.984735 0.3987878,0.937555 1.2177246,1.662109 2.0573358,2.21855 1.2906344,0.855787 2.8282624,1.273683 4.3644114,1.4705 2.674271,0.342741 5.409772,0.139328 8.122299,0.04499 -0.105433,-1.264801 -0.443021,-2.005551 -1.303891,-2.661537 z"
       fill="#c86c22"
       id="path3"
       style="stroke-width:0.999007" />
    <path
       d="m 32.638323,48.857611 c -0.507827,-0.113674 -0.74225,-0.51593 -0.907406,-1.00542 -0.210863,-0.623492 -0.416472,-1.255195 -0.625037,-1.881712 -0.418671,-1.26038 -0.804958,-2.531785 -1.158723,-3.812084 -0.708422,-2.560566 -1.286342,-5.157226 -1.731559,-7.776793 -0.180644,-1.060677 -0.338278,-2.150066 -0.202622,-3.211369 0.02061,-0.157737 0.04636,-0.315439 0.08036,-0.471781 0.216701,-0.997218 0.793865,-1.965761 1.65185,-2.482415 0.181329,-0.109039 0.375229,-0.199017 0.580804,-0.263856 0.681876,-0.215192 1.420416,-0.149632 2.122139,-0.287484 0.799089,-0.157016 1.716763,-0.843896 2.345611,-1.450509 -0.300156,-0.147433 -0.592,-0.353131 -0.927392,-0.52185 -0.05838,-0.02954 -0.117108,-0.0568 -0.17549,-0.0848 -0.01717,-0.0083 -0.03537,-0.01614 -0.05151,-0.02438 -0.722399,0.591215 -1.833284,0.561733 -2.802607,0.701772 -0.848404,0.123049 -1.668818,0.430394 -2.388915,0.896269 -0.238683,0.154715 -0.500547,0.334636 -0.781401,0.288169 -0.183391,-0.03023 -0.336216,-0.154028 -0.486465,-0.263856 -0.799774,-0.582319 -1.806737,-0.873381 -2.793712,-0.807111 -0.222543,0.01476 -0.451092,0.05013 -0.638294,0.170306 -0.218077,0.140017 -0.369358,0.387714 -0.617759,0.461378 -0.151795,0.04499 -0.315267,0.01476 -0.470976,-0.01545 -1.194168,-0.231402 -2.387542,-0.462875 -3.581708,-0.695063 -0.89772,-0.173913 -1.831703,-0.465088 -2.432462,-1.202133 -0.425369,0.117143 -0.837311,0.266054 -1.22284,0.465778 -0.05975,0.03091 -0.119513,0.06415 -0.178584,0.09736 0.800461,0.950853 1.992428,1.784448 3.342064,2.067424 0.506416,0.106152 1.012045,0.138641 1.498614,0.257984 0.294315,0.07221 0.57122,0.192388 0.829204,0.389209 0.861693,0.655985 1.19935,1.396739 1.303994,2.661538 0.03468,0.4135 0.04431,0.883746 0.03846,1.425503 -0.003,0.327287 -0.0103,0.680985 -0.02405,1.064283 0,0.01375 0,0.02748 -7.21e-4,0.03468 -0.06044,0.553539 -0.165188,1.10117 -0.26753,1.6488 -0.01717,0.09272 -0.03606,0.185794 -0.05392,0.27852 -0.71869,3.7502 -1.771981,7.435563 -3.145279,10.998458 -0.106118,0.275085 -0.213955,0.549861 -0.323509,0.824125 -0.02748,0.01374 -0.06353,0.106805 -0.07899,0.131874 -0.05735,0.0965 -0.115048,0.192321 -0.173774,0.288138 -0.139432,0.228378 -0.298439,0.448105 -0.478359,0.6464 -0.139432,0.153511 -0.316984,0.190945 -0.518919,0.190945 -0.372309,0 -0.9141,-0.201248 -1.265635,-0.327286 2.89166,1.16896 6.050986,1.81464 9.36142,1.81464 2.93589,0 5.752442,-0.507861 8.369119,-1.438003 -0.299812,0.09444 -0.725971,0.285389 -1.01943,0.219794 z"
       fill="url(#paint0_linear_950_6882)"
       id="path4"
       style="fill:url(#paint0_linear_950_6882);stroke-width:0.999007" />
    <path
       d="m 7.4081224,24.327982 c 0.13325,0.375119 0.3449728,0.718563 0.6552937,0.963346 0.3324378,0.261589 0.7518658,0.389111 1.1720143,0.441487 0.00691,6.99e-4 0.017174,0.0018 0.024044,0.0027 1.4697666,0.171028 2.8363646,-0.557933 3.7777346,-1.649516 0.479046,-0.555031 0.857985,-1.198533 1.118165,-1.883201 0.288137,-0.757747 0.451127,-1.566255 0.898509,-2.255433 0.183735,-0.282263 0.469602,-0.669977 0.843322,-0.64639 0.158318,0.02266 0.218075,0.129746 0.237994,0.287449 0.334153,2.693922 2.167885,3.756012 5.148112,3.618177 1.564897,-0.07215 4.999102,-0.01683 6.558811,-0.175423 1.477219,-0.150318 2.53422,-0.692766 2.578452,-2.052722 0.03434,-1.01492 -0.225632,-2.002542 -1.676922,-3.178888 -0.824156,-0.667786 -2.019694,-1.21842 -4.155847,-1.752067 -0.546255,-0.13634 -3.290514,-0.349335 -3.589779,-0.299263 -1.961484,0.329553 -2.177431,0.396611 -4.070335,1.020117 -0.12329,0.04059 -0.266841,0.07445 -0.383334,0.132631 -1.460939,0.474673 -2.901343,1.031207 -4.249467,1.771951 -1.281808,0.70467 -2.4781707,1.575851 -3.4843784,2.63725 -0.6715034,0.70827 -1.2678306,1.525676 -1.5435343,2.456634 0.00148,0.0089 0.0022,0.01785 0.00344,0.02644 0.030909,0.18061 0.075898,0.361228 0.1377144,0.534443 z"
       fill="#ffffff"
       id="path5"
       style="stroke-width:0.999007" />
    <path
       d="M 42.907558,23.70978 C 42.724854,23.238098 42.44836,22.809104 42.151296,22.399999 41.338953,21.28413 40.352664,20.294995 39.238173,19.47979 37.749965,18.391802 36.07294,17.585488 34.351099,16.941295 c -1.747736,-0.653791 -3.539673,-1.13436 -5.37584,-1.472702 -1.253098,-0.23068 -2.557779,-0.418601 -3.831517,-0.346333 -0.510813,0.02885 -3.294155,0.405306 -4.147057,0.623503 0.299469,-0.05006 3.043625,0.162923 3.589812,0.299264 2.136221,0.534347 3.331762,1.084986 4.155916,1.751968 1.452046,1.176444 1.710063,2.164769 1.676923,3.178989 -0.04431,1.359956 -1.101303,1.902393 -2.578452,2.052722 -1.559813,0.158528 -4.994019,0.103235 -6.558915,0.175423 -2.980123,0.137819 -4.81413,-0.924253 -5.148009,-3.618176 -0.02061,-0.157737 -0.07899,-0.264679 -0.237996,-0.287449 -0.373613,-0.0237 -0.65969,0.364023 -0.843182,0.646386 -0.447418,0.689179 -0.610373,1.49769 -0.898545,2.255434 -0.261004,0.684672 -0.639806,1.328169 -1.118268,1.8832 -0.941953,1.091588 -2.307867,1.820535 -3.7777005,1.649518 -0.00691,-7.01e-4 -0.017173,-0.0018 -0.024044,-0.0027 C 8.8140796,25.678631 8.3938962,25.550428 8.062214,25.288837 7.7517557,25.044041 7.5410631,24.700611 7.4069204,24.325391 7.3451038,24.15148 7.3001144,23.971663 7.269206,23.791048 c -0.00145,-0.0089 -0.00216,-0.01785 -0.00344,-0.02644 -0.024041,0.0826 -0.04705,0.165806 -0.066283,0.250565 -0.059757,0.262379 -0.088603,0.534343 -0.0862,0.806311 0,0.03533 0.00216,0.07078 0.00344,0.106154 0.00687,0.0885 0.017171,0.218214 0.034343,0.364126 0.094442,0.633892 0.3714854,1.231615 0.8506353,1.652515 0.6117821,0.537343 1.4491261,0.720051 2.2695747,0.767227 0.0886,0.0055 0.176864,0.0089 0.264438,0.01099 0.599281,0.01545 1.211166,-0.02129 1.770575,-0.235076 1.013555,-0.387013 1.858251,-1.170444 2.797422,-1.727677 0.04636,-0.02714 0.09272,-0.05388 0.139431,-0.08032 0.05907,-0.03331 0.118826,-0.06635 0.178584,-0.09736 0.385496,-0.199704 0.798261,-0.348632 1.222841,-0.465774 0.03433,-0.0096 0.06869,-0.01923 0.10234,-0.02782 0.759215,-0.199017 1.55528,-0.299265 2.313122,-0.397319 2.994102,-0.386216 6.025158,-0.242494 9.030354,-0.09653 1.888471,0.09135 3.837489,0.199016 5.548276,0.987633 0.595674,0.344236 1.800141,1.251607 3.558833,1.612735 0.423137,0.09877 0.852077,0.173227 1.281122,0.240297 0.455487,0.0715 0.936147,0.125352 1.411521,0.131225 0.996694,0.01167 1.966705,-0.190911 2.613894,-0.908065 0.393602,-0.435599 0.591108,-1.005425 0.622153,-1.594343 0.02404,-0.458385 -0.05322,-0.927958 -0.218076,-1.354654 z"
       fill="url(#paint1_linear_950_6882)"
       id="path6"
       style="fill:url(#paint1_linear_950_6882);stroke-width:0.999007" />
    <path
       d="m 36.766561,25.465442 c 0.408404,0.189503 0.837447,0.320658 1.234724,0.383317 0.55285,0.08779 0.961906,-0.128235 1.124073,-0.678874 0.316983,-1.078989 -0.269934,-2.403561 -0.94865,-3.226865 -0.493127,-0.59772 -1.006964,-1.191036 -1.626096,-1.662018 -0.308053,-0.234387 -0.641315,-0.434892 -0.998067,-0.586717 -0.331064,-0.140841 -0.865368,-0.412801 -1.231016,-0.242496 -0.03915,0.0182 -0.07314,0.05598 -0.07383,0.09945 0,0.03159 0.01717,0.06115 0.03433,0.08778 0.113676,0.182015 0.270623,0.32945 0.384091,0.510053 0.118484,0.18861 0.210177,0.392822 0.280235,0.604319 0.137714,0.416499 0.190948,0.857286 0.203311,1.293588 0.02061,0.673676 -0.308742,1.551559 0.06628,2.150073 0.338962,0.54094 0.920694,0.974339 1.551604,1.2684 z"
       fill="#fceed8"
       id="path7"
       style="stroke-width:0.999007" />
    <path
       d="m 20.704841,47.669797 c 2.05586,-0.45779 2.53051,-2.358699 2.797421,-3.891761 0.249672,-1.433608 0.434127,-2.898122 0.403185,-4.347937 -0.0103,-0.434883 0.03433,-2.256118 -0.927289,-2.119776 -0.280925,0.03984 -0.389208,0.326601 -0.441511,0.563806 -0.609686,2.786884 -1.380681,5.533897 -2.364668,8.242618 -0.134968,0.37152 -0.602304,1.752033 0.334498,1.592132 0.0656,-0.01031 0.131189,-0.02404 0.198158,-0.03915 z"
       fill="#ffffff"
       id="path8"
       style="stroke-width:0.999007" />
    <path
       d="M 91.249758,1.4924144 V 29.997231 H 89.995169 V 2.9743862 L 76.530503,30.529017 63.141122,2.9743862 V 29.997231 H 62.000004 V 1.4924144 h 1.825257 L 76.644084,27.793393 89.499792,1.4924144 Z"
       fill="#291711"
       id="path9"
       style="stroke-width:1.06363" />
    <path
       d="m 105.66634,30.529017 h -0.38076 c -2.33326,0 -4.30477,-0.811135 -5.914136,-2.432127 -1.610837,-1.620885 -2.415576,-3.66165 -2.415576,-6.119308 V 1.4924144 h 1.254598 V 21.939285 c 0,2.154162 0.69689,3.939616 2.091964,5.359233 1.39393,1.419513 3.11994,2.128635 5.17354,2.128635 2.05359,0 3.77113,-0.703376 5.15259,-2.108845 1.38254,-1.406746 2.07378,-3.197843 2.07378,-5.377533 V 1.4938349 h 1.25491 V 21.903861 c 0,2.483187 -0.80507,4.542353 -2.41517,6.176009 -1.61117,1.633757 -3.57011,2.452019 -5.87788,2.452019 z"
       fill="#291711"
       id="path10"
       style="stroke-width:1.06363" />
    <path
       d="m 140.65704,1.4869202 h 1.10287 V 30.410088 L 120.76353,4.6040176 V 29.991697 h -1.10281 V 1.0685636 L 140.65704,26.83641 V 1.4854997 Z"
       fill="#291711"
       id="path11"
       style="stroke-width:1.06363" />
    <path
       d="m 147.46337,1.4924144 h 1.21769 c 4.26034,0 7.69537,1.3997201 10.30837,4.1991407 2.61085,2.7994322 3.91677,6.1576379 3.91677,10.0717219 0,3.914085 -1.3006,7.265216 -3.89872,10.053283 -2.60021,2.788073 -6.04164,4.180671 -10.32642,4.180671 h -1.21769 z m 1.5208,1.1401992 h -0.30315 V 28.818771 h 0.30315 c 3.70197,0 6.73928,-1.279197 9.11087,-3.838981 2.36943,-2.558292 3.55625,-5.631457 3.55625,-9.216513 0,-3.585055 -1.18469,-6.6695714 -3.55625,-9.2548637 -2.37159,-2.5838661 -5.40781,-3.8772249 -9.11087,-3.8772249 z"
       fill="#291711"
       id="path12"
       style="stroke-width:1.06363" />
    <path
       d="m 170.64943,26.047402 c -2.87884,-2.96402 -4.31773,-6.428548 -4.31773,-10.395078 0,-3.966531 1.45693,-7.398487 4.3741,-10.3000198 C 173.62081,2.4507708 177.12074,1 181.20448,1 c 4.08275,0 7.56883,1.4436752 10.45937,4.3324432 2.8916,2.8887791 4.33585,6.3278208 4.33585,10.3184988 0,3.990676 -1.43359,7.462226 -4.29752,10.41348 -2.86505,2.952532 -6.28839,4.42747 -10.27006,4.42747 h -0.57006 c -3.9317,0 -7.33487,-1.481958 -10.21263,-4.447361 z M 194.7448,15.728918 c 0,-3.736861 -1.32512,-6.9418586 -3.97533,-9.6150725 -2.64913,-2.6732137 -5.84382,-4.0091127 -9.58517,-4.0091127 -3.74135,0 -6.94134,1.3373244 -9.6043,4.0091127 -2.66297,2.6732139 -3.99338,5.8782115 -3.99338,9.6150725 0,3.736859 1.33041,6.948951 3.99338,9.634901 2.66296,2.685944 5.85764,4.02897 9.58623,4.02897 3.72749,0 6.92223,-1.343026 9.5852,-4.02897 2.66294,-2.68595 3.99337,-5.89666 3.99337,-9.634901 z"
       fill="#291711"
       id="path13"
       style="stroke-width:1.06363" />
    <path
       d="m 70.190528,34.521076 c -0.05733,-0.143815 -0.12858,-0.258401 -0.215263,-0.343597 -0.08669,-0.0852 -0.187401,-0.150853 -0.301908,-0.194155 -0.114626,-0.04329 -0.23629,-0.06426 -0.366277,-0.06426 -0.187399,0 -0.362093,0.05306 -0.527062,0.162027 -0.164925,0.107555 -0.290772,0.24723 -0.376048,0.41903 l -6.17884,12.884864 c -0.114549,0.244334 -0.18728,0.459452 -0.215263,0.645295 -0.02936,0.185754 0.0069,0.343478 0.10763,0.473491 0.10071,0.128419 0.258645,0.235929 0.473887,0.322655 0.357874,0.157767 0.634688,0.194153 0.828989,0.107428 0.194315,-0.08661 0.36901,-0.293303 0.52706,-0.624334 l 1.709655,-3.656548 h 7.281814 l 1.730586,3.677504 c 0.15801,0.329647 0.334112,0.541996 0.526981,0.634119 0.194194,0.0936 0.46269,0.05306 0.806653,-0.118728 0.215101,-0.100508 0.373111,-0.210842 0.473865,-0.33383 0.100512,-0.121503 0.146752,-0.258404 0.13992,-0.409237 -0.0079,-0.150851 -0.06835,-0.333831 -0.182938,-0.548911 l -6.2431,-13.034209 z m -3.760371,8.473994 2.855881,-6.10931 2.872786,6.10931 z"
       fill="#291711"
       id="path14"
       style="stroke-width:1.06363" />
    <path
       d="m 88.318137,33.842489 c -0.128659,-0.0782 -0.336926,-0.118728 -0.624802,-0.118728 -0.258524,0 -0.455816,0.03899 -0.591389,0.118728 -0.137103,0.07969 -0.222338,0.189975 -0.258526,0.333831 -0.0362,0.143938 -0.05307,0.322654 -0.05307,0.537742 v 5.501785 c -0.06273,-0.08242 -0.125845,-0.164884 -0.194194,-0.243087 -0.402663,-0.466468 -0.886341,-0.828262 -1.453891,-1.086654 -0.567507,-0.258404 -1.202159,-0.386903 -1.905362,-0.386903 -0.645829,0 -1.263714,0.128499 -1.850762,0.386903 -0.588535,0.258405 -1.101562,0.620186 -1.539206,1.086654 -0.437483,0.466466 -0.782811,1.013997 -1.033054,1.645356 -0.251689,0.631246 -0.377531,1.319941 -0.377531,2.064377 0,0.744433 0.125842,1.459505 0.377531,2.096499 0.25008,0.638274 0.595571,1.194103 1.033054,1.667593 0.437644,0.47349 0.947776,0.839425 1.527907,1.096442 0.581622,0.258402 1.202281,0.386903 1.862061,0.386903 0.703203,0 1.342037,-0.128501 1.916621,-0.386903 0.574503,-0.258405 1.062403,-0.624336 1.463579,-1.096442 0.05991,-0.06978 0.115791,-0.142451 0.172081,-0.21647 v 0.948363 c 0.02814,0.272435 0.110567,0.466573 0.247669,0.581037 0.135493,0.114588 0.361854,0.171801 0.677954,0.171801 0.286667,0 0.494854,-0.03898 0.6248,-0.118728 0.128658,-0.07956 0.215505,-0.194155 0.258524,-0.3436 0.04342,-0.150853 0.06434,-0.325427 0.06434,-0.526471 V 34.693095 c 0,-0.201068 -0.02413,-0.372874 -0.07558,-0.516787 -0.05025,-0.143816 -0.139515,-0.254145 -0.268575,-0.333832 z m -2.035308,11.637579 c -0.279432,0.509765 -0.65986,0.906448 -1.140764,1.194203 -0.480824,0.286265 -1.021796,0.430198 -1.625773,0.430198 -0.603852,0 -1.129505,-0.143938 -1.625727,-0.430198 -0.494857,-0.286388 -0.88208,-0.684438 -1.16316,-1.194203 -0.279431,-0.508488 -0.419307,-1.093674 -0.419307,-1.7529 0,-0.659229 0.139916,-1.247287 0.419307,-1.764075 0.279431,-0.516787 0.664042,-0.917619 1.151981,-1.203986 0.48782,-0.286387 1.033054,-0.430196 1.635542,-0.430196 0.602447,0 1.144945,0.14671 1.62573,0.441364 0.480904,0.294672 0.861131,0.695608 1.140684,1.203989 0.279432,0.509764 0.419469,1.093675 0.419469,1.752904 0,0.659226 -0.139918,1.244412 -0.419469,1.7529 z"
       fill="#291711"
       id="path15"
       style="stroke-width:1.06363" />
    <path
       d="m 101.30658,38.649727 c -0.12184,-0.0866 -0.32006,-0.128499 -0.59278,-0.128499 -0.32969,0 -0.57035,0.06837 -0.72136,0.203926 -0.150777,0.136901 -0.226365,0.361772 -0.226365,0.677418 l 0.06427,0.903681 c -0.244847,-0.329648 -0.527059,-0.6271 -0.84995,-0.892513 -0.322865,-0.2654 -0.707422,-0.480512 -1.151948,-0.645289 -0.444553,-0.164765 -0.982667,-0.247226 -1.614596,-0.247226 -0.675218,0 -1.309786,0.136903 -1.90532,0.409235 -0.595571,0.272317 -1.12392,0.645289 -1.582468,1.118781 -0.459877,0.47349 -0.817831,1.021018 -1.076356,1.645354 -0.258524,0.624336 -0.387183,1.287818 -0.387183,1.990341 0,0.702519 0.128659,1.391107 0.387183,2.022463 0.258525,0.63125 0.613628,1.189949 1.065177,1.677482 0.451555,0.487422 0.975762,0.867302 1.571292,1.13963 0.595453,0.272436 1.238548,0.409344 1.926316,0.409344 0.687709,0 1.280523,-0.111809 1.776744,-0.333831 0.494839,-0.222095 0.893331,-0.480508 1.195238,-0.773793 0.301947,-0.293385 0.524206,-0.555935 0.666819,-0.784967 l -0.08692,1.075487 c 0.01198,0.272316 0.09371,0.473489 0.236407,0.601995 0.14394,0.128378 0.37311,0.194154 0.68926,0.194154 0.27258,0 0.47385,-0.03898 0.60243,-0.118728 0.12826,-0.07969 0.21552,-0.19701 0.25812,-0.35478 0.0433,-0.157845 0.0646,-0.336681 0.0646,-0.537741 v -8.302192 c 0,-0.229011 -0.0202,-0.423173 -0.0646,-0.581037 -0.0426,-0.157765 -0.12544,-0.279348 -0.24687,-0.365953 z m -2.054981,6.807682 c -0.286673,0.509767 -0.666789,0.913368 -1.140693,1.215053 -0.473856,0.301705 -1.005108,0.451153 -1.593639,0.451153 -0.659865,0 -1.245543,-0.146594 -1.754432,-0.441363 -0.510253,-0.293302 -0.907247,-0.695504 -1.195242,-1.203992 -0.28667,-0.50838 -0.430487,-1.086547 -0.430487,-1.731838 0,-0.645294 0.143938,-1.247288 0.430487,-1.764072 0.286668,-0.516789 0.677993,-0.924644 1.172929,-1.226333 0.494856,-0.301706 1.072215,-0.451145 1.733355,-0.451145 0.588544,0 1.122519,0.143817 1.603429,0.430191 0.480887,0.286266 0.868124,0.684331 1.163144,1.194203 0.293512,0.509766 0.441674,1.100589 0.441674,1.775243 0,0.674544 -0.14394,1.244411 -0.430525,1.7529 z"
       fill="#291711"
       id="path16"
       style="stroke-width:1.06363" />
    <path
       d="m 113.33085,39.951161 c -0.44452,-0.465088 -0.95501,-0.828262 -1.52824,-1.086655 -0.57425,-0.258403 -1.19852,-0.3869 -1.87279,-0.3869 -0.6753,0 -1.31763,0.125722 -1.88451,0.375723 -0.56785,0.251369 -1.05599,0.610293 -1.4644,1.075482 -0.0555,0.06426 -0.10857,0.1285 -0.16165,0.195524 v -0.916239 c -0.0282,-0.258403 -0.11899,-0.437219 -0.26815,-0.537744 -0.15119,-0.100638 -0.38518,-0.150853 -0.69976,-0.150853 -0.27218,0 -0.47751,0.03898 -0.61361,0.118729 -0.13709,0.07956 -0.22637,0.189893 -0.26899,0.33383 -0.0434,0.143814 -0.0648,0.315614 -0.0648,0.516787 v 12.711573 c 0,0.201154 0.0201,0.372952 0.0648,0.516785 0.0426,0.143817 0.1351,0.254263 0.27863,0.333832 0.14475,0.0782 0.351,0.118728 0.62533,0.118728 0.28707,0 0.49876,-0.03898 0.6349,-0.118728 0.1351,-0.07956 0.22634,-0.194155 0.26776,-0.3436 0.0439,-0.150855 0.0574,-0.326794 0.0439,-0.526575 v -4.991907 c 0.0492,0.06287 0.099,0.124353 0.15118,0.184343 0.40087,0.466575 0.88589,0.828258 1.45377,1.086655 0.56576,0.258405 1.20174,0.386903 1.90578,0.386903 0.70294,0 1.30279,-0.125645 1.88237,-0.377132 0.58173,-0.25 1.09009,-0.606143 1.52821,-1.064318 0.43713,-0.459444 0.78169,-1.004208 1.03267,-1.634077 0.25087,-0.631355 0.37751,-1.319941 0.37751,-2.064376 0,-0.744436 -0.12544,-1.441432 -0.37751,-2.086719 -0.2509,-0.64529 -0.5998,-1.201224 -1.04437,-1.666311 z m -0.87312,5.473698 c -0.27863,0.516787 -0.66358,0.921874 -1.15173,1.215161 -0.48711,0.29479 -1.03266,0.441362 -1.63566,0.441362 -0.60194,0 -1.14431,-0.146592 -1.62503,-0.441362 -0.48064,-0.293303 -0.8614,-0.698374 -1.14105,-1.215161 -0.27985,-0.516788 -0.41904,-1.104743 -0.41904,-1.76407 0,-0.659229 0.13911,-1.240267 0.41904,-1.741629 0.2798,-0.501467 0.66041,-0.896769 1.14105,-1.183033 0.48072,-0.286385 1.02309,-0.430195 1.62503,-0.430195 0.603,0 1.14855,0.139677 1.63566,0.419023 0.48815,0.279352 0.8731,0.674546 1.15173,1.183038 0.27984,0.509761 0.42007,1.093567 0.42007,1.752796 0,0.659327 -0.14031,1.247282 -0.42007,1.76407 z"
       fill="#291711"
       id="path17"
       style="stroke-width:1.06363" />
    <path
       d="m 123.19362,38.787702 c -0.14354,-0.03498 -0.31603,-0.05306 -0.51682,-0.05306 l -2.04515,0.02934 v -2.846581 c 0,-0.185753 -0.0201,-0.350638 -0.0641,-0.494446 -0.0435,-0.143817 -0.13709,-0.254263 -0.27982,-0.33383 -0.14475,-0.0782 -0.35302,-0.118729 -0.62533,-0.118729 -0.27219,0 -0.47431,0.03899 -0.60193,0.118729 -0.12864,0.07959 -0.21591,0.189973 -0.25932,0.33383 -0.0426,0.143817 -0.0641,0.322653 -0.0641,0.537743 v 2.807425 l -1.11981,-0.01124 c -0.28829,0 -0.49454,0.07127 -0.62532,0.215101 -0.12865,0.143817 -0.19338,0.372951 -0.19338,0.688588 0,0.315618 0.0531,0.567103 0.16162,0.709543 0.10734,0.14382 0.31159,0.222021 0.61364,0.236051 l 1.16342,-0.02372 v 4.861915 c 0,0.645293 0.0641,1.18729 0.19461,1.624395 0.12863,0.437219 0.34012,0.791986 0.63383,1.064318 0.2935,0.272316 0.67848,0.47349 1.15174,0.601993 0.47433,0.1285 1.04753,0.194156 1.72283,0.194156 0.18618,0 0.35503,-0.01808 0.50623,-0.05307 0.15117,-0.0362 0.26495,-0.121501 0.34336,-0.258401 0.0788,-0.135416 0.119,-0.340747 0.119,-0.61317 0,-0.258402 -0.0362,-0.451149 -0.10733,-0.581036 -0.0712,-0.128497 -0.17973,-0.215101 -0.32327,-0.258402 -0.14354,-0.0433 -0.32969,-0.06426 -0.5594,-0.06426 -0.3297,0 -0.61041,-0.01407 -0.84016,-0.04329 -0.22878,-0.02774 -0.41265,-0.100509 -0.54873,-0.215099 -0.1371,-0.114466 -0.23721,-0.283493 -0.30195,-0.505617 -0.0648,-0.222015 -0.0971,-0.519552 -0.0971,-0.892516 v -4.870227 l 2.06639,0.03056 c 0.20102,0 0.37309,-0.02091 0.51684,-0.06425 0.14233,-0.04329 0.25008,-0.132757 0.32327,-0.269576 0.0712,-0.135534 0.10735,-0.340827 0.10735,-0.613167 0,-0.272436 -0.0402,-0.47636 -0.11901,-0.613169 -0.0798,-0.135531 -0.19019,-0.222093 -0.33412,-0.258401 z"
       fill="#291711"
       id="path18"
       style="stroke-width:1.06363" />
    <path
       d="m 129.73828,37.064051 c 0.12865,0.0866 0.30958,0.100511 0.5381,0.0433 l 3.38086,-1.139741 c 0.27218,-0.08661 0.44878,-0.208186 0.52642,-0.365954 0.0789,-0.15785 0.0693,-0.386904 -0.0323,-0.688588 -0.0861,-0.272436 -0.19461,-0.455405 -0.32206,-0.548912 -0.12865,-0.0936 -0.30195,-0.11873 -0.51792,-0.07541 l -3.4446,1.16208 c -0.27221,0.0866 -0.44133,0.208064 -0.50624,0.365951 -0.0641,0.157768 -0.0459,0.386904 0.0531,0.688589 0.0873,0.286269 0.19459,0.47349 0.32326,0.558701 z"
       fill="#291711"
       id="path19"
       style="stroke-width:1.06363" />
    <path
       d="m 133.47217,39.092793 c -0.79653,-0.465086 -1.68986,-0.698268 -2.67997,-0.698268 -0.73273,0 -1.41762,0.139678 -2.0557,0.419022 -0.63916,0.279234 -1.20281,0.663378 -1.69095,1.150804 -0.48708,0.487533 -0.87207,1.05038 -1.15178,1.688652 -0.27982,0.638373 -0.41897,1.329727 -0.41897,2.075549 0,0.745922 0.14673,1.462381 0.44133,2.10767 0.2935,0.645292 0.69231,1.208142 1.19536,1.688651 0.50193,0.48051 1.07199,0.857623 1.71112,1.128568 0.63916,0.272315 1.31024,0.409238 2.0132,0.409238 0.70296,0 1.34848,-0.132638 1.98126,-0.398078 0.63169,-0.265401 1.19002,-0.634123 1.67818,-1.107612 0.48815,-0.473492 0.87523,-1.036342 1.16343,-1.688651 0.28626,-0.652314 0.43073,-1.373028 0.43073,-2.162142 0,-1.004208 -0.23601,-1.90651 -0.71039,-2.709665 -0.4743,-0.80305 -1.10818,-1.437173 -1.90577,-1.90375 z m 0.24887,6.399829 c -0.31603,0.530724 -0.73276,0.94698 -1.24852,1.247284 -0.5158,0.300301 -1.07627,0.451155 -1.67924,0.451155 -0.60197,0 -1.16562,-0.146712 -1.68991,-0.441367 -0.52428,-0.293301 -0.94329,-0.702524 -1.25916,-1.226329 -0.31602,-0.523805 -0.47431,-1.128568 -0.47431,-1.817157 0,-0.688588 0.15437,-1.247284 0.46261,-1.764069 0.30959,-0.516787 0.71788,-0.924641 1.22833,-1.22633 0.50835,-0.301706 1.07836,-0.451153 1.71008,-0.451153 0.63276,0 1.24851,0.143936 1.76646,0.430197 0.51683,0.287756 0.92203,0.688588 1.21554,1.20399 0.29351,0.516787 0.44243,1.111865 0.44243,1.785027 0,0.67327 -0.15842,1.276647 -0.47431,1.807369 z"
       fill="#291711"
       id="path20"
       style="stroke-width:1.06363" />
    <path
       d="m 147.69202,38.596325 c -0.12745,-0.0782 -0.32245,-0.118727 -0.58065,-0.118727 -0.33091,0 -0.57111,0.05721 -0.72211,0.171799 -0.15115,0.114467 -0.23279,0.308701 -0.24687,0.581036 l 0.004,0.937194 c -0.0511,-0.07263 -0.101,-0.148077 -0.15519,-0.216468 -0.35943,-0.451152 -0.79654,-0.798906 -1.31232,-1.043362 -0.51792,-0.244451 -1.09754,-0.365953 -1.74414,-0.365953 -0.64551,0 -1.30275,0.125723 -1.88235,0.375724 -0.58171,0.251363 -1.08793,0.606146 -1.51868,1.064314 -0.43066,0.459453 -0.76462,0.99719 -1.0007,1.613231 -0.23602,0.61731 -0.35543,1.290475 -0.35543,2.022358 0,0.73188 0.119,1.40515 0.35543,2.022466 0.23601,0.617419 0.57004,1.155162 1.0007,1.613223 0.43075,0.459556 0.93697,0.814331 1.51868,1.064317 0.58174,0.25149 1.22301,0.375725 1.92597,0.375725 0.86143,0 1.59631,-0.208065 2.20779,-0.624333 0.38719,-0.263913 0.71787,-0.59774 0.99542,-1.000065 l 0.004,1.107612 c 0,0.516786 -0.0755,0.979106 -0.22636,1.386961 -0.15117,0.407856 -0.35942,0.755608 -0.62532,1.043355 -0.26496,0.28639 -0.58809,0.501369 -0.96884,0.645298 -0.37955,0.143816 -0.79974,0.215102 -1.25918,0.215102 -0.4594,0 -0.84333,-0.06148 -1.15174,-0.182979 -0.30958,-0.121461 -0.56792,-0.258401 -0.77419,-0.409234 -0.20868,-0.150857 -0.38519,-0.286392 -0.52752,-0.409238 -0.14355,-0.121583 -0.28827,-0.182979 -0.43068,-0.182979 -0.14233,0 -0.25853,0.02774 -0.34336,0.08661 -0.0873,0.05721 -0.20103,0.157768 -0.34336,0.301705 -0.0873,0.10051 -0.15117,0.196888 -0.19459,0.290528 -0.0439,0.09361 -0.0648,0.210843 -0.0648,0.35478 0,0.185749 0.10099,0.386903 0.30195,0.601997 0.20223,0.215102 0.47432,0.416152 0.81783,0.601996 0.34457,0.185752 0.74234,0.336561 1.19536,0.451149 0.45197,0.114469 0.9369,0.171802 1.45376,0.171802 0.71788,0 1.37828,-0.107553 1.98128,-0.322655 0.60193,-0.2151 1.12625,-0.530829 1.57076,-0.94698 0.44458,-0.41626 0.78915,-0.921872 1.03371,-1.516847 0.24245,-0.595083 0.36588,-1.272498 0.36588,-2.032255 v -8.905567 c 0,-0.201069 -0.0161,-0.368689 -0.0531,-0.505617 -0.0362,-0.135414 -0.11902,-0.242965 -0.24769,-0.322656 z m -1.95787,6.720987 c -0.2722,0.501463 -0.63916,0.896766 -1.09752,1.183031 -0.45943,0.287755 -0.98266,0.430192 -1.57076,0.430192 -0.58917,0 -1.11346,-0.14245 -1.57185,-0.430192 -0.45941,-0.286265 -0.8178,-0.677419 -1.07622,-1.171862 -0.25853,-0.494445 -0.3872,-1.071233 -0.3872,-1.731843 0,-0.660715 0.12545,-1.23335 0.37754,-1.720777 0.25006,-0.487528 0.60618,-0.871554 1.06451,-1.150906 0.45946,-0.27935 0.9827,-0.419023 1.57187,-0.419023 0.5881,0 1.11561,0.136822 1.58247,0.409236 0.46688,0.272317 0.83589,0.656464 1.10812,1.150909 0.2734,0.494444 0.40945,1.064317 0.40945,1.709606 0,0.645293 -0.1363,1.240268 -0.40945,1.741629 z"
       fill="#291711"
       id="path21"
       style="stroke-width:1.06363" />
    <path
       d="m 159.52967,39.703935 c -0.40307,-0.372951 -0.88694,-0.670394 -1.4538,-0.892513 -0.56789,-0.222097 -1.20914,-0.333829 -1.92703,-0.333829 -1.04857,0 -1.9802,0.226279 -2.79801,0.677413 -0.81782,0.451154 -1.457,1.064318 -1.91639,1.839497 -0.46053,0.773799 -0.68912,1.656524 -0.68912,2.645419 0,0.745818 0.12543,1.44132 0.37552,2.08661 0.25209,0.64529 0.60936,1.215158 1.07623,1.709608 0.46579,0.494442 1.03795,0.885596 1.71112,1.17186 0.67427,0.28639 1.44316,0.430193 2.30458,0.430193 0.77423,0 1.46765,-0.08661 2.077,-0.2584 0.60937,-0.171803 1.08688,-0.377133 1.43144,-0.613169 0.34337,-0.236048 0.51685,-0.46232 0.51685,-0.677417 0,-0.114465 -0.0122,-0.22202 -0.0435,-0.322654 -0.0282,-0.100509 -0.0862,-0.208066 -0.17125,-0.322652 -0.0731,-0.142449 -0.17209,-0.240192 -0.30196,-0.290527 -0.12867,-0.05022 -0.25208,-0.0614 -0.36707,-0.03216 -0.11378,0.02937 -0.23601,0.07969 -0.36589,0.150853 -0.12863,0.07127 -0.26775,0.143939 -0.41897,0.215103 -0.15121,0.07127 -0.33411,0.143937 -0.54982,0.215101 -0.2147,0.07127 -0.47008,0.1285 -0.76468,0.171801 -0.29471,0.04329 -0.63489,0.06424 -1.02304,0.06424 -0.54559,0 -1.08799,-0.121502 -1.62609,-0.365954 -0.53811,-0.244454 -0.98264,-0.592211 -1.33468,-1.043358 -0.35219,-0.451151 -0.52004,-0.986025 -0.50619,-1.602061 h 6.22243 c 0.50197,0 0.92522,-0.15085 1.27086,-0.451151 0.34336,-0.301706 0.51685,-0.816985 0.51685,-1.548867 0,-0.458171 -0.10735,-0.917727 -0.32326,-1.377176 -0.21468,-0.459554 -0.52432,-0.874426 -0.92526,-1.247285 z m -0.75403,3.226459 c -0.14353,0.07117 -0.34333,0.10755 -0.60192,0.10755 h -5.40356 c -0.0122,-0.544761 0.12865,-1.032186 0.43073,-1.462383 0.30194,-0.430192 0.71465,-0.771029 1.23895,-1.022402 0.52429,-0.250083 1.09432,-0.375725 1.71113,-0.375725 0.55832,0 1.05072,0.100512 1.47399,0.301706 0.42434,0.201147 0.7572,0.46647 1.0018,0.796134 0.24446,0.329565 0.36589,0.688589 0.36589,1.075487 0,0.315618 -0.0712,0.509766 -0.2147,0.581041 z"
       fill="#291711"
       id="path22"
       style="stroke-width:1.06363" />
    <path
       d="m 171.66185,39.77936 c -0.37954,-0.42328 -0.83589,-0.745819 -1.36658,-0.967938 -0.5317,-0.222097 -1.11345,-0.333829 -1.74407,-0.333829 -0.38719,0 -0.74976,0.05032 -1.08688,0.150854 -0.33694,0.100507 -0.65087,0.240191 -0.93692,0.419021 -0.28628,0.178716 -0.53817,0.379866 -0.753,0.601996 -0.21589,0.22202 -0.39563,0.455297 -0.53915,0.698375 l 0.0434,-0.988894 c 0,-0.08661 -0.008,-0.178838 -0.0201,-0.279353 -0.0122,-0.100636 -0.0459,-0.194155 -0.0956,-0.27935 -0.0511,-0.08661 -0.13713,-0.153627 -0.25854,-0.203927 -0.12222,-0.05029 -0.29149,-0.0754 -0.50623,-0.0754 -0.2734,0 -0.48066,0.03619 -0.62532,0.107551 -0.14353,0.07127 -0.2328,0.171799 -0.26817,0.301664 -0.0362,0.1285 -0.0531,0.287753 -0.0531,0.473494 v 8.539524 c 0,0.201151 0.0161,0.37295 0.0531,0.516789 0.0362,0.143936 0.12142,0.254259 0.25852,0.333829 0.1363,0.07828 0.34134,0.118727 0.61363,0.118727 0.2722,0 0.47644,-0.0362 0.61364,-0.107549 0.13633,-0.07253 0.22638,-0.178719 0.2678,-0.322656 0.0438,-0.142448 0.0648,-0.315618 0.0648,-0.516788 v -4.688717 c 0,-0.601996 0.11902,-1.125804 0.35503,-1.569934 0.236,-0.44413 0.57429,-0.787729 1.01247,-1.032185 0.43707,-0.244453 0.94965,-0.365958 1.53884,-0.365958 0.5881,0 1.12198,0.121505 1.51756,0.365958 0.39443,0.244451 0.69661,0.588055 0.90504,1.032185 0.20828,0.44413 0.3116,0.967938 0.3116,1.569934 v 4.667882 c 0,0.20107 0.0201,0.37287 0.0544,0.516784 0.0363,0.143815 0.12544,0.254141 0.26898,0.333829 0.14352,0.0782 0.34978,0.118729 0.62427,0.118729 0.28707,0 0.49875,-0.0362 0.63489,-0.107551 0.13509,-0.07263 0.22233,-0.178835 0.25851,-0.322656 0.0362,-0.142527 0.0544,-0.315735 0.0544,-0.51678 v -4.66789 c 0,-0.745816 -0.10419,-1.412065 -0.31158,-2.000122 -0.20828,-0.58806 -0.50196,-1.093675 -0.88161,-1.516853 z"
       fill="#291711"
       id="path23"
       style="stroke-width:1.06363" />
    <path
       d="m 183.26236,39.092793 c -0.79654,-0.465086 -1.68991,-0.698268 -2.67891,-0.698268 -0.73277,0 -1.41763,0.139678 -2.05678,0.419022 -0.63916,0.279234 -1.20281,0.663378 -1.68991,1.150804 -0.48813,0.487533 -0.87312,1.05038 -1.15173,1.688652 -0.27985,0.638373 -0.42008,1.329727 -0.42008,2.075549 0,0.745922 0.14676,1.462381 0.44238,2.10767 0.29351,0.645292 0.69127,1.208142 1.19536,1.688651 0.50093,0.48051 1.07203,0.857623 1.7101,1.128568 0.63914,0.272315 1.31022,0.409238 2.01318,0.409238 0.70298,0 1.34956,-0.132638 1.98128,-0.398078 0.63173,-0.265401 1.19111,-0.634123 1.67925,-1.107612 0.48704,-0.473492 0.87415,-1.036342 1.16239,-1.688651 0.28707,-0.652314 0.43068,-1.373028 0.43068,-2.162142 0,-1.004208 -0.23599,-1.90651 -0.71038,-2.709665 -0.47328,-0.80305 -1.10817,-1.437173 -1.90471,-1.90375 z m 0.24767,6.399829 c -0.31602,0.530724 -0.73276,0.94698 -1.24858,1.247284 -0.51573,0.300301 -1.07621,0.451155 -1.67812,0.451155 -0.60302,0 -1.1667,-0.146712 -1.69096,-0.441367 -0.52428,-0.293301 -0.9433,-0.702524 -1.25916,-1.226329 -0.31601,-0.523805 -0.47433,-1.128568 -0.47433,-1.817157 0,-0.688588 0.15401,-1.247284 0.46263,-1.764069 0.30959,-0.516787 0.71781,-0.924641 1.22833,-1.22633 0.50832,-0.301706 1.07835,-0.451153 1.71008,-0.451153 0.63277,0 1.24851,0.143936 1.76645,0.430197 0.51684,0.287756 0.92205,0.688588 1.21554,1.20399 0.2935,0.516787 0.44243,1.111865 0.44243,1.785027 0,0.67327 -0.15842,1.276647 -0.47431,1.807369 z"
       fill="#291711"
       id="path24"
       style="stroke-width:1.06363" />
    <path
       d="m 195.66258,44.532557 c -0.22233,-0.365951 -0.50942,-0.659227 -0.86039,-0.881347 -0.35301,-0.222017 -0.74657,-0.400852 -1.18469,-0.537742 -0.43712,-0.135417 -0.86464,-0.254143 -1.28043,-0.354777 -0.28588,-0.07116 -0.56366,-0.146592 -0.82845,-0.226279 -0.26577,-0.0782 -0.49559,-0.168946 -0.68917,-0.268175 -0.19462,-0.100508 -0.35302,-0.222015 -0.4743,-0.365953 -0.12103,-0.142454 -0.18296,-0.329571 -0.18296,-0.558699 0,-0.258406 0.0755,-0.491576 0.22636,-0.698271 0.15119,-0.208186 0.36589,-0.365954 0.64555,-0.473492 0.27983,-0.107548 0.59979,-0.162106 0.95819,-0.162106 0.28628,0 0.56578,0.04329 0.84015,0.128497 0.27219,0.08661 0.53811,0.197006 0.79656,0.333829 0.25852,0.136902 0.50193,0.29053 0.73271,0.462321 0.15761,0.114544 0.31604,0.146711 0.47326,0.09637 0.15842,-0.05022 0.30197,-0.162034 0.43075,-0.333832 0.17207,-0.229015 0.25207,-0.44413 0.236,-0.645293 -0.0122,-0.201071 -0.15118,-0.386903 -0.40945,-0.558698 -0.2147,-0.171802 -0.43708,-0.318392 -0.66682,-0.441366 -0.22959,-0.121503 -0.47006,-0.229013 -0.72104,-0.322535 -0.25206,-0.09358 -0.51365,-0.162107 -0.78594,-0.203925 -0.27219,-0.04331 -0.56787,-0.06425 -0.8816,-0.06425 -0.74657,0 -1.39316,0.118729 -1.93768,0.354774 -0.54554,0.235933 -0.96669,0.569767 -1.26019,0.999959 -0.29474,0.430197 -0.44136,0.94007 -0.44136,1.526639 0,0.501464 0.0937,0.913467 0.27982,1.237497 0.18617,0.322655 0.42647,0.588057 0.72106,0.796136 0.29351,0.208185 0.63172,0.375725 1.01241,0.505612 0.37956,0.1285 0.75618,0.244455 1.12944,0.343603 0.2722,0.08661 0.53812,0.164765 0.79658,0.236049 0.25851,0.07127 0.49875,0.153586 0.72103,0.247227 0.22234,0.0936 0.42008,0.196889 0.59236,0.311476 0.17128,0.114588 0.30839,0.258405 0.40942,0.430193 0.10013,0.1718 0.15117,0.379867 0.15117,0.624334 0,0.416261 -0.20183,0.750075 -0.60296,1.00006 -0.40207,0.251373 -0.93269,0.377134 -1.59312,0.377134 -0.22959,0 -0.46364,-0.03216 -0.69976,-0.09636 -0.23601,-0.06426 -0.47328,-0.142452 -0.70936,-0.236052 -0.23717,-0.0936 -0.46046,-0.201149 -0.6668,-0.32265 -0.20827,-0.121503 -0.3912,-0.233278 -0.54982,-0.333831 -0.22957,-0.185753 -0.41263,-0.283491 -0.5498,-0.290528 -0.13632,-0.0069 -0.27664,0.07541 -0.41905,0.247227 -0.12866,0.114545 -0.21912,0.229012 -0.26777,0.343599 -0.0511,0.114584 -0.0692,0.233273 -0.0531,0.354775 0.0122,0.121465 0.0576,0.254224 0.12866,0.398082 0.1138,0.229014 0.30839,0.437211 0.58067,0.624333 0.27337,0.18712 0.58168,0.347744 0.9263,0.483279 0.34336,0.135411 0.70504,0.240189 1.08685,0.311475 0.38075,0.07115 0.74233,0.10755 1.08798,0.10755 1.23467,0 2.2237,-0.272435 2.9703,-0.817088 C 195.62668,47.676572 196,46.930751 196,45.983773 c 0,-0.602 -0.11177,-1.086658 -0.33412,-1.452594 z"
       fill="#291711"
       id="path25"
       style="stroke-width:1.06363" />
  </g>
</svg>
