<svg width="680" height="1053" viewBox="0 0 680 1053" fill="none" xmlns="http://www.w3.org/2000/svg">
<g clip-path="url(#clip0_963_7472)">
<path d="M340 1.00999C152.78 1.00999 1 152.79 1 340.01C1 478 83.45 596.74 201.77 649.64C243.98 668.51 287.1 670.49 336.33 670.49C377.29 670.49 420.21 671.74 456.55 658.43C586.35 610.9 678.99 486.27 678.99 340C678.99 152.78 527.21 1 339.99 1L340 1.00999Z" fill="#FCEED8"/>
<path d="M122.74 368.19L215.12 321.09H448.33L558.67 370.85L510.48 403.51H267.39L162.02 399.43L122.74 368.19Z" fill="#291711"/>
<path d="M582 339.701C581.58 347.681 578.89 355.411 573.56 361.331C564.78 371.061 551.62 373.821 538.1 373.651C534.04 376.811 529.53 379.431 524.84 381.481C512.79 386.731 499.59 388.641 486.54 390.181C462.04 393.061 436.63 394.721 413.23 386.901C408.96 385.471 404.78 383.741 400.47 382.451C388.83 389.461 380.99 402.601 378.06 416.131C377.6 418.251 377.24 420.391 376.97 422.531C402.42 424.171 427.86 426.041 453.36 425.101C471.9 424.421 488.79 423.321 506.25 416.681C533.13 406.461 565.22 390.731 577.76 363.731C581.23 356.261 582.21 347.381 582.01 339.711L582 339.701Z" fill="#904A1D"/>
<path d="M280.65 384.881C277.15 382.211 273.39 380.581 269.4 379.601C267.92 380.381 266.46 381.191 264.98 381.951C231.08 399.481 189.87 395.061 153.4 383.791C147.97 382.111 142.49 380.251 137.9 376.891C137.34 376.481 136.8 376.051 136.28 375.611C125.15 374.971 113.79 372.491 105.49 365.201C98.9902 359.491 95.2402 351.391 93.9502 342.781C94.5502 348.291 95.5002 355.471 95.9902 356.961C97.4802 361.481 99.1602 365.941 101.03 370.321C106.44 383.041 117.55 392.871 128.94 400.421C146.45 412.031 167.31 417.701 188.15 420.371C224.43 425.021 261.54 422.261 298.34 420.981C296.91 403.821 292.33 393.771 280.65 384.871V384.881Z" fill="#904A1D"/>
<path d="M439.72 662.49C432.83 660.95 429.65 655.49 427.41 648.85C424.55 640.39 421.76 631.82 418.93 623.32C413.25 606.22 408.01 588.97 403.21 571.6C393.6 536.86 385.76 501.63 379.72 466.09C377.27 451.7 375.13 436.92 376.97 422.52C377.24 420.38 377.6 418.24 378.06 416.12C381 402.59 388.83 389.45 400.47 382.44C402.93 380.96 405.56 379.74 408.35 378.86C417.6 375.94 427.62 376.83 437.14 374.96C447.98 372.83 460.43 363.51 468.96 355.28C464.89 353.28 460.93 350.49 456.38 348.2C455.59 347.8 454.79 347.43 454 347.05C453.76 346.94 453.52 346.83 453.3 346.72C443.5 354.74 428.43 354.34 415.28 356.24C403.77 357.91 392.64 362.08 382.87 368.4C379.63 370.5 376.08 372.94 372.27 372.31C369.78 371.9 367.71 370.22 365.67 368.73C354.82 360.83 341.16 356.88 327.77 357.78C324.75 357.98 321.65 358.46 319.11 360.09C316.15 361.99 314.1 365.35 310.73 366.35C308.67 366.96 306.45 366.55 304.34 366.14C288.14 363 271.95 359.86 255.75 356.71C243.57 354.35 230.9 350.4 222.75 340.4C216.98 341.99 211.39 344.01 206.16 346.72C205.35 347.14 204.54 347.59 203.74 348.04C214.6 360.94 230.77 372.25 249.08 376.09C255.95 377.53 262.81 377.97 269.41 379.59C273.4 380.57 277.16 382.2 280.66 384.87C292.35 393.77 296.93 403.82 298.35 420.98C298.82 426.59 298.95 432.97 298.87 440.32C298.83 444.76 298.71 449.56 298.55 454.76C298.55 454.96 298.55 455.12 298.54 455.23C297.72 462.74 296.3 470.17 294.91 477.6C294.67 478.86 294.42 480.12 294.18 481.38C284.43 532.26 270.14 582.26 251.51 630.6C250.07 634.33 248.61 638.06 247.12 641.78C246.74 641.95 246.26 643.23 246.05 643.57C245.27 644.88 244.49 646.18 243.69 647.48C241.8 650.58 239.64 653.56 237.2 656.25C235.31 658.33 232.9 658.84 230.16 658.84C225.11 658.84 217.76 656.11 212.99 654.4C252.22 670.26 295.08 679.02 339.99 679.02C379.82 679.02 418.03 672.13 453.53 659.51C449.46 660.79 443.68 663.38 439.7 662.49H439.72Z" fill="url(#paint0_linear_963_7472)"/>
<path d="M97.43 329.681C99.24 334.771 102.11 339.431 106.32 342.751C110.83 346.301 116.52 348.031 122.22 348.741C122.32 348.751 122.43 348.771 122.53 348.781C142.47 351.101 161.01 341.211 173.78 326.401C180.28 318.871 185.42 310.141 188.95 300.851C192.86 290.571 195.07 279.601 201.14 270.251C203.63 266.421 207.51 261.161 212.58 261.481C214.73 261.791 215.54 263.241 215.81 265.381C220.34 301.931 245.22 316.341 285.65 314.471C306.88 313.491 353.47 314.241 374.63 312.091C394.67 310.051 409.01 302.691 409.61 284.241C410.06 270.471 406.55 257.071 386.86 241.111C375.68 232.051 359.46 224.581 330.48 217.341C323.07 215.491 285.84 212.601 281.78 213.281C255.17 217.751 252.24 218.661 226.56 227.121C224.89 227.671 222.94 228.131 221.36 228.921C201.54 235.361 182 242.911 163.71 252.961C146.32 262.521 130.09 274.341 116.44 288.741C107.33 298.351 99.24 309.441 95.5 322.071C95.52 322.191 95.53 322.311 95.55 322.431C95.96 324.881 96.58 327.331 97.42 329.681H97.43Z" fill="white"/>
<path d="M579.04 321.32C576.56 314.92 572.81 309.1 568.78 303.55C557.76 288.41 544.38 274.99 529.26 263.93C509.07 249.17 486.32 238.23 462.96 229.49C439.25 220.62 414.94 214.1 390.03 209.51C373.03 206.38 355.33 203.83 338.05 204.81C331.12 205.2 293.36 210.31 281.79 213.27C285.85 212.59 323.08 215.48 330.49 217.33C359.47 224.58 375.69 232.05 386.87 241.1C406.57 257.06 410.07 270.47 409.62 284.23C409.02 302.68 394.68 310.04 374.64 312.08C353.48 314.23 306.89 313.48 285.66 314.46C245.23 316.33 220.35 301.92 215.82 265.37C215.55 263.23 214.75 261.78 212.59 261.47C207.52 261.15 203.64 266.41 201.15 270.24C195.08 279.59 192.87 290.56 188.96 300.84C185.42 310.13 180.28 318.86 173.79 326.39C161.01 341.2 142.48 351.09 122.54 348.77C122.44 348.76 122.33 348.74 122.23 348.73C116.53 348.03 110.83 346.29 106.33 342.74C102.12 339.42 99.2598 334.76 97.4398 329.67C96.5998 327.31 95.9898 324.87 95.5698 322.42C95.5498 322.3 95.5398 322.18 95.5198 322.06C95.1898 323.18 94.8798 324.31 94.6198 325.46C93.8098 329.02 93.4198 332.71 93.4498 336.4C93.4498 336.88 93.4798 337.36 93.4998 337.84C93.5798 339.04 93.7498 340.8 93.9598 342.78C95.2398 351.38 98.9998 359.49 105.5 365.2C113.8 372.49 125.16 374.97 136.29 375.61C137.49 375.68 138.69 375.73 139.88 375.76C148.01 375.97 156.31 375.47 163.9 372.57C177.65 367.32 189.11 356.69 201.85 349.13C202.48 348.76 203.11 348.4 203.74 348.04C204.54 347.59 205.35 347.14 206.16 346.72C211.39 344.01 216.99 341.99 222.75 340.4C223.21 340.27 223.68 340.14 224.14 340.02C234.44 337.32 245.24 335.96 255.52 334.63C296.14 329.39 337.26 331.34 378.03 333.32C403.65 334.56 430.09 336.02 453.3 346.72C461.38 351.39 477.72 363.7 501.58 368.6C507.32 369.94 513.14 370.95 518.96 371.86C525.14 372.83 531.66 373.56 538.11 373.64C551.63 373.8 564.79 371.05 573.57 361.32C578.91 355.41 581.59 347.68 582.01 339.69C582.34 333.47 581.29 327.1 579.05 321.31L579.04 321.32Z" fill="url(#paint1_linear_963_7472)"/>
<path d="M495.75 345.12C501.29 347.69 507.11 349.47 512.5 350.32C520 351.51 525.55 348.58 527.75 341.11C532.05 326.47 524.09 308.5 514.88 297.33C508.19 289.22 501.22 281.17 492.82 274.78C488.64 271.6 484.12 268.88 479.28 266.82C474.79 264.91 467.54 261.22 462.58 263.53C462.05 263.78 461.59 264.29 461.58 264.88C461.58 265.31 461.8 265.71 462.03 266.07C463.57 268.54 465.7 270.54 467.24 272.99C468.85 275.55 470.09 278.32 471.04 281.19C472.91 286.84 473.63 292.82 473.8 298.74C474.06 307.88 469.61 319.79 474.7 327.91C479.3 335.25 487.19 341.13 495.75 345.12Z" fill="#FCEED8"/>
<path d="M277.83 646.391C305.72 640.181 312.16 614.391 315.78 593.591C319.17 574.141 321.67 554.271 321.25 534.601C321.12 528.701 321.71 503.991 308.67 505.841C304.86 506.381 303.39 510.271 302.68 513.491C294.41 551.301 283.95 588.571 270.6 625.321C268.77 630.361 262.43 649.091 275.14 646.921C276.03 646.771 276.92 646.591 277.83 646.391Z" fill="white"/>
<path d="M149.99 769.5V913.84H143.64V777.01L75.51 916.54L7.77 777.01V913.84H2V769.5H11.24L76.1 902.68L141.15 769.5H150H149.99Z" fill="white"/>
<path d="M222.93 916.54H221.01C209.2 916.54 199.23 912.44 191.08 904.22C182.93 896.01 178.86 885.68 178.86 873.24V769.51H185.21V873.05C185.21 883.96 188.74 893 195.79 900.19C202.84 907.38 211.57 910.97 221.96 910.97C232.35 910.97 241.04 907.41 248.04 900.29C255.03 893.17 258.53 884.09 258.53 873.06V769.52H264.88V872.87C264.88 885.45 260.8 895.87 252.66 904.14C244.51 912.42 234.6 916.55 222.93 916.55V916.54Z" fill="white"/>
<path d="M399.98 769.501H405.56V915.961L299.33 785.281V913.841H293.75V767.381L399.98 897.861V769.491V769.501Z" fill="white"/>
<path d="M434.43 769.5H440.59C462.15 769.5 479.53 776.59 492.74 790.77C505.95 804.95 512.56 821.95 512.56 841.77C512.56 861.59 505.98 878.56 492.83 892.67C479.68 906.79 462.26 913.84 440.58 913.84H434.42V769.5H434.43ZM442.12 775.28H440.58V907.88H442.12C460.85 907.88 476.21 901.4 488.21 888.44C500.21 875.48 506.2 859.93 506.2 841.77C506.2 823.61 500.2 807.99 488.21 794.91C476.21 781.82 460.85 775.28 442.12 775.28Z" fill="white"/>
<path d="M551.72 893.83C537.16 878.82 529.88 861.28 529.88 841.19C529.88 821.1 537.26 803.73 552.01 789.04C566.76 774.35 584.47 767 605.13 767C625.79 767 643.43 774.31 658.05 788.94C672.68 803.57 679.99 820.98 679.99 841.19C679.99 861.4 672.74 878.98 658.24 893.92C643.74 908.87 626.42 916.34 606.28 916.34H603.39C583.5 916.34 566.28 908.83 551.72 893.82V893.83ZM673.64 841.58C673.64 822.66 666.93 806.43 653.53 792.89C640.12 779.36 623.96 772.59 605.03 772.59C586.1 772.59 569.91 779.36 556.44 792.89C542.97 806.43 536.23 822.66 536.23 841.58C536.23 860.5 542.97 876.77 556.44 890.37C569.91 903.97 586.08 910.77 604.94 910.77C623.8 910.77 639.97 903.97 653.44 890.37C666.91 876.77 673.65 860.51 673.65 841.58H673.64Z" fill="white"/>
<path d="M42.45 959.04C42.16 958.31 41.8 957.73 41.36 957.3C40.92 956.87 40.42 956.54 39.83 956.32C39.25 956.1 38.63 955.99 37.98 955.99C37.04 955.99 36.15 956.26 35.31 956.81C34.47 957.35 33.84 958.06 33.4 958.93L2.13997 1024.18C1.55997 1025.42 1.19996 1026.51 1.04996 1027.45C0.899958 1028.39 1.08997 1029.19 1.58997 1029.85C2.09997 1030.5 2.89996 1031.05 3.98996 1031.48C5.79996 1032.28 7.19996 1032.46 8.17996 1032.02C9.15996 1031.58 10.05 1030.53 10.85 1028.86L19.5 1010.34H56.34L65.09 1028.97C65.89 1030.64 66.78 1031.71 67.76 1032.18C68.74 1032.65 70.1 1032.45 71.84 1031.58C72.93 1031.07 73.73 1030.51 74.24 1029.89C74.75 1029.27 74.98 1028.58 74.95 1027.82C74.91 1027.06 74.6 1026.13 74.02 1025.04L42.43 959.03L42.45 959.04ZM23.43 1001.95L37.88 971.01L52.42 1001.95H23.43Z" fill="white"/>
<path d="M134.17 955.6C133.52 955.2 132.46 955 131.01 955C129.7 955 128.7 955.2 128.01 955.6C127.32 956 126.88 956.56 126.7 957.29C126.52 958.02 126.43 958.92 126.43 960.01V987.87C126.11 987.45 125.79 987.04 125.45 986.64C123.42 984.28 120.97 982.45 118.1 981.14C115.23 979.83 112.02 979.18 108.46 979.18C105.19 979.18 102.07 979.83 99.0901 981.14C96.1101 982.45 93.5202 984.28 91.3002 986.64C89.0802 989 87.3402 991.78 86.0702 994.97C84.8002 998.17 84.1602 1001.65 84.1602 1005.43C84.1602 1009.21 84.7902 1012.82 86.0702 1016.05C87.3402 1019.28 89.0802 1022.1 91.3002 1024.49C93.5102 1026.89 96.0902 1028.74 99.0302 1030.04C101.97 1031.35 105.11 1032 108.45 1032C112.01 1032 115.24 1031.35 118.14 1030.04C121.04 1028.73 123.51 1026.88 125.55 1024.49C125.85 1024.13 126.14 1023.77 126.42 1023.39V1028.19C126.57 1029.57 126.98 1030.55 127.67 1031.13C128.36 1031.71 129.5 1032 131.1 1032C132.55 1032 133.61 1031.8 134.26 1031.4C134.91 1031 135.35 1030.42 135.57 1029.66C135.79 1028.9 135.9 1028.01 135.9 1026.99V959.89C135.9 958.87 135.77 958 135.52 957.28C135.26 956.55 134.81 955.99 134.16 955.59L134.17 955.6ZM123.88 1014.53C122.46 1017.11 120.54 1019.12 118.11 1020.58C115.68 1022.03 112.94 1022.76 109.89 1022.76C106.84 1022.76 104.17 1022.03 101.67 1020.58C99.1602 1019.13 97.2002 1017.11 95.7902 1014.53C94.3702 1011.95 93.6702 1008.99 93.6702 1005.65C93.6702 1002.31 94.3802 999.33 95.7902 996.72C97.2102 994.11 99.1501 992.07 101.62 990.62C104.09 989.17 106.85 988.44 109.9 988.44C112.95 988.44 115.69 989.19 118.12 990.67C120.55 992.16 122.48 994.19 123.89 996.77C125.31 999.35 126.01 1002.31 126.01 1005.65C126.01 1008.99 125.3 1011.95 123.89 1014.53H123.88Z" fill="white"/>
<path d="M199.91 979.949C199.29 979.509 198.29 979.299 196.91 979.299C195.24 979.299 194.02 979.649 193.26 980.329C192.5 981.019 192.12 982.159 192.12 983.759L192.45 988.329C191.21 986.659 189.78 985.149 188.15 983.809C186.52 982.469 184.57 981.379 182.32 980.539C180.07 979.709 177.35 979.289 174.15 979.289C170.74 979.289 167.52 979.979 164.51 981.359C161.5 982.739 158.83 984.629 156.5 987.019C154.17 989.419 152.36 992.189 151.05 995.349C149.74 998.509 149.09 1001.87 149.09 1005.43C149.09 1008.99 149.74 1012.47 151.05 1015.67C152.36 1018.87 154.15 1021.7 156.44 1024.17C158.73 1026.64 161.38 1028.56 164.39 1029.94C167.4 1031.32 170.65 1032.01 174.14 1032.01C177.63 1032.01 180.62 1031.45 183.13 1030.32C185.64 1029.19 187.65 1027.89 189.18 1026.4C190.71 1024.91 191.83 1023.59 192.56 1022.42L192.12 1027.87C192.19 1029.25 192.59 1030.27 193.32 1030.92C194.05 1031.57 195.21 1031.9 196.81 1031.9C198.19 1031.9 199.21 1031.7 199.86 1031.3C200.51 1030.9 200.95 1030.3 201.17 1029.5C201.39 1028.7 201.5 1027.79 201.5 1026.78V984.729C201.5 983.569 201.39 982.589 201.17 981.789C200.95 980.989 200.53 980.369 199.92 979.939L199.91 979.949ZM189.5 1014.42C188.05 1017 186.12 1019.05 183.73 1020.57C181.33 1022.1 178.65 1022.86 175.67 1022.86C172.33 1022.86 169.37 1022.12 166.79 1020.63C164.21 1019.14 162.2 1017.11 160.74 1014.53C159.29 1011.95 158.56 1009.03 158.56 1005.76C158.56 1002.49 159.29 999.439 160.74 996.829C162.19 994.219 164.17 992.149 166.68 990.619C169.19 989.099 172.11 988.329 175.45 988.329C178.43 988.329 181.13 989.059 183.57 990.509C186 991.959 187.96 993.979 189.45 996.559C190.94 999.139 191.68 1002.13 191.68 1005.55C191.68 1008.97 190.95 1011.85 189.5 1014.43V1014.42Z" fill="white"/>
<path d="M260.74 986.54C258.49 984.18 255.91 982.35 253.01 981.04C250.1 979.73 246.95 979.08 243.53 979.08C240.11 979.08 236.87 979.72 234 980.99C231.13 982.26 228.66 984.08 226.59 986.44C226.31 986.76 226.04 987.09 225.77 987.43V982.79C225.62 981.48 225.17 980.58 224.41 980.07C223.65 979.56 222.47 979.31 220.87 979.31C219.49 979.31 218.45 979.51 217.77 979.91C217.08 980.31 216.63 980.87 216.41 981.6C216.19 982.33 216.08 983.2 216.08 984.21V1048.59C216.08 1049.61 216.19 1050.48 216.41 1051.2C216.63 1051.93 217.1 1052.49 217.83 1052.89C218.56 1053.29 219.61 1053.49 220.99 1053.49C222.44 1053.49 223.51 1053.29 224.2 1052.89C224.89 1052.49 225.34 1051.91 225.56 1051.15C225.78 1050.39 225.85 1049.5 225.78 1048.48V1023.2C226.03 1023.52 226.28 1023.83 226.54 1024.13C228.57 1026.49 231.02 1028.32 233.89 1029.63C236.76 1030.94 239.97 1031.59 243.53 1031.59C247.09 1031.59 250.12 1030.95 253.06 1029.68C256 1028.41 258.58 1026.61 260.79 1024.29C263 1021.97 264.75 1019.21 266.02 1016.01C267.29 1012.82 267.93 1009.33 267.93 1005.55C267.93 1001.77 267.29 998.25 266.02 994.98C264.75 991.71 262.99 988.9 260.74 986.54ZM256.33 1014.26C254.91 1016.87 252.97 1018.93 250.5 1020.41C248.03 1021.9 245.27 1022.64 242.22 1022.64C239.17 1022.64 236.43 1021.9 234 1020.41C231.57 1018.92 229.64 1016.87 228.23 1014.26C226.81 1011.65 226.11 1008.67 226.11 1005.33C226.11 1001.99 226.82 999.05 228.23 996.51C229.65 993.97 231.57 991.97 234 990.52C236.43 989.07 239.17 988.34 242.22 988.34C245.27 988.34 248.03 989.05 250.5 990.46C252.97 991.88 254.91 993.87 256.33 996.45C257.75 999.03 258.45 1001.99 258.45 1005.33C258.45 1008.67 257.74 1011.65 256.33 1014.26Z" fill="white"/>
<path d="M310.63 980.66C309.9 980.48 309.03 980.39 308.02 980.39L297.67 980.54V966.12C297.67 965.18 297.56 964.34 297.34 963.61C297.12 962.88 296.65 962.32 295.92 961.92C295.19 961.52 294.14 961.32 292.76 961.32C291.38 961.32 290.36 961.52 289.71 961.92C289.06 962.32 288.62 962.88 288.4 963.61C288.18 964.34 288.07 965.24 288.07 966.33V980.55L282.41 980.49C280.96 980.49 279.9 980.85 279.25 981.58C278.6 982.31 278.27 983.47 278.27 985.07C278.27 986.67 278.54 987.94 279.09 988.66C279.63 989.39 280.67 989.79 282.19 989.86L288.07 989.74V1014.36C288.07 1017.63 288.4 1020.37 289.05 1022.58C289.7 1024.8 290.77 1026.59 292.26 1027.97C293.75 1029.35 295.69 1030.37 298.09 1031.02C300.49 1031.67 303.39 1032 306.8 1032C307.74 1032 308.6 1031.91 309.36 1031.73C310.12 1031.55 310.7 1031.11 311.1 1030.42C311.5 1029.73 311.7 1028.7 311.7 1027.32C311.7 1026.01 311.52 1025.03 311.16 1024.38C310.8 1023.73 310.25 1023.29 309.53 1023.07C308.8 1022.85 307.86 1022.74 306.7 1022.74C305.03 1022.74 303.61 1022.67 302.45 1022.52C301.29 1022.38 300.36 1022.01 299.67 1021.43C298.98 1020.85 298.47 1020 298.15 1018.87C297.82 1017.74 297.66 1016.24 297.66 1014.35V989.69L308.12 989.84C309.14 989.84 310.01 989.73 310.73 989.51C311.45 989.29 312 988.84 312.36 988.15C312.72 987.46 312.9 986.43 312.9 985.05C312.9 983.67 312.7 982.64 312.3 981.95C311.9 981.26 311.34 980.82 310.61 980.64L310.63 980.66Z" fill="white"/>
<path d="M343.74 971.89C344.39 972.33 345.3 972.4 346.46 972.11L363.56 966.34C364.94 965.9 365.83 965.29 366.23 964.49C366.63 963.69 366.57 962.53 366.07 961C365.63 959.62 365.09 958.7 364.44 958.22C363.79 957.75 362.91 957.62 361.83 957.84L344.4 963.72C343.02 964.16 342.17 964.77 341.84 965.57C341.51 966.37 341.6 967.53 342.11 969.06C342.55 970.51 343.09 971.46 343.74 971.89Z" fill="white"/>
<path d="M362.64 982.181C358.61 979.821 354.09 978.641 349.08 978.641C345.38 978.641 341.91 979.351 338.68 980.761C335.45 982.181 332.6 984.121 330.13 986.591C327.66 989.061 325.72 991.911 324.3 995.141C322.88 998.371 322.18 1001.88 322.18 1005.65C322.18 1009.42 322.92 1013.06 324.41 1016.32C325.9 1019.59 327.91 1022.44 330.46 1024.87C333 1027.3 335.89 1029.21 339.12 1030.59C342.35 1031.97 345.75 1032.66 349.3 1032.66C352.85 1032.66 356.13 1031.99 359.32 1030.65C362.51 1029.31 365.35 1027.44 367.82 1025.04C370.29 1022.64 372.25 1019.79 373.7 1016.49C375.15 1013.19 375.88 1009.54 375.88 1005.54C375.88 1000.46 374.68 995.881 372.29 991.821C369.89 987.751 366.68 984.541 362.65 982.181H362.64ZM363.89 1014.59C362.29 1017.28 360.19 1019.38 357.57 1020.91C354.95 1022.44 352.12 1023.2 349.07 1023.2C346.02 1023.2 343.17 1022.46 340.52 1020.97C337.87 1019.48 335.74 1017.41 334.15 1014.76C332.55 1012.11 331.75 1009.04 331.75 1005.56C331.75 1002.08 332.53 999.241 334.09 996.631C335.65 994.021 337.72 991.951 340.3 990.421C342.88 988.891 345.76 988.131 348.96 988.131C352.16 988.131 355.28 988.861 357.89 990.311C360.5 991.761 362.56 993.801 364.04 996.411C365.53 999.021 366.27 1002.04 366.27 1005.45C366.27 1008.86 365.47 1011.91 363.87 1014.6L363.89 1014.59Z" fill="white"/>
<path d="M434.58 979.68C433.93 979.28 432.95 979.08 431.64 979.08C429.97 979.08 428.75 979.37 427.99 979.95C427.23 980.53 426.81 981.51 426.74 982.89L426.76 987.64C426.5 987.27 426.25 986.89 425.97 986.54C424.15 984.25 421.94 982.49 419.33 981.26C416.72 980.03 413.77 979.41 410.51 979.41C407.25 979.41 403.92 980.05 400.98 981.32C398.04 982.59 395.48 984.39 393.3 986.71C391.12 989.04 389.43 991.76 388.24 994.88C387.04 998 386.44 1001.42 386.44 1005.12C386.44 1008.82 387.04 1012.24 388.24 1015.36C389.44 1018.48 391.13 1021.21 393.3 1023.53C395.48 1025.85 398.04 1027.65 400.98 1028.92C403.92 1030.19 407.17 1030.83 410.73 1030.83C415.09 1030.83 418.81 1029.78 421.9 1027.67C423.86 1026.33 425.53 1024.65 426.94 1022.61L426.97 1028.22C426.97 1030.83 426.59 1033.18 425.83 1035.25C425.07 1037.32 424.01 1039.08 422.67 1040.53C421.33 1041.98 419.69 1043.07 417.77 1043.8C415.84 1044.53 413.72 1044.89 411.4 1044.89C409.08 1044.89 407.13 1044.58 405.57 1043.96C404.01 1043.34 402.7 1042.65 401.65 1041.89C400.6 1041.13 399.71 1040.44 398.98 1039.82C398.25 1039.2 397.53 1038.89 396.8 1038.89C396.07 1038.89 395.49 1039.03 395.06 1039.33C394.62 1039.62 394.04 1040.13 393.32 1040.85C392.88 1041.36 392.56 1041.85 392.34 1042.32C392.12 1042.79 392.01 1043.39 392.01 1044.12C392.01 1045.06 392.52 1046.08 393.54 1047.17C394.56 1048.26 395.94 1049.28 397.68 1050.22C399.42 1051.16 401.44 1051.93 403.73 1052.51C406.02 1053.09 408.47 1053.38 411.08 1053.38C414.71 1053.38 418.05 1052.84 421.1 1051.75C424.15 1050.66 426.8 1049.06 429.05 1046.96C431.3 1044.85 433.04 1042.29 434.28 1039.28C435.51 1036.27 436.13 1032.83 436.13 1028.99V983.89C436.13 982.87 436.04 982.02 435.86 981.33C435.68 980.64 435.26 980.1 434.61 979.7L434.58 979.68ZM424.67 1013.72C423.29 1016.26 421.44 1018.26 419.11 1019.71C416.79 1021.16 414.14 1021.89 411.16 1021.89C408.18 1021.89 405.53 1021.17 403.21 1019.71C400.88 1018.26 399.07 1016.28 397.76 1013.77C396.45 1011.26 395.8 1008.34 395.8 1005C395.8 1001.66 396.43 998.76 397.71 996.29C398.98 993.82 400.78 991.88 403.1 990.46C405.42 989.04 408.07 988.34 411.05 988.34C414.03 988.34 416.7 989.03 419.06 990.41C421.42 991.79 423.29 993.73 424.67 996.24C426.05 998.75 426.74 1001.63 426.74 1004.9C426.74 1008.17 426.05 1011.18 424.67 1013.72Z" fill="white"/>
<path d="M494.49 985.29C492.46 983.4 490.01 981.9 487.14 980.77C484.27 979.64 481.02 979.08 477.39 979.08C472.09 979.08 467.37 980.22 463.23 982.51C459.09 984.8 455.86 987.9 453.54 991.82C451.21 995.74 450.05 1000.21 450.05 1005.22C450.05 1009 450.68 1012.52 451.96 1015.79C453.23 1019.06 455.05 1021.94 457.41 1024.45C459.77 1026.96 462.66 1028.93 466.07 1030.39C469.48 1031.84 473.37 1032.57 477.73 1032.57C481.65 1032.57 485.15 1032.13 488.24 1031.26C491.33 1030.39 493.74 1029.35 495.48 1028.16C497.22 1026.96 498.09 1025.82 498.09 1024.73C498.09 1024.15 498.02 1023.61 497.87 1023.1C497.72 1022.59 497.43 1022.05 497 1021.47C496.64 1020.75 496.13 1020.25 495.47 1020C494.82 1019.75 494.2 1019.69 493.62 1019.84C493.04 1019.99 492.42 1020.24 491.77 1020.6C491.12 1020.96 490.41 1021.33 489.65 1021.69C488.89 1022.05 487.96 1022.42 486.87 1022.78C485.78 1023.14 484.49 1023.43 483 1023.65C481.51 1023.87 479.79 1023.98 477.83 1023.98C475.07 1023.98 472.33 1023.36 469.61 1022.13C466.89 1020.9 464.64 1019.13 462.86 1016.85C461.08 1014.56 460.23 1011.86 460.3 1008.74H491.78C494.32 1008.74 496.46 1007.98 498.21 1006.45C499.95 1004.93 500.82 1002.31 500.82 998.61C500.82 996.29 500.28 993.96 499.19 991.64C498.1 989.32 496.54 987.21 494.51 985.32L494.49 985.29ZM490.68 1001.63C489.95 1001.99 488.94 1002.17 487.63 1002.17H460.29C460.22 999.41 460.94 996.94 462.47 994.76C464 992.58 466.08 990.86 468.73 989.59C471.38 988.32 474.27 987.68 477.39 987.68C480.22 987.68 482.71 988.19 484.85 989.2C486.99 990.22 488.68 991.56 489.91 993.23C491.14 994.9 491.76 996.72 491.76 998.68C491.76 1000.28 491.4 1001.26 490.67 1001.62L490.68 1001.63Z" fill="white"/>
<path d="M555.87 985.67C553.94 983.53 551.64 981.9 548.95 980.77C546.26 979.64 543.32 979.08 540.13 979.08C538.17 979.08 536.34 979.33 534.63 979.84C532.92 980.35 531.34 981.06 529.89 981.96C528.44 982.87 527.17 983.88 526.08 985.01C524.99 986.14 524.08 987.32 523.36 988.55L523.58 983.54C523.58 983.1 523.54 982.63 523.47 982.12C523.4 981.61 523.23 981.14 522.98 980.7C522.73 980.26 522.29 979.92 521.67 979.67C521.05 979.42 520.2 979.29 519.11 979.29C517.73 979.29 516.68 979.47 515.95 979.83C515.22 980.19 514.77 980.7 514.59 981.35C514.41 982 514.32 982.8 514.32 983.75V1026.99C514.32 1028.01 514.41 1028.88 514.59 1029.6C514.77 1030.33 515.21 1030.89 515.9 1031.29C516.59 1031.69 517.62 1031.89 519 1031.89C520.38 1031.89 521.41 1031.71 522.1 1031.35C522.79 1030.99 523.24 1030.44 523.46 1029.72C523.68 1029 523.79 1028.12 523.79 1027.11V1003.36C523.79 1000.31 524.39 997.66 525.59 995.41C526.79 993.16 528.49 991.42 530.71 990.18C532.92 988.95 535.52 988.33 538.5 988.33C541.48 988.33 544.18 988.95 546.18 990.18C548.18 991.42 549.7 993.16 550.75 995.41C551.8 997.66 552.33 1000.31 552.33 1003.36V1027C552.33 1028.02 552.42 1028.89 552.6 1029.61C552.78 1030.34 553.23 1030.9 553.96 1031.3C554.69 1031.7 555.74 1031.9 557.12 1031.9C558.57 1031.9 559.64 1031.72 560.33 1031.36C561.02 1031 561.46 1030.45 561.64 1029.73C561.82 1029.01 561.91 1028.13 561.91 1027.12V1003.48C561.91 999.7 561.38 996.33 560.33 993.35C559.28 990.37 557.79 987.81 555.86 985.67H555.87Z" fill="white"/>
<path d="M614.58 982.181C610.55 979.821 606.03 978.641 601.02 978.641C597.32 978.641 593.85 979.351 590.62 980.761C587.39 982.181 584.54 984.121 582.07 986.591C579.6 989.061 577.66 991.911 576.24 995.141C574.82 998.371 574.12 1001.88 574.12 1005.65C574.12 1009.42 574.86 1013.06 576.35 1016.32C577.84 1019.59 579.85 1022.44 582.4 1024.87C584.94 1027.3 587.83 1029.21 591.06 1030.59C594.29 1031.97 597.69 1032.66 601.24 1032.66C604.79 1032.66 608.07 1031.99 611.26 1030.65C614.45 1029.31 617.29 1027.44 619.76 1025.04C622.23 1022.64 624.19 1019.79 625.64 1016.49C627.09 1013.19 627.82 1009.54 627.82 1005.54C627.82 1000.46 626.62 995.881 624.23 991.821C621.83 987.751 618.62 984.541 614.59 982.181H614.58ZM615.84 1014.59C614.24 1017.28 612.14 1019.38 609.52 1020.91C606.91 1022.44 604.07 1023.2 601.02 1023.2C597.97 1023.2 595.12 1022.46 592.47 1020.97C589.82 1019.48 587.69 1017.41 586.1 1014.76C584.5 1012.11 583.7 1009.04 583.7 1005.56C583.7 1002.08 584.48 999.241 586.04 996.631C587.6 994.021 589.67 991.951 592.25 990.421C594.83 988.891 597.71 988.131 600.91 988.131C604.11 988.131 607.23 988.861 609.84 990.311C612.45 991.761 614.51 993.801 615.99 996.411C617.48 999.021 618.22 1002.04 618.22 1005.45C618.22 1008.86 617.42 1011.91 615.82 1014.6L615.84 1014.59Z" fill="white"/>
<path d="M677.32 1009.74C676.19 1007.89 674.74 1006.4 672.96 1005.27C671.18 1004.14 669.18 1003.24 666.97 1002.55C664.75 1001.86 662.59 1001.26 660.49 1000.75C659.04 1000.39 657.64 1000.01 656.3 999.611C654.96 999.211 653.79 998.761 652.81 998.251C651.83 997.741 651.03 997.121 650.41 996.401C649.79 995.681 649.48 994.731 649.48 993.571C649.48 992.261 649.86 991.081 650.62 990.031C651.38 988.981 652.47 988.181 653.89 987.631C655.31 987.091 656.92 986.811 658.74 986.811C660.19 986.811 661.61 987.031 662.99 987.461C664.37 987.901 665.71 988.461 667.02 989.151C668.33 989.841 669.56 990.621 670.72 991.491C671.52 992.071 672.32 992.241 673.12 991.981C673.92 991.731 674.64 991.161 675.3 990.291C676.17 989.131 676.57 988.041 676.5 987.021C676.43 986.001 675.74 985.061 674.43 984.191C673.34 983.321 672.21 982.581 671.05 981.961C669.89 981.341 668.67 980.801 667.4 980.331C666.13 979.861 664.8 979.511 663.42 979.301C662.04 979.081 660.55 978.971 658.95 978.971C655.17 978.971 651.91 979.571 649.15 980.771C646.39 981.971 644.27 983.661 642.78 985.841C641.29 988.021 640.55 990.601 640.55 993.571C640.55 996.111 641.02 998.201 641.97 999.831C642.91 1001.46 644.13 1002.81 645.62 1003.86C647.11 1004.91 648.81 1005.77 650.74 1006.42C652.66 1007.07 654.57 1007.66 656.46 1008.16C657.84 1008.6 659.18 1009 660.49 1009.36C661.8 1009.72 663.01 1010.14 664.14 1010.61C665.26 1011.08 666.26 1011.61 667.14 1012.19C668.01 1012.77 668.7 1013.5 669.21 1014.37C669.72 1015.24 669.97 1016.3 669.97 1017.53C669.97 1019.64 668.95 1021.33 666.92 1022.6C664.89 1023.87 662.2 1024.51 658.86 1024.51C657.7 1024.51 656.52 1024.35 655.32 1024.02C654.12 1023.69 652.92 1023.3 651.73 1022.82C650.53 1022.35 649.4 1021.8 648.35 1021.19C647.3 1020.57 646.37 1020.01 645.57 1019.5C644.41 1018.56 643.48 1018.07 642.79 1018.03C642.1 1017.99 641.39 1018.41 640.67 1019.28C640.02 1019.86 639.56 1020.44 639.31 1021.02C639.05 1021.6 638.96 1022.2 639.04 1022.82C639.11 1023.44 639.33 1024.11 639.69 1024.83C640.27 1025.99 641.25 1027.05 642.63 1027.99C644.01 1028.93 645.57 1029.75 647.31 1030.44C649.05 1031.13 650.89 1031.66 652.81 1032.02C654.73 1032.38 656.57 1032.56 658.31 1032.56C664.55 1032.56 669.56 1031.18 673.34 1028.42C677.11 1025.66 679 1021.88 679 1017.09C679 1014.04 678.44 1011.59 677.31 1009.74H677.32Z" fill="white"/>
</g>
<defs>
<linearGradient id="paint0_linear_963_7472" x1="336.34" y1="340.41" x2="336.34" y2="679.01" gradientUnits="userSpaceOnUse">
<stop stop-color="#FCEED8"/>
<stop offset="1" stop-color="#904A1D"/>
</linearGradient>
<linearGradient id="paint1_linear_963_7472" x1="93.4298" y1="290.21" x2="582.06" y2="290.21" gradientUnits="userSpaceOnUse">
<stop stop-color="#FCEED8"/>
<stop offset="0.86" stop-color="#904A1D"/>
</linearGradient>
<clipPath id="clip0_963_7472">
<rect width="680" height="1053" fill="white"/>
</clipPath>
</defs>
</svg>
