<?xml version="1.0" encoding="UTF-8" standalone="no"?>
<svg
   width="680"
   height="680"
   viewBox="0 0 680 680"
   fill="none"
   version="1.1"
   id="svg11"
   sodipodi:docname="logo.svg"
   inkscape:version="1.4 (86a8ad7, 2024-10-11)"
   xmlns:inkscape="http://www.inkscape.org/namespaces/inkscape"
   xmlns:sodipodi="http://sodipodi.sourceforge.net/DTD/sodipodi-0.dtd"
   xmlns="http://www.w3.org/2000/svg"
   xmlns:svg="http://www.w3.org/2000/svg">
  <sodipodi:namedview
     id="namedview11"
     pagecolor="#ffffff"
     bordercolor="#999999"
     borderopacity="1"
     inkscape:showpageshadow="2"
     inkscape:pageopacity="0"
     inkscape:pagecheckerboard="0"
     inkscape:deskcolor="#d1d1d1"
     inkscape:zoom="0.42374414"
     inkscape:cx="-353.9872"
     inkscape:cy="558.11982"
     inkscape:window-width="1920"
     inkscape:window-height="1017"
     inkscape:window-x="-8"
     inkscape:window-y="-8"
     inkscape:window-maximized="1"
     inkscape:current-layer="svg11" />
  <path
     d="M340 1.00999C152.78 1.00999 1 152.79 1 340.01C1 478 83.45 596.74 201.77 649.64C243.98 668.51 287.1 670.49 336.33 670.49C377.29 670.49 420.21 671.74 456.55 658.43C586.35 610.9 678.99 486.27 678.99 340C678.99 152.78 527.21 1 339.99 1L340 1.00999Z"
     fill="#291711"
     id="path1" />
  <path
     d="M582 339.701C581.58 347.681 578.89 355.411 573.56 361.331C564.78 371.061 551.62 373.821 538.1 373.651C534.04 376.811 529.53 379.431 524.84 381.481C512.79 386.731 499.59 388.641 486.54 390.181C462.04 393.061 436.63 394.721 413.23 386.901C408.96 385.471 404.78 383.741 400.47 382.451C388.83 389.461 380.99 402.601 378.06 416.131C377.6 418.251 377.24 420.391 376.97 422.531C402.42 424.171 427.86 426.041 453.36 425.101C471.9 424.421 488.79 423.321 506.25 416.681C533.13 406.461 565.22 390.731 577.76 363.731C581.23 356.261 582.21 347.381 582.01 339.711L582 339.701Z"
     fill="#C86C22"
     id="path2" />
  <path
     d="M280.65 384.881C277.15 382.211 273.39 380.581 269.4 379.601C267.92 380.381 266.46 381.191 264.98 381.951C231.08 399.481 189.87 395.061 153.4 383.791C147.97 382.111 142.49 380.251 137.9 376.891C137.34 376.481 136.8 376.051 136.28 375.611C125.15 374.971 113.79 372.491 105.49 365.201C98.9902 359.491 95.2402 351.391 93.9502 342.781C94.5502 348.291 95.5002 355.471 95.9902 356.961C97.4802 361.481 99.1602 365.941 101.03 370.321C106.44 383.041 117.55 392.871 128.94 400.421C146.45 412.031 167.31 417.701 188.15 420.371C224.43 425.021 261.54 422.261 298.34 420.981C296.91 403.821 292.33 393.771 280.65 384.871V384.881Z"
     fill="#C86C22"
     id="path3" />
  <path
     d="M439.72 662.49C432.83 660.95 429.65 655.49 427.41 648.85C424.55 640.39 421.76 631.82 418.93 623.32C413.25 606.22 408.01 588.97 403.21 571.6C393.6 536.86 385.76 501.63 379.72 466.09C377.27 451.7 375.13 436.92 376.97 422.52C377.24 420.38 377.6 418.24 378.06 416.12C381 402.59 388.83 389.45 400.47 382.44C402.93 380.96 405.56 379.74 408.35 378.86C417.6 375.94 427.62 376.83 437.14 374.96C447.98 372.83 460.43 363.51 468.96 355.28C464.89 353.28 460.93 350.49 456.38 348.2C455.59 347.8 454.79 347.43 454 347.05C453.76 346.94 453.52 346.83 453.3 346.72C443.5 354.74 428.43 354.34 415.28 356.24C403.77 357.91 392.64 362.08 382.87 368.4C379.63 370.5 376.08 372.94 372.27 372.31C369.78 371.9 367.71 370.22 365.67 368.73C354.82 360.83 341.16 356.88 327.77 357.78C324.75 357.98 321.65 358.46 319.11 360.09C316.15 361.99 314.1 365.35 310.73 366.35C308.67 366.96 306.45 366.55 304.34 366.14C288.14 363 271.95 359.86 255.75 356.71C243.57 354.35 230.9 350.4 222.75 340.4C216.98 341.99 211.39 344.01 206.16 346.72C205.35 347.14 204.54 347.59 203.74 348.04C214.6 360.94 230.77 372.25 249.08 376.09C255.95 377.53 262.81 377.97 269.41 379.59C273.4 380.57 277.16 382.2 280.66 384.87C292.35 393.77 296.93 403.82 298.35 420.98C298.82 426.59 298.95 432.97 298.87 440.32C298.83 444.76 298.71 449.56 298.55 454.76C298.55 454.96 298.55 455.12 298.54 455.23C297.72 462.74 296.3 470.17 294.91 477.6C294.67 478.86 294.42 480.12 294.18 481.38C284.43 532.26 270.14 582.26 251.51 630.6C250.07 634.33 248.61 638.06 247.12 641.78C246.74 641.95 246.26 643.23 246.05 643.57C245.27 644.88 244.49 646.18 243.69 647.48C241.8 650.58 239.64 653.56 237.2 656.25C235.31 658.33 232.9 658.84 230.16 658.84C225.11 658.84 217.76 656.11 212.99 654.4C252.22 670.26 295.08 679.02 339.99 679.02C379.82 679.02 418.03 672.13 453.53 659.51C449.46 660.79 443.68 663.38 439.7 662.49H439.72Z"
     fill="url(#paint0_linear_927_6608)"
     id="path4" />
  <path
     d="M97.43 329.681C99.24 334.771 102.11 339.431 106.32 342.751C110.83 346.301 116.52 348.031 122.22 348.741C122.32 348.751 122.43 348.771 122.53 348.781C142.47 351.101 161.01 341.211 173.78 326.401C180.28 318.871 185.42 310.141 188.95 300.851C192.86 290.571 195.07 279.601 201.14 270.251C203.63 266.421 207.51 261.161 212.58 261.481C214.73 261.791 215.54 263.241 215.81 265.381C220.34 301.931 245.22 316.341 285.65 314.471C306.88 313.491 353.47 314.241 374.63 312.091C394.67 310.051 409.01 302.691 409.61 284.241C410.06 270.471 406.55 257.071 386.86 241.111C375.68 232.051 359.46 224.581 330.48 217.341C323.07 215.491 285.84 212.601 281.78 213.281C255.17 217.751 252.24 218.661 226.56 227.121C224.89 227.671 222.94 228.131 221.36 228.921C201.54 235.361 182 242.911 163.71 252.961C146.32 262.521 130.09 274.341 116.44 288.741C107.33 298.351 99.24 309.441 95.5 322.071C95.52 322.191 95.53 322.311 95.55 322.431C95.96 324.881 96.58 327.331 97.42 329.681H97.43Z"
     fill="white"
     id="path5" />
  <path
     d="M579.04 321.32C576.56 314.92 572.81 309.1 568.78 303.55C557.76 288.41 544.38 274.99 529.26 263.93C509.07 249.17 486.32 238.23 462.96 229.49C439.25 220.62 414.94 214.1 390.03 209.51C373.03 206.38 355.33 203.83 338.05 204.81C331.12 205.2 293.36 210.31 281.79 213.27C285.85 212.59 323.08 215.48 330.49 217.33C359.47 224.58 375.69 232.05 386.87 241.1C406.57 257.06 410.07 270.47 409.62 284.23C409.02 302.68 394.68 310.04 374.64 312.08C353.48 314.23 306.89 313.48 285.66 314.46C245.23 316.33 220.35 301.92 215.82 265.37C215.55 263.23 214.75 261.78 212.59 261.47C207.52 261.15 203.64 266.41 201.15 270.24C195.08 279.59 192.87 290.56 188.96 300.84C185.42 310.13 180.28 318.86 173.79 326.39C161.01 341.2 142.48 351.09 122.54 348.77C122.44 348.76 122.33 348.74 122.23 348.73C116.53 348.03 110.83 346.29 106.33 342.74C102.12 339.42 99.2598 334.76 97.4398 329.67C96.5998 327.31 95.9898 324.87 95.5698 322.42C95.5498 322.3 95.5398 322.18 95.5198 322.06C95.1898 323.18 94.8798 324.31 94.6198 325.46C93.8098 329.02 93.4198 332.71 93.4498 336.4C93.4498 336.88 93.4798 337.36 93.4998 337.84C93.5798 339.04 93.7498 340.8 93.9598 342.78C95.2398 351.38 98.9998 359.49 105.5 365.2C113.8 372.49 125.16 374.97 136.29 375.61C137.49 375.68 138.69 375.73 139.88 375.76C148.01 375.97 156.31 375.47 163.9 372.57C177.65 367.32 189.11 356.69 201.85 349.13C202.48 348.76 203.11 348.4 203.74 348.04C204.54 347.59 205.35 347.14 206.16 346.72C211.39 344.01 216.99 341.99 222.75 340.4C223.21 340.27 223.68 340.14 224.14 340.02C234.44 337.32 245.24 335.96 255.52 334.63C296.14 329.39 337.26 331.34 378.03 333.32C403.65 334.56 430.09 336.02 453.3 346.72C461.38 351.39 477.72 363.7 501.58 368.6C507.32 369.94 513.14 370.95 518.96 371.86C525.14 372.83 531.66 373.56 538.11 373.64C551.63 373.8 564.79 371.05 573.57 361.32C578.91 355.41 581.59 347.68 582.01 339.69C582.34 333.47 581.29 327.1 579.05 321.31L579.04 321.32Z"
     fill="url(#paint1_linear_927_6608)"
     id="path6" />
  <path
     d="M495.75 345.12C501.29 347.69 507.11 349.47 512.5 350.32C520 351.51 525.55 348.58 527.75 341.11C532.05 326.47 524.09 308.5 514.88 297.33C508.19 289.22 501.22 281.17 492.82 274.78C488.64 271.6 484.12 268.88 479.28 266.82C474.79 264.91 467.54 261.22 462.58 263.53C462.05 263.78 461.59 264.29 461.58 264.88C461.58 265.31 461.8 265.71 462.03 266.07C463.57 268.54 465.7 270.54 467.24 272.99C468.85 275.55 470.09 278.32 471.04 281.19C472.91 286.84 473.63 292.82 473.8 298.74C474.06 307.88 469.61 319.79 474.7 327.91C479.3 335.25 487.19 341.13 495.75 345.12Z"
     fill="#FCEED8"
     id="path7" />
  <path
     d="M277.83 646.391C305.72 640.181 312.16 614.391 315.78 593.591C319.17 574.141 321.67 554.271 321.25 534.601C321.12 528.701 321.71 503.991 308.67 505.841C304.86 506.381 303.39 510.271 302.68 513.491C294.41 551.301 283.95 588.571 270.6 625.321C268.77 630.361 262.43 649.091 275.14 646.921C276.03 646.771 276.92 646.591 277.83 646.391Z"
     fill="white"
     id="path8" />
  <defs
     id="defs11">
    <linearGradient
       id="paint0_linear_927_6608"
       x1="336.34"
       y1="679.01"
       x2="336.34"
       y2="340.41"
       gradientUnits="userSpaceOnUse">
      <stop
         stop-color="#FCEED8"
         id="stop8" />
      <stop
         offset="1"
         stop-color="#C86C22"
         id="stop9" />
    </linearGradient>
    <linearGradient
       id="paint1_linear_927_6608"
       x1="93.4298"
       y1="290.21"
       x2="582.06"
       y2="290.21"
       gradientUnits="userSpaceOnUse">
      <stop
         stop-color="#FCEED8"
         id="stop10" />
      <stop
         offset="0.86"
         stop-color="#C86C22"
         id="stop11" />
    </linearGradient>
  </defs>
</svg>
