<svg width="25" height="24" viewBox="0 0 25 24" fill="none" xmlns="http://www.w3.org/2000/svg">
<path d="M13.5271 2C14.6525 2.00186 15.2228 2.00782 15.7156 2.02249L15.9097 2.02883C16.1339 2.0368 16.3551 2.0468 16.6218 2.0593C17.6859 2.10847 18.4118 2.2768 19.0493 2.5243C19.7084 2.77847 20.2651 3.1218 20.8209 3.67764C21.3759 4.23347 21.7193 4.7918 21.9743 5.4493C22.2209 6.08597 22.3893 6.81264 22.4393 7.8768C22.4512 8.14347 22.4608 8.36467 22.4687 8.58891L22.475 8.783C22.4896 9.27574 22.4963 9.84613 22.4984 10.9716L22.4992 11.7172C22.4993 11.8083 22.4993 11.9023 22.4993 11.9993L22.4992 12.2814L22.4986 13.0271C22.4967 14.1525 22.4908 14.7229 22.4761 15.2156L22.4697 15.4097C22.4618 15.634 22.4518 15.8552 22.4393 16.1218C22.3901 17.186 22.2209 17.9118 21.9743 18.5493C21.7201 19.2085 21.3759 19.7652 20.8209 20.321C20.2651 20.876 19.7059 21.2193 19.0493 21.4743C18.4118 21.721 17.6859 21.8893 16.6218 21.9393C16.3551 21.9512 16.1339 21.9609 15.9097 21.9687L15.7156 21.975C15.2228 21.9897 14.6525 21.9963 13.5271 21.9985L12.7814 21.9993C12.6903 21.9993 12.5963 21.9993 12.4993 21.9993H12.2172L11.4715 21.9986C10.3461 21.9968 9.77574 21.9908 9.28299 21.9761L9.08891 21.9698C8.86466 21.9618 8.64346 21.9518 8.3768 21.9393C7.31263 21.8902 6.58763 21.721 5.9493 21.4743C5.29096 21.2202 4.73346 20.876 4.17763 20.321C3.6218 19.7652 3.2793 19.206 3.0243 18.5493C2.7768 17.9118 2.6093 17.186 2.5593 16.1218C2.54742 15.8552 2.53773 15.634 2.52988 15.4097L2.52359 15.2156C2.50896 14.7229 2.50229 14.1525 2.50013 13.0271L2.5 10.9716C2.50186 9.84613 2.50781 9.27574 2.52248 8.783L2.52883 8.58891C2.5368 8.36467 2.5468 8.14347 2.5593 7.8768C2.60846 6.8118 2.7768 6.0868 3.0243 5.4493C3.27846 4.79097 3.6218 4.23347 4.17763 3.67764C4.73346 3.1218 5.2918 2.7793 5.9493 2.5243C6.5868 2.2768 7.3118 2.1093 8.3768 2.0593C8.64346 2.04743 8.86466 2.03774 9.08891 2.02989L9.28299 2.0236C9.77574 2.00896 10.3461 2.00229 11.4715 2.00013L13.5271 2ZM12.4993 6.9993C9.7364 6.9993 7.4993 9.23883 7.4993 11.9993C7.4993 14.7622 9.73883 16.9993 12.4993 16.9993C15.2622 16.9993 17.4993 14.7598 17.4993 11.9993C17.4993 9.2364 15.2597 6.9993 12.4993 6.9993ZM12.4993 8.9993C14.1562 8.9993 15.4993 10.342 15.4993 11.9993C15.4993 13.6562 14.1566 14.9993 12.4993 14.9993C10.8424 14.9993 9.4993 13.6567 9.4993 11.9993C9.4993 10.3424 10.8419 8.9993 12.4993 8.9993ZM17.7493 5.4993C17.06 5.4993 16.4993 6.05921 16.4993 6.74845C16.4993 7.4377 17.0592 7.99847 17.7493 7.99847C18.4385 7.99847 18.9993 7.43857 18.9993 6.74845C18.9993 6.05921 18.4376 5.49844 17.7493 5.4993Z" fill="#EFC07B"/>
</svg>
