<svg width="25" height="24" viewBox="0 0 25 24" fill="none" xmlns="http://www.w3.org/2000/svg">
<path d="M12.502 2C18.0248 2 22.502 6.47715 22.502 12C22.502 17.5228 18.0248 22 12.502 22C10.6681 22 8.94948 21.5064 7.47183 20.6447L2.50613 22L3.85809 17.0315C2.99591 15.5536 2.50195 13.8345 2.50195 12C2.50195 6.47715 6.9791 2 12.502 2ZM8.89329 7.30833C8.7639 7.31742 8.63704 7.34902 8.52154 7.40811C8.43489 7.45244 8.35445 7.51651 8.22806 7.63586C8.10871 7.74855 8.03954 7.84697 7.96666 7.94186C7.59696 8.4232 7.39826 9.01405 7.40195 9.62098C7.40396 10.1116 7.5314 10.5884 7.73266 11.0336C8.14079 11.9364 8.81385 12.8908 9.70291 13.7759C9.91647 13.9885 10.1257 14.2034 10.3513 14.402C11.4548 15.3736 12.7698 16.0742 14.1917 16.4482C14.1917 16.4482 14.7517 16.5342 14.7599 16.5347C14.9454 16.5447 15.1306 16.5313 15.3163 16.5218C15.6076 16.5068 15.892 16.428 16.1494 16.2909C16.3149 16.2028 16.3932 16.159 16.5321 16.0714C16.5321 16.0714 16.5747 16.0426 16.6569 15.9814C16.7919 15.8808 16.8753 15.81 16.9876 15.6934C17.0704 15.6074 17.1416 15.5058 17.1966 15.3913C17.2748 15.2281 17.3535 14.9166 17.3848 14.6579C17.4087 14.4603 17.4015 14.3523 17.3989 14.2854C17.3946 14.1778 17.3057 14.0671 17.2083 14.0201L16.6268 13.7587C16.6268 13.7587 15.7573 13.3803 15.2255 13.1377C15.1701 13.1124 15.1095 13.1007 15.0486 13.097C14.9152 13.0888 14.7657 13.1236 14.6706 13.2238C14.6656 13.2218 14.5994 13.279 13.8759 14.1555C13.836 14.2032 13.7425 14.3069 13.5808 14.2972C13.5564 14.2955 13.5321 14.292 13.5084 14.2858C13.4429 14.2685 13.3791 14.2457 13.3167 14.2193C13.193 14.1668 13.1496 14.1469 13.0651 14.1105C12.4878 13.8583 11.958 13.5209 11.4897 13.108C11.3641 12.9974 11.2473 12.8783 11.1269 12.7616C10.7067 12.3543 10.3627 11.9211 10.1067 11.4938C10.0928 11.4705 10.0712 11.4368 10.0481 11.3991C10.0062 11.331 9.96 11.25 9.94552 11.1944C9.90835 11.0473 10.007 10.9291 10.007 10.9291C10.007 10.9291 10.2504 10.663 10.3635 10.5183C10.4723 10.379 10.5662 10.2428 10.626 10.1457C10.7438 9.95633 10.7811 9.76062 10.7192 9.60963C10.4386 8.92565 10.1492 8.24536 9.85083 7.56894C9.79195 7.43545 9.61682 7.33846 9.45756 7.32007C9.40362 7.31384 9.34972 7.30758 9.29556 7.30402C9.1615 7.29748 9.02717 7.29892 8.89329 7.30833Z" fill="#F3F3F3"/>
</svg>
