<svg width="80" height="80" viewBox="0 0 80 80" fill="none" xmlns="http://www.w3.org/2000/svg">
<path d="M78.8395 56.424C78.635 56.0735 78.26 55.8587 77.8566 55.8587H51.5749L47.1605 51.4657V44.7435L50.5807 41.5661C51.8135 42.7477 53.4611 43.4375 55.2109 43.4375C58.8924 43.4375 61.8864 40.458 61.8864 36.7943C66.9314 34.6233 70.2608 29.6424 70.2608 24.1357C70.2608 17.6565 65.8463 12.1894 59.6139 10.7364C59.6196 10.612 59.6253 10.482 59.6253 10.3576C59.6253 6.69399 56.6312 3.71449 52.9498 3.71449C52.0237 3.71449 51.109 3.90671 50.2625 4.27986C47.6491 1.54912 44.0472 0 40.2294 0C36.2241 0 32.4006 1.7583 29.7815 4.75477C28.7191 4.07632 27.4806 3.71449 26.2023 3.71449C22.5208 3.71449 19.5268 6.69399 19.5268 10.3576C19.5268 10.5555 19.5382 10.7477 19.5552 10.9456C13.8 12.6869 9.72653 18.0693 9.72653 24.1357C9.72653 29.5293 12.9648 34.465 17.862 36.6813C17.862 36.7208 17.862 36.7548 17.862 36.7943C17.862 40.458 20.8561 43.4375 24.5376 43.4375C26.4919 43.4375 28.3214 42.5724 29.577 41.1307L34.2185 44.8V51.6749L30.0087 55.8643H2.13625C1.73288 55.8643 1.35792 56.0792 1.1534 56.4297C0.948868 56.7802 0.948868 57.2099 1.1534 57.5604C9.11858 71.4007 24.0037 80 40.0022 80C56.0007 80 70.8857 71.4007 78.8509 57.5604C79.0497 57.2099 79.0497 56.7802 78.8509 56.4297L78.8395 56.424ZM24.5376 41.1703C22.106 41.1703 20.1346 39.2028 20.1346 36.7887C20.1346 36.5908 20.1517 36.376 20.1914 36.1216C20.271 35.5958 19.9699 35.0869 19.4699 34.8947C14.9987 33.2042 11.999 28.8792 11.999 24.13C11.999 18.7534 15.8283 14.0212 21.1005 12.8792C21.4016 12.8113 21.6686 12.6247 21.8277 12.3647C21.9925 12.0989 22.0379 11.7823 21.9584 11.4827C21.8561 11.1039 21.805 10.7194 21.805 10.3519C21.805 7.93215 23.7821 5.97032 26.208 5.97032C27.3215 5.97032 28.3839 6.38869 29.202 7.14629C29.4407 7.36678 29.7587 7.4742 30.0825 7.44594C30.4064 7.41767 30.7019 7.24806 30.8894 6.98799C33.071 4.02544 36.5593 2.25583 40.2294 2.25583C43.6779 2.25583 46.9219 3.77102 49.1319 6.41131C49.4955 6.84664 50.1262 6.94841 50.6091 6.64311C51.3136 6.20212 52.1203 5.97032 52.9441 5.97032C55.3757 5.97032 57.3471 7.93781 57.3471 10.3519C57.3471 10.6799 57.3073 11.0247 57.2221 11.3753C57.1483 11.6806 57.2051 12.0085 57.3869 12.2685C57.563 12.5286 57.8415 12.7095 58.1596 12.7548C63.7614 13.6028 67.9826 18.4933 67.9826 24.13C67.9826 28.9753 64.8976 33.3286 60.3072 34.9682C59.8015 35.1491 59.489 35.658 59.5629 36.1894C59.597 36.4212 59.6084 36.6078 59.6084 36.7887C59.6084 39.2085 57.6313 41.1703 55.2054 41.1703C54.0918 41.1703 53.0407 40.7519 52.2339 40.0226L57.4608 35.1717C57.546 35.0926 57.6198 34.9965 57.6823 34.8947L62.4603 26.3011C62.7273 25.8205 62.608 25.2212 62.1819 24.8763L58.4209 21.8403C58.1653 21.6311 57.83 21.5463 57.5062 21.6028C57.1823 21.6594 56.8983 21.8572 56.7279 22.1343L51.734 30.4735L48.5638 33.4191L49.5808 26.5216C49.6717 25.9053 49.2456 25.3286 48.6207 25.2382L43.587 24.5032C43.2916 24.4579 42.9848 24.5371 42.7462 24.7124C42.5019 24.8933 42.3428 25.159 42.2973 25.453L40.9339 34.6742L40.1839 35.4148L39.15 33.7583L37.2467 20.2346C37.1615 19.6184 36.582 19.1887 35.9627 19.2735L30.9234 19.9746C30.3041 20.0594 29.8667 20.6304 29.9576 21.2523L31.6676 33.4247L28.435 30.8693L24.782 23.4346C24.5206 22.9088 23.907 22.6657 23.356 22.8749L18.5836 24.6954C18.2882 24.8085 18.0496 25.0403 17.9303 25.3343C17.811 25.6283 17.8281 25.9618 17.9644 26.2445L22.4355 35.3413C22.5094 35.494 22.6174 35.624 22.748 35.7314L27.7874 39.7173C26.9579 40.6276 25.7819 41.1703 24.5263 41.1703H24.5376ZM36.1616 52.9413C36.3775 52.7265 36.4967 52.4438 36.4967 52.1442V44.2572C36.4967 43.9124 36.3377 43.5844 36.065 43.3696L24.3786 34.1258L20.5664 26.3633L23.2082 25.3569L26.5203 32.0961C26.5942 32.2488 26.7022 32.3788 26.8328 32.4862L32.4914 36.964C32.855 37.2523 33.3606 37.2919 33.764 37.0601C34.1674 36.8283 34.3891 36.3816 34.3266 35.9237L32.3778 22.0664L35.1674 21.6763L36.9456 34.318C36.9683 34.4763 37.0195 34.6233 37.1047 34.759L39.0192 37.829C39.201 38.123 39.5079 38.3152 39.8545 38.3548C40.201 38.3943 40.5419 38.2756 40.7861 38.0325L42.8144 36.0198C42.9905 35.8502 43.0984 35.624 43.1381 35.3809L44.3938 26.906L47.1776 27.3131L45.8538 36.2855C45.7856 36.7604 46.0243 37.2297 46.4504 37.4502C46.8765 37.6707 47.3992 37.6028 47.7514 37.2749L53.41 32.017C53.4895 31.9435 53.5578 31.8587 53.6089 31.7682L58.0119 24.4184L60.0117 26.0353L55.7847 33.6452L50.2115 38.824C50.1319 38.8523 50.0523 38.8919 49.9841 38.9428C49.808 39.0615 49.6774 39.2198 49.5979 39.4007L45.2574 43.4318C45.0245 43.6466 44.8937 43.9463 44.8937 44.2572V51.9406C44.8937 52.2403 45.0131 52.5286 45.229 52.7378L48.3707 55.8643H33.23L36.1673 52.9413H36.1616ZM39.9965 77.7329C25.4751 77.7329 11.9195 70.27 4.14745 58.1201H28.5033L26.9181 60.8226L17.2713 62.5527C16.652 62.6657 16.2429 63.2537 16.3566 63.8643C16.4531 64.4127 16.936 64.7972 17.4758 64.7972C17.5439 64.7972 17.6122 64.7915 17.6803 64.7802L23.5264 63.7343L22.8616 67.7484C22.7594 68.3647 23.1799 68.947 23.7991 69.0488C23.8616 69.0601 23.924 69.0657 23.9865 69.0657C24.5319 69.0657 25.0148 68.6756 25.1057 68.1216L25.9069 63.3159L27.8441 62.971C28.1736 62.9145 28.4578 62.7166 28.6225 62.4283L31.1393 58.1371H38.2466L34.8094 63.9095L30.1337 65.4361C29.5372 65.6283 29.2133 66.2671 29.4065 66.8608C29.5656 67.3357 30.0088 67.641 30.486 67.641C30.6053 67.641 30.7246 67.624 30.8382 67.5844L34.3209 66.4481L34.0765 70.2021L29.3498 71.5986C28.7475 71.7738 28.4066 72.4071 28.5827 73.0064C28.7304 73.4982 29.1792 73.8148 29.6735 73.8148C29.7814 73.8148 29.8894 73.7979 29.9974 73.7696L34.9458 72.311L38.5591 74.9173C38.758 75.0643 38.9965 75.1322 39.2238 75.1322C39.576 75.1322 39.9227 74.9682 40.1442 74.6629C40.5135 74.1597 40.3998 73.453 39.8885 73.0855L36.332 70.5187L36.6786 65.2042L40.0134 59.6014L42.7405 66.6855L42.3542 71.9943C42.3087 72.6163 42.7803 73.159 43.4053 73.2042C43.4337 73.2042 43.462 73.2042 43.4905 73.2042C44.0813 73.2042 44.5813 72.7519 44.621 72.1583L44.8994 68.3534L51.6772 72.0565C52.2282 72.3562 52.9158 72.1583 53.2169 71.6099C53.518 71.0615 53.3191 70.3774 52.7681 70.0721L44.8029 65.7244L41.8826 58.1428H50.2115L50.9499 61.1505L48.9502 62.824C48.4673 63.2254 48.4048 63.9378 48.8082 64.4184C49.0355 64.6841 49.3535 64.8198 49.6773 64.8198C49.933 64.8198 50.1943 64.735 50.4102 64.5541L52.5976 62.7223L54.4952 62.8523L56.8643 68.3929C57.0461 68.8226 57.4664 69.0827 57.9095 69.0827C58.0572 69.0827 58.2107 69.0544 58.3527 68.9922C58.9322 68.7491 59.1992 68.082 58.9549 67.511L57.0404 63.0276L63.8295 63.4855C63.8295 63.4855 63.8806 63.4855 63.909 63.4855C64.4999 63.4855 64.9998 63.0276 65.0396 62.4339C65.085 61.812 64.6079 61.2693 63.9829 61.2297L53.1259 60.4947L52.5464 58.1484H75.8341C68.0677 70.2926 54.5065 77.7611 39.9851 77.7611L39.9965 77.7329Z" fill="#2B2B26"/>
</svg>
