<svg width="80" height="80" viewBox="0 0 80 80" fill="none" xmlns="http://www.w3.org/2000/svg">
<path d="M8.79173 28.978C8.95367 29.2506 9.23572 29.4288 9.54913 29.4707C9.59615 29.476 9.63794 29.4812 9.68495 29.4812C9.95136 29.4812 10.2073 29.3764 10.4058 29.1929L18.2883 21.6661C18.7062 21.2677 18.7219 20.602 18.3249 20.1827C17.9279 19.7634 17.2644 19.7477 16.8465 20.146L9.89914 26.7766L7.82014 23.3538C7.5224 22.8611 6.87989 22.7039 6.38364 23.0027C5.89262 23.3067 5.73589 23.9514 6.03364 24.4441L8.7865 28.978H8.79173Z" fill="#2B2B26"/>
<path d="M80 38.3804C80 34.5174 78.2553 30.8588 75.2883 28.4214C75.8733 27.0115 76.1711 25.5281 76.1711 23.9923C76.1711 17.6134 70.9997 12.4243 64.6425 12.4243C63.9478 12.4243 63.2583 12.4924 62.5844 12.613C62.3546 7.27709 57.9667 3 52.5864 3C48.653 3 45.2524 5.29055 43.6121 8.60844C41.9719 5.29055 38.5714 3 34.638 3C29.2628 3 24.875 7.27709 24.6399 12.613C23.9661 12.4924 23.2765 12.419 22.5818 12.419C20.5289 12.419 18.6118 12.9694 16.9403 13.9181C15.3889 13.1686 13.6494 12.744 11.8159 12.744C5.30199 12.744 0 18.0642 0 24.6004C0 29.6218 3.12898 33.9198 7.53251 35.6495C7.33923 36.5353 7.23472 37.4474 7.23472 38.3751C7.23472 42.8776 9.51748 46.9503 13.268 49.288C11.8368 51.2588 11.0585 53.628 11.0585 56.0758C11.0585 62.4547 16.2298 67.6439 22.587 67.6439C23.2765 67.6439 23.9661 67.5757 24.6451 67.4499C24.9063 72.7596 29.2837 77 34.638 77C38.5714 77 41.9719 74.7094 43.6121 71.3916C45.2524 74.7094 48.653 77 52.5864 77C57.9406 77 62.3128 72.7596 62.5792 67.4499C63.2583 67.5705 63.9425 67.6439 64.6373 67.6439C70.9944 67.6439 76.1659 62.4547 76.1659 56.0758C76.1659 53.6228 75.3876 51.2536 73.9563 49.288C77.7068 46.9503 79.9895 42.8776 79.9895 38.3751L80 38.3804ZM2.10514 24.6056C2.10514 19.2226 6.46687 14.8459 11.8315 14.8459C12.9181 14.8459 13.9576 15.0346 14.9344 15.3648C15.2792 15.4801 15.6187 15.6216 15.9425 15.7736C15.9948 15.7998 16.0418 15.8208 16.0941 15.847C16.4127 16.0042 16.7209 16.1772 17.0186 16.3659C19.7402 18.0956 21.558 21.141 21.558 24.6108C21.558 29.9939 17.191 34.3706 11.8315 34.3706C11.2674 34.3706 10.7189 34.3129 10.1756 34.2186C9.83087 34.1609 9.48613 34.0823 9.15182 33.988C9.1466 33.988 9.14136 33.988 9.13613 33.988C8.80182 33.8936 8.47273 33.7783 8.15409 33.6473C4.60724 32.1901 2.09991 28.694 2.09991 24.6161L2.10514 24.6056ZM42.5779 41.672C40.3317 41.5148 35.0454 40.6499 33.9745 36.0531C32.5589 29.9939 27.2204 28.8932 24.5929 29.1553C24.0183 29.2129 23.6004 29.7266 23.6579 30.3032C23.7153 30.8797 24.2272 31.3043 24.8018 31.2414C25.0369 31.2152 30.5896 30.7277 31.9425 36.5353C32.2194 37.7199 32.6947 38.7106 33.2902 39.5387C30.7985 42.1333 27.7323 43.4804 27.6905 43.4961C27.1629 43.7215 26.9122 44.34 27.1421 44.8694C27.3092 45.2677 27.6957 45.5089 28.1032 45.5089C28.239 45.5089 28.3801 45.4826 28.5106 45.425C28.6621 45.3621 31.9426 43.9312 34.7216 41.064C37.2916 43.1973 40.8175 43.6796 42.5831 43.7791V66.952C42.5831 71.3391 39.0258 74.9086 34.6536 74.9086C30.2815 74.9086 26.7241 71.3391 26.7241 66.952C26.7241 66.9048 26.7241 66.8681 26.7241 66.8314C27.8942 66.2653 30.2814 64.7872 31.2739 61.8677C32.5276 58.1881 35.4737 57.4648 35.6096 57.4333C36.1685 57.3076 36.5289 56.7572 36.4088 56.1911C36.2886 55.625 35.7297 55.2634 35.1708 55.3839C34.9984 55.4206 30.9449 56.3431 29.2994 61.1915C28.3278 64.0534 25.4078 65.1279 25.413 65.1279C24.5093 65.411 23.5638 65.5525 22.6027 65.5525C17.3999 65.5525 13.1636 61.3016 13.1636 56.081C13.1636 53.7171 14.0464 51.4475 15.6501 49.6916C15.8747 49.4505 15.9687 49.115 15.906 48.7901C15.8433 48.4651 15.6343 48.1873 15.3418 48.0405C11.6383 46.2165 9.33986 42.5107 9.33986 38.3751C9.33986 37.6518 9.41302 36.9389 9.55928 36.2418C10.2958 36.3886 11.0585 36.4672 11.8368 36.4672C18.3559 36.4672 23.6526 31.147 23.6526 24.6108C23.6526 20.8003 21.8505 17.4037 19.0558 15.2337C20.1528 14.783 21.349 14.5261 22.6027 14.5261C23.5638 14.5261 24.5093 14.6677 25.4391 14.9612C25.4809 14.9717 29.477 16.1405 31.3627 18.9605C34.3768 23.4734 36.7796 23.3791 37.2393 23.3162L36.9468 21.2405C36.9468 21.2405 36.9677 21.2405 37.0043 21.2353C36.9625 21.2353 35.3745 21.1986 33.1022 17.7969C31.2948 15.0922 28.1241 13.6927 26.7294 13.1843C26.7294 13.1476 26.7294 13.1057 26.7294 13.0637C26.7294 8.67658 30.2866 5.1071 34.6588 5.1071C39.031 5.1071 42.5883 8.67658 42.5883 13.0637V41.6825L42.5779 41.672ZM71.9086 48.0458C71.6108 48.1925 71.4019 48.4703 71.3445 48.7953C71.2818 49.1203 71.381 49.4557 71.6004 49.6968C73.2041 51.4528 74.0869 53.7223 74.0869 56.0863C74.0869 61.3068 69.8505 65.5577 64.6477 65.5577C63.6918 65.5577 62.7463 65.4162 61.8688 65.1437C61.8374 65.1332 58.9331 64.0901 57.951 61.1968C56.3004 56.3483 52.2468 55.4258 52.0797 55.3892C51.5155 55.2686 50.9671 55.625 50.8469 56.1911C50.7215 56.7519 51.0767 57.3128 51.6409 57.4386C51.7662 57.4648 54.7281 58.1829 55.9817 61.8729C56.969 64.782 59.3405 66.2549 60.5315 66.8367C60.5315 66.8734 60.5315 66.9153 60.5315 66.9625C60.5315 71.3496 56.9742 74.9191 52.6021 74.9191C48.2299 74.9191 44.6725 71.3496 44.6725 66.9625V49.8436C45.033 49.1832 46.4277 46.9188 48.8671 46.3737C50.9775 45.902 53.4169 46.8035 56.1071 49.0521C56.5511 49.4243 57.2093 49.3614 57.5801 48.9159C57.951 48.4703 57.8884 47.8099 57.4444 47.4377C54.2162 44.7436 51.1707 43.6953 48.3918 44.3295C46.809 44.6859 45.5815 45.5351 44.6778 46.4209V30.0306C46.062 29.9625 49.0343 30.2088 51.9177 33.0235C54.5975 35.639 57.7943 36.2261 60.124 36.2261C61.921 36.2261 63.2008 35.8749 63.321 35.8435C63.8747 35.6862 64.1985 35.1096 64.0418 34.554C63.8851 33.9984 63.3105 33.6735 62.7568 33.8255C62.5322 33.8884 57.2511 35.3036 53.3804 31.5244C50.0268 28.2537 46.5165 27.8658 44.683 27.9392V13.0637C44.683 8.67658 48.2403 5.1071 52.6125 5.1071C56.9847 5.1071 60.542 8.67658 60.542 13.0637C60.542 13.1109 60.542 13.1476 60.542 13.1895C59.1264 13.7085 55.9713 15.1027 54.1691 17.7969C51.8916 21.2039 50.3088 21.2353 50.267 21.2353C50.3036 21.2353 50.3246 21.2405 50.3246 21.2405L50.032 23.3162C50.4865 23.3791 52.8946 23.4734 55.9086 18.9605C57.7943 16.1405 61.7904 14.9717 61.8583 14.9559C62.7672 14.6729 63.7127 14.5261 64.6686 14.5261C69.8714 14.5261 74.1077 18.777 74.1077 23.9976C74.1077 25.4914 73.763 26.9276 73.0839 28.2747C72.8488 28.7359 72.9899 29.302 73.4078 29.606C76.239 31.624 77.9315 34.9105 77.9315 38.3856C77.9315 42.5212 75.6331 46.2269 71.9295 48.051L71.9086 48.0458Z" fill="#2B2B26"/>
</svg>
