<svg width="80" height="80" viewBox="0 0 80 80" fill="none" xmlns="http://www.w3.org/2000/svg">
<path d="M43.5332 32.101C43.0153 31.7502 42.3172 31.886 41.9682 32.4066C41.5235 33.0686 40.7804 33.4647 39.9866 33.4647C39.1928 33.4647 38.4553 33.0686 38.0106 32.4122C37.6615 31.8973 36.9635 31.7615 36.4456 32.1123C35.9333 32.4632 35.7981 33.1648 36.1472 33.6854C37.0141 34.9699 38.4497 35.7338 39.9866 35.7338C41.5235 35.7338 42.9646 34.9642 43.8316 33.6797C44.1806 33.1591 44.0455 32.4575 43.5276 32.1067L43.5332 32.101Z" fill="#2B2B26"/>
<path d="M73.9831 71.218C72.9754 59.8783 67.875 53.1617 58.7775 51.2548C58.0682 51.1077 56.9479 50.9322 55.7432 50.7512C61.6712 48.9518 66.006 43.4177 66.006 36.8765C66.006 33.5776 64.8913 30.4032 62.8534 27.8399C63.5796 26.4535 63.9568 24.9144 63.9568 23.3414C63.9568 20.4725 62.7183 17.8017 60.5452 15.9513C58.1076 6.54124 49.7082 0 39.9915 0C30.2748 0 21.8755 6.54124 19.4379 15.9513C17.2648 17.8017 16.0263 20.4725 16.0263 23.3414C16.0263 24.9144 16.4035 26.4535 17.1297 27.8399C15.0918 30.4032 13.9771 33.5776 13.9771 36.8765C13.9771 43.4121 18.3063 48.9518 24.2399 50.7512C23.0352 50.9322 21.9093 51.102 21.1605 51.2604C12.1081 53.156 7.0077 59.867 6 71.2123C6 71.2463 6 71.2802 6 71.3142V78.8626C6 79.4851 6.50666 79.9943 7.12592 79.9943C7.74518 79.9943 8.25184 79.4851 8.25184 78.8626V71.3651C9.64235 55.9909 18.661 54.101 21.6728 53.4672C22.3821 53.3201 23.5981 53.1334 24.893 52.941C26.1146 52.7543 27.3812 52.5675 28.3552 52.3865C30.2523 52.03 31.9919 51.2435 33.4894 50.1174C33.5513 50.0835 33.6019 50.0438 33.6526 49.9986C34.6491 49.2177 35.5385 48.2841 36.276 47.2033C36.9234 46.2526 37.2668 45.1379 37.2668 43.9892V43.0895C38.1619 43.265 39.0796 43.3612 40.0028 43.3612C40.9261 43.3612 41.8437 43.265 42.7388 43.0895V43.9892C42.7388 45.1436 43.0822 46.2526 43.7296 47.2033C45.593 49.942 48.4022 51.781 51.6505 52.3921C52.6244 52.5732 53.891 52.7656 55.1126 52.9467C56.4018 53.139 57.6235 53.3258 58.3778 53.4842C61.3446 54.1067 70.3633 55.9966 71.7482 71.3708V78.8683C71.7482 79.4907 72.2548 80 72.8741 80C73.4933 80 74 79.4907 74 78.8683V71.3198C74 71.2859 74 71.2519 74 71.218H73.9831ZM31.0236 37.0802C29.3066 35.1676 28.2538 32.5873 28.0512 29.8147C27.9667 28.6547 27.9217 27.4777 27.9217 26.3121V22.9396H37.143C37.143 22.9396 37.188 22.9396 37.2161 22.9396C38.6404 22.8491 40.881 22.1248 42.6262 20.2461C44.6472 22.5152 47.9631 22.917 48.1263 22.9339C48.1657 22.9339 48.2108 22.9396 48.2502 22.9396H52.0614V26.3064C52.0614 27.4721 52.0164 28.6547 51.9319 29.809C51.7293 32.5817 50.6765 35.162 48.9595 37.0746C46.6739 39.6265 43.4087 41.0864 39.9915 41.0864C36.5744 41.0864 33.3092 39.6265 31.0236 37.0746V37.0802ZM44.9794 43.9892V42.4501C47.1243 41.6466 49.0721 40.3395 50.6315 38.5967C52.6807 36.3106 53.9361 33.2494 54.1781 29.9788C54.2682 28.7679 54.3133 27.5286 54.3133 26.3064V21.8079C54.3133 21.1855 53.8066 20.6762 53.1873 20.6762H48.329C47.9124 20.6139 45.2046 20.1556 43.9829 18.3166C44.529 17.2698 44.9287 16.0079 45.1032 14.4971C45.1764 13.8747 44.7317 13.3145 44.1124 13.2466C43.4988 13.1787 42.9358 13.62 42.8626 14.2425C42.1983 20.0764 37.5427 20.6422 37.1036 20.6818H26.8014C26.1821 20.6818 25.6755 21.1911 25.6755 21.8135V26.3177C25.6755 27.5343 25.7205 28.7679 25.8106 29.9844C26.047 33.2551 27.308 36.3163 29.3572 38.6023C30.9166 40.3452 32.8645 41.6523 35.0094 42.4558V43.9949C35.0094 44.6909 34.8011 45.3586 34.4126 45.9301C33.8215 46.7959 33.1178 47.5484 32.3184 48.1765C30.8209 48.8216 29.954 49.1102 28.3946 49.1102C21.6897 49.1102 16.2346 43.6271 16.2346 36.8878C16.2346 33.8718 17.338 30.9747 19.3422 28.7282C19.6799 28.3491 19.725 27.7889 19.4491 27.3589C18.6835 26.1593 18.2782 24.773 18.2782 23.3527C18.2782 21.0553 19.3196 18.9164 21.1324 17.4961C21.335 17.3377 21.4758 17.117 21.5321 16.868C23.5981 8.2784 31.1868 2.27472 39.9915 2.27472C48.7962 2.27472 56.385 8.27274 58.451 16.868C58.513 17.117 58.6537 17.3377 58.8507 17.4961C60.6634 18.9221 61.7049 21.0553 61.7049 23.3527C61.7049 24.773 61.2996 26.1593 60.534 27.3589C60.2581 27.7889 60.3031 28.3491 60.6409 28.7282C62.6451 30.9747 63.7485 33.8718 63.7485 36.8878C63.7485 43.6271 58.2934 49.1102 51.5885 49.1102C49.8659 49.1102 49.1115 48.765 47.4733 48.0124C47.4733 48.0124 47.4733 48.0124 47.4677 48.0124C46.7527 47.4183 46.1166 46.7223 45.5761 45.9358C45.1877 45.3643 44.9794 44.6909 44.9794 44.0006V43.9892Z" fill="#2B2B26"/>
<path d="M58.3941 66.6232C58.3997 66.527 58.4054 66.4364 58.4054 66.3516C58.4054 63.1658 56.0634 60.5742 53.1867 60.5742C50.31 60.5742 47.9681 63.1658 47.9681 66.3516C47.9681 66.4364 47.9681 66.527 47.9793 66.6232C48.0694 67.8058 48.5761 68.9771 49.4092 69.9221L51.7962 73.2153L48.182 78.2005C47.8161 78.7041 47.9287 79.4114 48.4297 79.7792C48.9307 80.147 49.6344 80.0338 50.0003 79.5302L53.1867 75.1336L56.3731 79.5302C56.5926 79.8358 56.936 79.9942 57.2851 79.9942C57.5159 79.9942 57.7467 79.9263 57.9494 79.7792C58.4504 79.4114 58.563 78.7041 58.1971 78.2005L54.5828 73.2153L56.9698 69.9221C57.803 68.9771 58.3096 67.8058 58.3997 66.6232H58.3941ZM56.1479 66.4477C56.0972 67.1551 55.7763 67.8624 55.2528 68.4509C55.2246 68.4792 55.2021 68.5131 55.1796 68.5414L53.1867 71.2914L51.1938 68.5414C51.1713 68.5074 51.1432 68.4792 51.1206 68.4509C50.5971 67.868 50.2762 67.1551 50.2255 66.4477C50.2255 66.4138 50.2255 66.3798 50.2255 66.3516C50.2255 64.4163 51.5598 62.8376 53.1923 62.8376C54.8249 62.8376 56.1592 64.4107 56.1592 66.3516C56.1592 66.3855 56.1592 66.4138 56.1592 66.4534L56.1479 66.4477Z" fill="#2B2B26"/>
</svg>
