<svg width="80" height="80" viewBox="0 0 80 80" fill="none" xmlns="http://www.w3.org/2000/svg">
<path d="M70.5 40C70.5 35.8035 68.0989 32.162 64.6069 30.4007C68.0989 28.6337 70.5 24.9979 70.5 20.8014C70.5 14.8832 65.7203 10.0694 59.8441 10.0694H49.4132C47.6644 10.0694 46.2361 8.63655 46.2361 6.8696V1.13266C46.2361 0.509698 45.73 0 45.1115 0H36.0469C35.4284 0 34.9223 0.509698 34.9223 1.13266V6.60343C34.9223 12.1195 37.8351 16.9673 42.1874 19.6687H34.3993C32.8192 14.4018 27.9552 10.5621 22.2196 10.5621C15.2075 10.5621 9.5 16.3104 9.5 23.3725C9.5 30.4347 15.2075 36.1829 22.2196 36.1829C22.2196 36.1829 22.2196 36.1829 22.2252 36.1829C23.2599 37.8026 24.6994 39.1278 26.4201 40C22.9281 41.767 20.527 45.4028 20.527 49.5993C20.527 55.5175 25.3067 60.3313 31.1829 60.3313H42.1818C37.8239 63.0327 34.9167 67.8805 34.9167 73.3966V78.8673C34.9167 79.4903 35.4228 80 36.0413 80H45.1058C45.7244 80 46.2305 79.4903 46.2305 78.8673V73.1304C46.2305 71.3691 47.6531 69.9306 49.4075 69.9306H59.8385C65.7147 69.9306 70.4944 65.1168 70.4944 59.1986C70.4944 55.0021 68.0933 51.3606 64.6013 49.5993C68.0933 47.8324 70.4944 44.1965 70.4944 40H70.5ZM59.7823 21.934C60.4008 21.934 60.9069 21.4243 60.9069 20.8014C60.9069 20.1784 60.4008 19.6687 59.7823 19.6687H50.1442C42.9915 19.6687 37.1716 13.8072 37.1716 6.60343V2.26533H43.9868V6.8696C43.9868 9.88248 46.4216 12.3347 49.4132 12.3347H59.8441C64.4776 12.3347 68.2507 16.1348 68.2507 20.8014C68.2507 25.4679 64.4776 29.268 59.8441 29.268H33.5165C34.4275 27.5011 34.9504 25.4963 34.9504 23.3725C34.9504 22.8855 34.9223 22.4041 34.8661 21.934H59.7823ZM11.7493 23.3725C11.7493 17.5563 16.4446 12.8274 22.2196 12.8274C27.9946 12.8274 32.6899 17.5563 32.6899 23.3725C32.6899 29.1887 27.989 33.9176 22.2196 33.9176C16.4502 33.9176 11.7493 29.1887 11.7493 23.3725ZM59.8441 48.4667H31.2504C30.6318 48.4667 30.1257 48.9763 30.1257 49.5993C30.1257 50.2223 30.6318 50.732 31.2504 50.732H59.8441C64.4776 50.732 68.2507 54.5321 68.2507 59.1986C68.2507 63.8652 64.4776 67.6653 59.8441 67.6653H49.4132C46.4216 67.6653 43.9868 70.1175 43.9868 73.1304V77.7347H37.1716V73.3966C37.1716 66.1928 42.9915 60.3313 50.1442 60.3313H59.7823C60.4008 60.3313 60.9069 59.8216 60.9069 59.1986C60.9069 58.5757 60.4008 58.066 59.7823 58.066H31.1885C26.555 58.066 22.7819 54.2659 22.7819 49.5993C22.7819 44.9327 26.555 41.1327 31.1885 41.1327H59.7823C60.4008 41.1327 60.9069 40.623 60.9069 40C60.9069 39.377 60.4008 38.8673 59.7823 38.8673H31.1885C28.6469 38.8673 26.3695 37.7177 24.8287 35.9167C27.7022 35.3108 30.2157 33.7307 32.0264 31.5333H59.8441C64.4776 31.5333 68.2507 35.3334 68.2507 40C68.2507 44.6666 64.4776 48.4667 59.8441 48.4667Z" fill="#2B2B26"/>
<path d="M29.214 18.5917C28.7866 18.1386 28.0725 18.1216 27.6226 18.5521L20.1438 25.7162L17.9058 22.018C17.5853 21.4857 16.8936 21.3158 16.3594 21.6386C15.8309 21.967 15.6622 22.6636 15.9827 23.196L18.9461 28.0947C19.1204 28.3892 19.424 28.5818 19.7614 28.6271C19.812 28.6328 19.857 28.6384 19.9076 28.6384C20.1944 28.6384 20.47 28.5252 20.6836 28.3269L29.169 20.1944C29.6188 19.764 29.6357 19.0448 29.2084 18.5917H29.214Z" fill="#2B2B26"/>
</svg>
