<svg width="80" height="80" viewBox="0 0 80 80" fill="none" xmlns="http://www.w3.org/2000/svg">
<path d="M66.4169 37.8637C63.864 36.4836 60.6559 37.4321 59.2712 39.9764L57.3678 43.4749C52.9972 48.5239 46.672 51.4204 39.9935 51.4204C33.315 51.4204 26.9899 48.5239 22.6192 43.4749L20.716 39.9764C20.0436 38.744 18.9324 37.841 17.5819 37.4434C16.2314 37.0459 14.8067 37.1935 13.5702 37.858C11.0173 39.2381 10.0657 42.4299 11.439 44.9629L13.3594 48.6091C13.3764 48.6432 13.4049 48.6772 13.4277 48.7113C13.4391 48.734 13.4506 48.7511 13.4677 48.7738C13.4734 48.7795 13.479 48.7908 13.4847 48.7965C17.4622 53.9648 22.7902 57.8097 28.9273 59.9508V78.8632C28.9273 79.4879 29.4402 79.9991 30.067 79.9991H49.9201C50.5469 79.9991 51.0598 79.4879 51.0598 78.8632V59.9508C57.1969 57.804 62.5192 53.9591 66.5023 48.7908C66.5023 48.7908 66.5138 48.7738 66.5252 48.7681C66.5423 48.7454 66.5479 48.7227 66.565 48.7056C66.5878 48.6716 66.6106 48.6432 66.6334 48.6091L68.5424 44.98C69.2148 43.7475 69.363 42.3277 68.9641 40.9817C68.5652 39.6357 67.6591 38.5282 66.4226 37.858L66.4169 37.8637ZM14.6586 39.8628C15.3595 39.4823 16.1687 39.3971 16.9322 39.6243C17.6958 39.8515 18.3283 40.3626 18.7101 41.0612L20.1347 43.6794L14.8409 46.5361L13.4505 43.8952C12.6642 42.4526 13.2055 40.6409 14.6529 39.8572L14.6586 39.8628ZM49.5725 58.0653C49.0996 58.2186 48.7861 58.6559 48.7861 59.1444V77.7387H31.2124V59.1444C31.2124 58.6503 30.8933 58.2129 30.426 58.0653C24.8131 56.2536 19.8954 52.9425 16.123 48.4387L20.1404 46.2692L21.4397 45.5649C26.2149 50.7446 32.9333 53.6922 40.0049 53.6922C47.0766 53.6922 53.7893 50.7389 58.5703 45.5649L59.8694 46.2692L63.8868 48.4387C60.1145 52.9368 55.1968 56.2536 49.5839 58.0653H49.5725ZM66.5252 43.9179L65.1461 46.5418L59.8923 43.7021L59.8524 43.6794L61.277 41.0612C62.0634 39.6186 63.8811 39.0791 65.3285 39.8628C66.0294 40.2434 66.5422 40.8738 66.7702 41.6348C66.9981 42.3958 66.9127 43.2023 66.5252 43.9179Z" fill="#2B2B26"/>
<path d="M39.9936 49.2293C44.199 49.2293 47.618 45.8217 47.618 41.6303C47.618 37.4389 44.199 34.0312 39.9936 34.0312C35.7882 34.0312 32.3691 37.4389 32.3691 41.6303C32.3691 45.8217 35.7882 49.2293 39.9936 49.2293ZM39.9936 36.303C42.9396 36.303 45.3386 38.694 45.3386 41.6303C45.3386 44.5665 42.9396 46.9575 39.9936 46.9575C37.0475 46.9575 34.6485 44.5665 34.6485 41.6303C34.6485 38.694 37.0475 36.303 39.9936 36.303Z" fill="#2B2B26"/>
<path d="M39.9932 14.8175C40.62 14.8175 41.1329 14.3064 41.1329 13.6817V1.13588C41.1329 0.511145 40.62 0 39.9932 0C39.3664 0 38.8535 0.511145 38.8535 1.13588V13.6817C38.8535 14.3064 39.3664 14.8175 39.9932 14.8175Z" fill="#2B2B26"/>
<path d="M53.2662 18.2999C53.4429 18.4021 53.6366 18.4475 53.8247 18.4475C54.2236 18.4475 54.6053 18.2431 54.8162 17.8739L61.0217 6.96379C61.3294 6.41857 61.1414 5.72569 60.5943 5.41332C60.0473 5.10096 59.3521 5.29406 59.0387 5.83928L52.8332 16.7494C52.5255 17.2946 52.7135 17.9875 53.2605 18.2999H53.2662Z" fill="#2B2B26"/>
<path d="M75.8317 20.2475C75.5069 19.7079 74.8117 19.5319 74.2704 19.8556L63.472 26.296C62.9307 26.6197 62.754 27.3183 63.0788 27.8522C63.2953 28.21 63.6714 28.4031 64.0589 28.4031C64.2583 28.4031 64.4578 28.352 64.6458 28.2441L75.4443 21.8036C75.9856 21.4799 76.1622 20.7813 75.8374 20.2475H75.8317Z" fill="#2B2B26"/>
<path d="M25.1719 17.8739C25.3827 18.2431 25.7645 18.4475 26.1634 18.4475C26.3514 18.4475 26.5452 18.4021 26.7219 18.2999C27.2689 17.9932 27.4627 17.2946 27.1493 16.7494L20.9437 5.83928C20.636 5.29406 19.9408 5.10096 19.3881 5.41332C18.841 5.72001 18.6473 6.41857 18.9607 6.96379L25.1662 17.8739H25.1719Z" fill="#2B2B26"/>
<path d="M15.9356 28.4089C16.3231 28.4089 16.6992 28.2102 16.9157 27.858C17.2405 27.3185 17.0639 26.6199 16.5226 26.3019L5.72411 19.8614C5.18277 19.5377 4.48187 19.7138 4.16276 20.2533C3.83796 20.7929 4.01464 21.4914 4.55599 21.8095L15.3544 28.2499C15.5367 28.3578 15.7419 28.4089 15.9413 28.4089H15.9356Z" fill="#2B2B26"/>
</svg>
