<svg width="80" height="80" viewBox="0 0 80 80" fill="none" xmlns="http://www.w3.org/2000/svg">
<path d="M78.9327 35.5395H74.0978C74.8716 33.4407 75.2612 31.2306 75.2292 29.0046C75.2292 28.7078 75.2131 28.4057 75.1971 28.1036C74.5888 17.5567 66.1197 9.14027 55.5 8.52547C49.4964 8.18097 43.4714 11.3557 40.0027 16.5656C36.5339 11.361 30.5143 8.18097 24.5053 8.52547C13.8856 9.13497 5.41659 17.5514 4.80823 28.0984C4.79222 28.4004 4.78151 28.6972 4.77618 28.9993C4.74416 31.2253 5.13365 33.4354 5.90211 35.5342H1.06731C0.480288 35.5342 0 36.0112 0 36.5942C0 37.1772 0.480288 37.6542 1.06731 37.6542H6.83067C7.6098 39.17 8.59174 40.6116 9.78179 41.926C9.79246 41.9419 9.80851 41.9525 9.82452 41.9684L39.2448 71.1873C39.4476 71.3887 39.7198 71.5 40.0027 71.5C40.2855 71.5 40.5576 71.3887 40.7551 71.1873L47.399 64.5888C49.603 68.4737 53.7922 71.1025 58.5897 71.1025C65.666 71.1025 71.4295 65.3838 71.4295 58.3507C71.4295 53.586 68.7825 49.4255 64.8709 47.2366L70.1755 41.9684C70.1755 41.9684 70.2021 41.9419 70.2181 41.926C71.4028 40.6116 72.3901 39.17 73.1692 37.6542H78.9327C79.5197 37.6542 80 37.1772 80 36.5942C80 36.0112 79.5197 35.5342 78.9327 35.5342V35.5395ZM6.90545 29.0417C6.90545 28.7714 6.92149 28.5012 6.9375 28.2309C7.47115 18.9135 15.2464 11.1914 24.6281 10.6508C30.4129 10.3222 36.203 13.7354 39.0528 19.1467C39.2342 19.4965 39.6024 19.7138 39.9973 19.7138C40.3922 19.7138 40.7605 19.4965 40.9419 19.1467C43.7916 13.7301 49.5764 10.3222 55.3666 10.6508C64.7482 11.1914 72.5182 18.9135 73.0572 28.2309C73.0732 28.5012 73.0839 28.7714 73.0892 29.0417C73.1212 31.2677 72.6782 33.4725 71.803 35.5448H57.9868L51.6043 25.0138C51.4122 24.6958 51.0653 24.4997 50.6918 24.4997C50.3182 24.4997 49.9712 24.6958 49.7791 25.0138L40.0027 41.1893L30.2261 25.0138C30.034 24.6958 29.6871 24.4997 29.3136 24.4997C28.94 24.4997 28.5932 24.6958 28.401 25.0138L22.0239 35.5448H8.20753C7.33234 33.4725 6.88946 31.2677 6.92147 29.0417H6.90545ZM69.2895 58.356C69.2895 64.2178 64.4866 68.9878 58.5844 68.9878C52.6822 68.9878 47.8848 64.2178 47.8848 58.356C47.8848 52.4942 52.6875 47.7242 58.5844 47.7242C64.4813 47.7242 69.2895 52.4942 69.2895 58.356ZM68.6438 40.495L62.7843 46.3091C61.4662 45.8533 60.0573 45.6042 58.5844 45.6042C51.5082 45.6042 45.7501 51.3229 45.7501 58.356C45.7501 59.8188 46.0009 61.218 46.4598 62.5271L39.9973 68.9454L11.3508 40.495C10.5503 39.6046 9.85651 38.6506 9.26416 37.6595H22.6162C22.9897 37.6595 23.3366 37.4634 23.5287 37.1454L29.3029 27.616L39.0848 43.7916C39.2769 44.1096 39.6238 44.3057 39.9973 44.3057C40.3709 44.3057 40.7177 44.1096 40.9099 43.7916L50.6918 27.616L56.4658 37.1454C56.6579 37.4634 57.0049 37.6595 57.3785 37.6595H70.725C70.1327 38.6559 69.439 39.6046 68.6385 40.495H68.6438Z" fill="#2B2B26"/>
<path d="M54.1453 57.0365C53.8411 56.5383 53.1847 56.3793 52.6777 56.6814C52.1761 56.9888 52.0159 57.6407 52.3201 58.1389L55.33 63.0361C55.4954 63.3117 55.7835 63.4919 56.1037 63.5343C56.1518 63.5396 56.1945 63.5449 56.2425 63.5449C56.5147 63.5449 56.7762 63.4389 56.979 63.2534L65.5921 55.1179C66.019 54.7151 66.0351 54.042 65.6295 53.618C65.2239 53.194 64.5461 53.1781 64.1192 53.5809L56.4666 60.8154L54.1453 57.0365Z" fill="#2B2B26"/>
</svg>
