<svg width="80" height="80" viewBox="0 0 80 80" fill="none" xmlns="http://www.w3.org/2000/svg">
<path d="M39.9972 80C39.8847 80 39.7723 79.983 39.6655 79.949C24.9789 75.3746 17.6975 66.4862 14.1721 59.834C10.343 52.6101 10.0112 46.5241 10 46.2693V14.1917C10 13.569 10.5004 13.0595 11.1245 13.0595C25.6761 13.0595 39.0919 0.434513 39.2269 0.309962C39.6598 -0.103321 40.3402 -0.103321 40.7731 0.309962C40.9081 0.440175 54.3407 13.0595 68.8755 13.0595C69.494 13.0595 70 13.569 70 14.1917V46.2127C69.9888 46.5241 69.657 52.6101 65.8279 59.834C62.3025 66.4862 55.0211 75.3746 40.3345 79.949C40.2277 79.983 40.1153 80 40.0028 80H39.9972ZM12.2491 15.3014V46.2127C12.2491 46.2127 12.5864 52.0722 16.2075 58.8603C21.0037 67.8506 29.0048 74.1801 39.9972 77.6788C66.3396 69.2829 67.7397 46.3882 67.7509 46.1561V15.2957C54.65 14.7749 43.0672 5.35428 39.9972 2.64813C36.9272 5.35428 25.3444 14.7749 12.2491 15.2957V15.3014Z" fill="#2B2B26"/>
<path d="M39.9979 60.6159C28.5332 60.6159 19.2051 51.2237 19.2051 39.68C19.2051 28.1364 28.5332 18.7441 39.9979 18.7441C51.4626 18.7441 60.7907 28.1364 60.7907 39.68C60.7907 51.2237 51.4626 60.6159 39.9979 60.6159ZM39.9979 21.0087C29.7702 21.0087 21.4542 29.3819 21.4542 39.68C21.4542 49.9781 29.7702 58.3514 39.9979 58.3514C50.2256 58.3514 58.5416 49.9781 58.5416 39.68C58.5416 29.3819 50.2256 21.0087 39.9979 21.0087Z" fill="#2B2B26"/>
<path d="M42.1559 50.4367H37.832C37.2135 50.4367 36.7075 49.9272 36.7075 49.3044V43.0655H30.5113C29.8928 43.0655 29.3867 42.556 29.3867 41.9332V37.5796C29.3867 36.9569 29.8928 36.4473 30.5113 36.4473H36.7075V30.2085C36.7075 29.5857 37.2135 29.0762 37.832 29.0762H42.1559C42.7744 29.0762 43.2804 29.5857 43.2804 30.2085V36.4473H49.4767C50.0952 36.4473 50.6012 36.9569 50.6012 37.5796V41.9332C50.6012 42.556 50.0952 43.0655 49.4767 43.0655H43.2804V49.3044C43.2804 49.9272 42.7744 50.4367 42.1559 50.4367ZM38.9566 48.1721H41.0314V41.9332C41.0314 41.3105 41.5374 40.801 42.1559 40.801H48.3521V38.7119H42.1559C41.5374 38.7119 41.0314 38.2024 41.0314 37.5796V31.3407H38.9566V37.5796C38.9566 38.2024 38.4505 38.7119 37.832 38.7119H31.6358V40.801H37.832C38.4505 40.801 38.9566 41.3105 38.9566 41.9332V48.1721Z" fill="#2B2B26"/>
</svg>
