<svg width="80" height="80" viewBox="0 0 80 80" fill="none" xmlns="http://www.w3.org/2000/svg">
<path d="M8.06589 19.4701C8.21045 19.7125 8.46226 19.8711 8.74204 19.9084C8.78401 19.9131 8.82131 19.9177 8.86328 19.9177C9.1011 19.9177 9.32959 19.8245 9.50679 19.6612L16.7486 12.7692C17.1216 12.4148 17.1356 11.8226 16.7812 11.4495C16.4268 11.0765 15.8346 11.0625 15.4616 11.4169L9.05447 17.5116L7.12395 14.35C6.85349 13.9117 6.2846 13.7718 5.8416 14.0376C5.40327 14.308 5.26338 14.8816 5.52918 15.3199L8.06123 19.4701H8.06589Z" fill="#2B2B26"/>
<path d="M31.3174 30.6723C30.2403 30.1034 29.345 29.5392 28.5895 28.989C28.5802 28.9843 28.5709 28.975 28.5662 28.9703C24.1736 25.7481 24.8777 23.0155 24.915 22.8943C25.0736 22.4047 24.8031 21.8777 24.3135 21.7192C23.8239 21.5607 23.2969 21.8311 23.1384 22.3207C23.0824 22.4933 22.1078 25.7528 26.202 29.4413C24.7798 30.192 23.5674 31.4511 22.6021 32.7521C21.3478 32.5795 20.4105 32.1039 19.8229 31.3391C18.7038 29.8796 19.0955 27.7626 19.0955 27.7392C19.1934 27.2356 18.867 26.746 18.3634 26.6434C17.8598 26.5408 17.3655 26.8719 17.2676 27.3755C17.2489 27.4641 16.9365 29.1149 17.496 30.8402C15.2904 31.148 13.5044 29.2268 13.4158 29.1242C13.0708 28.7418 12.4832 28.7092 12.1009 29.0542C11.7185 29.3993 11.6858 29.9869 12.0262 30.3692C12.1335 30.4858 14.1946 32.7474 17.0111 32.7474C17.4587 32.7474 17.9297 32.6821 18.4147 32.5515C19.1561 33.4748 20.1773 34.1044 21.4783 34.4308C20.555 35.9649 20.0374 37.2426 19.9861 37.3685C19.7949 37.8442 20.0281 38.3897 20.5037 38.5809C20.6157 38.6276 20.7369 38.6462 20.8488 38.6462C21.2172 38.6462 21.5669 38.427 21.7161 38.0633C22.4296 36.2867 24.887 31.6656 27.8807 30.7609C28.6222 31.2785 29.4709 31.8008 30.4501 32.3184C38.1675 36.3846 38.5732 44.3958 38.5872 44.6989V74.4262C38.5872 74.9391 39.0069 75.3588 39.5198 75.3588C40.0328 75.3588 40.4524 74.9391 40.4524 74.4262V44.6663C40.4384 44.2839 40.0141 35.2468 31.3174 30.6677V30.6723Z" fill="#2B2B26"/>
<path d="M63.7953 10.3864C59.1696 9.63562 55.7002 10.4563 53.4853 12.8345C49.461 17.1479 51.233 24.9072 51.3076 25.2383C51.4242 25.7419 51.9278 26.0497 52.4314 25.9331C52.935 25.8165 53.2428 25.3129 53.1262 24.814C53.1075 24.744 51.5034 17.7028 54.8515 14.1122C56.6142 12.219 59.524 11.5895 63.4969 12.233C77.7333 14.5459 78.1437 29.0993 78.1437 30.7501C78.1437 30.89 78.0411 44.6274 69.0506 50.3397C60.9975 55.4551 57.0432 53.0816 55.7142 51.8226C55.08 51.221 53.1868 48.5444 52.8231 44.9305C53.9982 45.3082 55.8075 45.7792 57.8126 45.8911C58.1577 48.703 60.2001 50.6428 60.298 50.7314C60.4799 50.8993 60.7037 50.9786 60.9322 50.9786C61.184 50.9786 61.4312 50.876 61.6177 50.6801C61.9674 50.3024 61.9441 49.7102 61.5664 49.3605C61.5477 49.3418 60.0229 47.9056 59.6872 45.8725C61.3426 45.7512 63.0306 45.3222 64.5321 44.3476C64.9658 44.0679 65.087 43.4896 64.8072 43.056C64.5274 42.6223 63.9492 42.5011 63.5156 42.7808C59.8737 45.145 54.5624 43.5736 52.7905 42.9394C52.907 41.2234 53.406 39.3675 54.5391 37.4649C54.8002 37.0219 54.6557 36.4484 54.2127 36.1872C53.7697 35.9261 53.1961 36.0707 52.935 36.509C48.1647 44.5202 52.9816 51.7993 54.4272 53.1702C55.3412 54.0329 57.2251 55.3432 60.2887 55.3432C62.7461 55.3432 65.9683 54.4992 70.0439 51.9065C79.8877 45.6533 79.9996 31.3516 79.9996 30.7454C79.9996 28.9315 79.5426 12.9464 63.786 10.3864H63.7953Z" fill="#4C4B40"/>
<path d="M54.941 32.3215C55.9203 31.8039 56.7689 31.2863 57.5104 30.7641C60.5041 31.6687 62.9569 36.2852 63.675 38.0665C63.8195 38.4302 64.1693 38.6493 64.5423 38.6493C64.6589 38.6493 64.7755 38.626 64.8874 38.5841C65.363 38.3929 65.5962 37.852 65.405 37.3717C65.3537 37.2458 64.8361 35.9681 63.9128 34.4339C65.2138 34.1075 66.235 33.478 66.9764 32.5547C67.4567 32.6899 67.9277 32.7505 68.38 32.7505C71.1965 32.7505 73.2576 30.4889 73.3649 30.3724C73.7053 29.99 73.6773 29.4024 73.2949 29.0574C72.9126 28.7123 72.325 28.745 71.9799 29.1227C71.896 29.2159 70.1054 31.1464 67.8951 30.8387C68.4546 29.1133 68.1422 27.4626 68.1236 27.374C68.021 26.8704 67.536 26.5393 67.0277 26.6419C66.5241 26.7445 66.193 27.2341 66.2956 27.7377C66.2956 27.7564 66.6827 29.8734 65.5775 31.3236C64.99 32.093 64.0527 32.5687 62.7937 32.7459C61.8284 31.4495 60.616 30.1905 59.1938 29.4351C63.2879 25.7466 62.3134 22.4824 62.2574 22.3145C62.1035 21.8296 61.5859 21.5685 61.101 21.7177C60.616 21.8669 60.3409 22.3845 60.4761 22.8741C60.5134 23.0094 61.2175 25.7419 56.8296 28.9641C56.8202 28.9688 56.8109 28.9781 56.8016 28.9828C56.0508 29.533 55.1555 30.0972 54.0783 30.6615C45.3817 35.2406 44.9573 44.2777 44.9434 44.6927V74.42C44.9434 74.9329 45.363 75.3526 45.876 75.3526C46.3889 75.3526 46.8086 74.9329 46.8086 74.42V44.73C46.8226 44.3896 47.2283 36.3784 54.9457 32.3122L54.941 32.3215Z" fill="#4C4B40"/>
<path d="M31.1681 36.1837C30.7251 36.4448 30.5805 37.0184 30.8417 37.4614C31.9748 39.3639 32.4784 41.2198 32.5903 42.9359C30.8137 43.57 25.5024 45.1415 21.8652 42.7773C21.4316 42.4975 20.858 42.6188 20.5735 43.0524C20.2938 43.4861 20.415 44.0643 20.8487 44.3441C22.3502 45.3187 24.0382 45.7477 25.6936 45.8689C25.3579 47.8881 23.833 49.3429 23.8144 49.3569C23.4367 49.7067 23.418 50.2942 23.7678 50.6719C23.9496 50.8678 24.2014 50.9704 24.4532 50.9704C24.6817 50.9704 24.9056 50.8864 25.0874 50.7232C25.1853 50.6346 27.2278 48.6994 27.5728 45.8829C29.5733 45.771 31.3872 45.3047 32.5623 44.9223C32.1986 48.5362 30.3054 51.2128 29.6712 51.8144C28.3422 53.0734 24.3879 55.4469 16.3348 50.3315C7.34436 44.6192 7.24177 30.8818 7.24177 30.7419C7.24177 30.2056 7.2884 28.2984 7.83865 25.8923C8.78992 26.1674 9.79248 26.3166 10.8324 26.3166C16.8058 26.3166 21.6647 21.4577 21.6647 15.4843C21.6647 14.3978 21.5015 13.3486 21.2031 12.3553C21.4316 12.3087 21.6554 12.2621 21.8932 12.2201C25.8615 11.5766 28.7712 12.2061 30.5339 14.0947C33.8773 17.6759 32.2779 24.7312 32.2639 24.8011C32.1473 25.3047 32.4598 25.8037 32.9587 25.9202C33.4576 26.0368 33.9613 25.7291 34.0778 25.2254C34.1571 24.899 35.9244 17.135 31.9002 12.8216C29.6852 10.4481 26.2159 9.62276 21.5901 10.3735C21.2124 10.4341 20.8487 10.5087 20.4896 10.5834C18.699 7.06272 15.0431 4.64258 10.8324 4.64258C4.85894 4.64258 0 9.50151 0 15.4749C0 19.7463 2.48543 23.4441 6.08067 25.2068C5.42783 27.9394 5.37654 30.1264 5.37654 30.7326C5.37654 31.3388 5.48845 45.6404 15.3322 51.8936C19.4124 54.4863 22.63 55.3303 25.0874 55.3303C28.1511 55.3303 30.0349 54.0247 30.9489 53.1573C32.3945 51.7864 37.2114 44.5073 32.4411 36.4961C32.1753 36.0531 31.6064 35.9086 31.1634 36.1744L31.1681 36.1837ZM1.86524 15.4889C1.86524 10.546 5.88481 6.5218 10.8324 6.5218C14.1711 6.5218 17.0856 8.36372 18.629 11.0776C18.7783 11.3434 18.9181 11.6139 19.0394 11.8937C19.0394 11.903 19.0487 11.9077 19.0534 11.917C19.1793 12.1968 19.2865 12.4906 19.3798 12.7843C19.6503 13.6377 19.7995 14.5423 19.7995 15.4843C19.7995 20.4271 15.7799 24.4514 10.8324 24.4514C9.96035 24.4514 9.121 24.3208 8.32827 24.0877C8.02984 23.9991 7.73606 23.8965 7.44695 23.7799C7.44695 23.7799 7.44229 23.7799 7.43762 23.7799C7.14851 23.6633 6.86873 23.5327 6.59361 23.3835C3.78176 21.868 1.86524 18.8976 1.86524 15.4843V15.4889Z" fill="#4C4B40"/>
</svg>
