<svg width="80" height="80" viewBox="0 0 80 80" fill="none" xmlns="http://www.w3.org/2000/svg">
<path d="M72.1602 57.7046C71.8343 57.6421 71.4397 57.5966 70.9765 57.5455C67.5569 57.1647 60.4376 56.3748 59.597 45.793L59.5741 45.5088C59.351 42.6105 58.8365 35.8477 50.8021 35.8477C50.7564 35.8477 50.7164 35.8477 50.6706 35.8477H29.3295C29.2895 35.8477 29.2495 35.8477 29.2095 35.8477C21.644 35.8477 20.7061 43.2867 20.3973 45.7418C19.0592 56.3634 12.2314 57.1647 8.94909 57.5455C8.52021 57.5966 8.14854 57.6421 7.83403 57.6989C6.57598 57.9376 2.74469 58.6593 3.01346 63.3024C3.14498 65.5415 4.11135 68.275 7.97126 68.599C8.65175 68.6558 9.36082 68.6672 10.0985 68.6274C9.3265 69.9231 8.85767 71.6621 9.03495 73.958C9.04638 74.1115 9.29225 77.1235 11.8712 78.9932C12.7976 79.6638 13.9355 79.9877 15.0792 79.9877H29.6326C29.7355 79.9934 29.8328 79.9991 29.9185 79.9991C30.0386 79.9991 30.1358 79.9991 30.2045 79.9877H49.5497C49.6126 79.9877 49.7098 79.9991 49.8356 79.9991C49.9214 79.9991 50.0186 79.9991 50.1215 79.9877H64.6692C65.8186 79.9877 66.9508 79.6638 67.8772 78.9932C70.4562 77.1235 70.702 74.1115 70.7135 73.9637C70.8907 71.6564 70.4219 69.906 69.6385 68.6103C70.4677 68.6671 71.2682 68.6615 72.0287 68.599C75.8944 68.275 76.855 65.5415 76.9865 63.3024C77.2553 58.6536 73.424 57.9376 72.166 57.6989L72.1602 57.7046ZM11.3109 73.7932C11.0364 70.2357 12.6318 68.7126 13.907 68.0591C13.9642 68.0307 14.0213 68.0079 14.0842 67.9909H14.0956C14.9534 67.7635 15.8455 67.6953 16.7204 67.8147L49.4296 72.31C49.4296 72.31 49.4411 72.31 49.4525 72.31C49.5497 72.3213 51.7857 72.6168 51.7857 75.2254C51.7857 76.1858 51.5626 76.8734 51.1222 77.2713C50.5561 77.7884 49.7155 77.7202 49.7155 77.7202C49.6698 77.7202 49.6298 77.7145 49.584 77.7145H15.7997C13.6553 77.7145 11.7684 76.2313 11.3566 74.1399C11.3166 73.941 11.3051 73.8103 11.3051 73.7876L11.3109 73.7932ZM29.9928 67.343L19.3281 65.8768C23.7827 63.399 27.8713 59.1992 29.9928 53.0274V67.343ZM68.4261 73.8046C68.4261 73.8046 68.4148 73.9296 68.3805 74.1172C67.9802 76.2256 66.0816 77.7202 63.9258 77.7202H53.5755C53.9071 77.0269 54.0788 76.1972 54.0788 75.231C54.0788 71.5598 51.2481 70.247 49.7442 70.0595L48.0172 69.9061C48.0172 69.9061 62.2904 67.5646 64.5148 67.6101C64.6006 67.6101 64.7149 67.6499 64.8464 67.684C64.9951 67.7295 65.1495 67.7806 65.2982 67.8261C66.602 68.3034 68.7464 69.7128 68.4318 73.7989L68.4261 73.8046ZM50.0072 67.3089V53.0274C52.123 59.1708 56.1888 63.3649 60.6206 65.8484L50.0072 67.3089ZM74.6992 63.1773C74.5505 65.7574 73.2181 66.1155 71.8343 66.3371C69.0208 66.7861 65.5612 65.5131 65.2696 65.4449C58.8135 63.291 52.0888 57.3352 50.9451 46.6738C50.8822 46.0998 50.3904 45.6736 49.8129 45.6736H48.8692C48.5662 45.6736 48.2746 45.793 48.063 46.0032C47.8457 46.2192 47.7256 46.5033 47.7256 46.8102V67.6272L46.662 67.7749H33.0979L32.2859 67.6612V46.8045C32.2859 46.5033 32.1658 46.2135 31.9485 45.9975C31.7312 45.7873 31.4453 45.6679 31.1422 45.6679H30.193C29.604 45.6679 29.1237 46.1169 29.0608 46.6966C27.9285 57.1647 21.421 63.0978 15.0679 65.3369C12.8892 66.303 9.69255 66.4621 8.17146 66.3371C6.77045 66.2178 5.45522 65.7574 5.30654 63.1773C5.16358 60.7223 6.56455 60.2563 8.26863 59.938C8.52024 59.8925 8.84615 59.8528 9.22928 59.8073C12.7861 59.3924 21.1236 58.415 22.679 46.026C23.1707 42.116 24.3373 38.1209 29.2379 38.1209C29.2665 38.1209 29.3009 38.1209 29.3295 38.1209H50.6934C56.2631 38.0754 57.0122 41.8262 57.3096 45.685L57.3325 45.9748C58.3218 58.4263 67.3396 59.4265 70.7364 59.8073C71.1481 59.8528 71.5084 59.8925 71.7485 59.938C73.4526 60.2563 74.8536 60.7223 74.7106 63.1773H74.6992Z" fill="#2B2B26"/>
<path d="M29.1582 22.7946C29.1582 28.739 34.0245 33.5696 40.0003 33.5696C45.976 33.5696 50.8423 28.7333 50.8423 22.7946C50.8423 16.8558 45.976 12.0195 40.0003 12.0195C34.0245 12.0195 29.1582 16.8558 29.1582 22.7946ZM40.0003 14.2871C44.7179 14.2871 48.555 18.1004 48.555 22.7889C48.555 27.4774 44.7179 31.2907 40.0003 31.2907C35.2826 31.2907 31.4456 27.4774 31.4456 22.7889C31.4456 18.1004 35.2826 14.2871 40.0003 14.2871Z" fill="#2B2B26"/>
<path d="M25.0128 6.00696H27.6262V8.6041C27.6262 9.22924 28.1408 9.74071 28.7698 9.74071C29.3989 9.74071 29.9135 9.22924 29.9135 8.6041V6.00696H32.5267C33.1558 6.00696 33.6704 5.49549 33.6704 4.87035C33.6704 4.24522 33.1558 3.73375 32.5267 3.73375H29.9135V1.13661C29.9135 0.511473 29.3989 0 28.7698 0C28.1408 0 27.6262 0.511473 27.6262 1.13661V3.73375H25.0128C24.3838 3.73375 23.8691 4.24522 23.8691 4.87035C23.8691 5.49549 24.3838 6.00696 25.0128 6.00696Z" fill="#2B2B26"/>
<path d="M11.4074 33.5695H14.0207V36.1666C14.0207 36.7917 14.5354 37.3032 15.1644 37.3032C15.7934 37.3032 16.3081 36.7917 16.3081 36.1666V33.5695H18.9214C19.5504 33.5695 20.0651 33.058 20.0651 32.4329C20.0651 31.8077 19.5504 31.2962 18.9214 31.2962H16.3081V28.6991C16.3081 28.074 15.7934 27.5625 15.1644 27.5625C14.5354 27.5625 14.0207 28.074 14.0207 28.6991V31.2962H11.4074C10.7783 31.2962 10.2637 31.8077 10.2637 32.4329C10.2637 33.058 10.7783 33.5695 11.4074 33.5695Z" fill="#2B2B26"/>
<path d="M59.173 30.2335H61.7863V32.8307C61.7863 33.4558 62.301 33.9673 62.93 33.9673C63.559 33.9673 64.0737 33.4558 64.0737 32.8307V30.2335H66.6869C67.3159 30.2335 67.8306 29.7221 67.8306 29.0969C67.8306 28.4718 67.3159 27.9603 66.6869 27.9603H64.0737V25.3632C64.0737 24.738 63.559 24.2266 62.93 24.2266C62.301 24.2266 61.7863 24.738 61.7863 25.3632V27.9603H59.173C58.544 27.9603 58.0293 28.4718 58.0293 29.0969C58.0293 29.7221 58.544 30.2335 59.173 30.2335Z" fill="#2B2B26"/>
</svg>
