<svg width="80" height="80" viewBox="0 0 80 80" fill="none" xmlns="http://www.w3.org/2000/svg">
<path d="M62.1198 27.8804C61.0092 18.935 56.6277 13.3103 48.8039 10.8792C48.8316 10.7853 48.8482 10.6858 48.8482 10.5864C48.8482 4.75171 44.102 0 38.2618 0C32.4216 0 27.6754 4.74619 27.6754 10.5864C27.6754 10.6913 27.692 10.7853 27.7196 10.8792C19.8959 13.3103 15.5088 18.935 14.4038 27.8804C13.5032 35.1516 15.4094 41.8537 19.7633 46.8099C19.7909 47.3955 19.8185 47.9757 19.8572 48.5558C20.1666 52.7826 21.8021 56.7332 24.4542 59.6782C27.9738 63.5845 33.0017 65.8222 38.2563 65.8222C43.5108 65.8222 48.5443 63.5845 52.0583 59.6782C54.7104 56.7332 56.3459 52.7826 56.6553 48.5558C56.6995 47.9757 56.7271 47.39 56.7492 46.8043C61.1031 41.8482 63.0149 35.1461 62.1087 27.8749L62.1198 27.8804ZM38.2618 2.2101C42.787 2.2101 46.4723 5.81808 46.6215 10.3046C44.1351 9.75758 41.3504 9.48132 38.2618 9.48132C35.1732 9.48132 32.3884 9.75758 29.9021 10.3046C30.0513 5.81808 33.7421 2.2101 38.2618 2.2101ZM50.4229 58.2029C47.3232 61.6451 42.8919 63.6176 38.2618 63.6176C33.6316 63.6176 29.2004 61.6451 26.1007 58.2029C23.7746 55.6171 22.338 52.1362 22.0618 48.3956C21.9513 46.8596 21.8905 45.2959 21.8905 43.7544V38.9253H34.488C34.488 38.9253 34.5322 38.9253 34.5599 38.9253C34.6206 38.9253 38.7701 38.6049 41.7537 35.1737C44.2843 38.3452 48.8537 38.8922 49.0747 38.9198C49.1134 38.9198 49.1576 38.9253 49.1962 38.9253H54.6276V43.7489C54.6276 45.2959 54.5723 46.8596 54.4563 48.3956C54.18 52.1362 52.749 55.6171 50.4229 58.2029ZM56.8377 43.0637V37.8203C56.8377 37.2125 56.3404 36.7152 55.7326 36.7152H49.2681C48.7597 36.6434 44.776 36.0025 43.0964 33.2454C43.8368 31.8917 44.4003 30.2176 44.6379 28.1456C44.7097 27.5378 44.2732 26.9908 43.6655 26.9245C43.0577 26.8582 42.5107 27.2892 42.4389 27.897C42.2123 29.8695 41.6488 31.4055 40.9194 32.5934C40.8973 32.621 40.8808 32.6542 40.8587 32.6873C38.6099 36.2677 34.8527 36.6876 34.4383 36.7208H20.7799C20.1721 36.7208 19.6749 37.218 19.6749 37.8258V43.0693C16.3045 37.9087 16.0779 32.2564 16.5862 28.1566C17.9786 16.9238 24.8631 11.6969 38.2507 11.6969C51.6384 11.6969 58.5229 16.9293 59.9152 28.1566C60.4235 32.2508 60.197 37.9087 56.8266 43.0693L56.8377 43.0637Z" fill="#2B2B26"/>
<path d="M42.733 51.6999C42.2247 51.3574 41.5396 51.49 41.197 51.9983C40.534 52.9763 39.4345 53.5619 38.2576 53.5619C37.0807 53.5619 35.9812 52.9818 35.3181 52.0038C34.9756 51.501 34.2904 51.3684 33.7821 51.711C33.2793 52.0535 33.1467 52.7387 33.4893 53.247C34.5612 54.8327 36.3458 55.7776 38.2576 55.7776C40.1693 55.7776 41.9595 54.8272 43.0314 53.2415C43.374 52.7332 43.2413 52.048 42.733 51.7055V51.6999Z" fill="#2B2B26"/>
<path d="M15.2828 59.8985C9.61392 59.8985 9.31003 53.1522 9.29898 52.8649C9.2824 52.2681 8.79065 51.793 8.19393 51.793C7.5972 51.793 7.11098 52.2681 7.08888 52.8649C7.07783 53.1522 6.80157 59.8985 1.10505 59.8985C0.497272 59.8985 0 60.3958 0 61.0035C0 61.6113 0.497272 62.1086 1.10505 62.1086C6.77395 62.1086 7.08335 68.8549 7.08888 69.1422C7.10545 69.739 7.5972 70.2141 8.19393 70.2141C8.79065 70.2141 9.27688 69.739 9.29898 69.1422C9.31003 68.8549 9.5863 62.1086 15.2828 62.1086C15.8906 62.1086 16.3879 61.6113 16.3879 61.0035C16.3879 60.3958 15.8906 59.8985 15.2828 59.8985ZM8.19393 64.5176C7.553 63.1584 6.59161 61.871 5.20477 61.0035C6.59161 60.1361 7.553 58.8487 8.19393 57.4895C8.83486 58.8487 9.79625 60.1361 11.1831 61.0035C9.79625 61.871 8.83486 63.1584 8.19393 64.5176Z" fill="#4C4B40"/>
<path d="M78.8946 38.6886C74.6568 38.6886 74.4247 33.5888 74.4136 33.3789C74.3971 32.7822 73.9053 32.3125 73.3141 32.3125C72.7174 32.3125 72.2312 32.7822 72.2091 33.3789C72.2036 33.5944 71.966 38.6942 67.7281 38.6942C67.1203 38.6942 66.623 39.1914 66.623 39.7992C66.623 40.407 67.1203 40.9043 67.7281 40.9043C71.966 40.9043 72.198 46.0041 72.2091 46.214C72.2257 46.8107 72.7174 47.2804 73.3086 47.2804C73.9053 47.2804 74.3915 46.8107 74.4136 46.214C74.4192 45.9985 74.6568 40.8987 78.8946 40.8987C79.5024 40.8987 79.9997 40.4015 79.9997 39.7937C79.9997 39.1859 79.5024 38.6886 78.8946 38.6886ZM73.3086 42.0369C72.8445 41.186 72.2201 40.3904 71.3803 39.7882C72.2146 39.1859 72.8445 38.3958 73.3086 37.5394C73.7727 38.3903 74.3971 39.1859 75.2369 39.7882C74.4026 40.3904 73.7727 41.1805 73.3086 42.0369Z" fill="#4C4B40"/>
</svg>
