<svg width="80" height="80" viewBox="0 0 80 80" fill="none" xmlns="http://www.w3.org/2000/svg">
<path d="M27.3624 33.0087H19.1302L28.2993 21.8111C28.5955 21.4479 28.6559 20.9516 28.4565 20.5279C28.257 20.1042 27.8339 19.8379 27.3624 19.8379H16.5735C15.9087 19.8379 15.3647 20.3826 15.3647 21.0484C15.3647 21.7142 15.9087 22.259 16.5735 22.259H24.8057L15.6366 33.4566C15.3405 33.8198 15.28 34.3161 15.4795 34.7398C15.6789 35.1635 16.1021 35.4298 16.5735 35.4298H27.3624C28.0273 35.4298 28.5713 34.885 28.5713 34.2192C28.5713 33.5534 28.0273 33.0087 27.3624 33.0087Z" fill="#2B2B26"/>
<path d="M45.3859 26.4169H37.1537L46.3227 15.2193C46.6188 14.8561 46.6793 14.3598 46.4798 13.9361C46.2804 13.5124 45.8573 13.2461 45.3859 13.2461H34.5969C33.932 13.2461 33.388 13.7908 33.388 14.4566C33.388 15.1224 33.932 15.6672 34.5969 15.6672H42.8291L33.6601 26.8648C33.3639 27.228 33.3035 27.7243 33.5029 28.148C33.7024 28.5717 34.1254 28.838 34.5969 28.838H45.3859C46.0507 28.838 46.5947 28.2932 46.5947 27.6274C46.5947 26.9616 46.0507 26.4169 45.3859 26.4169Z" fill="#2B2B26"/>
<path d="M40.5196 51.2148C39.8547 51.2148 39.3107 51.7596 39.3107 52.4254V58.7324L33.6775 65.3238C33.2424 65.8323 33.3028 66.5949 33.8105 67.0307C34.0402 67.2244 34.3182 67.3212 34.5962 67.3212C34.9347 67.3212 35.2732 67.176 35.5149 66.8975L41.4383 59.9671C41.6257 59.7492 41.7284 59.4708 41.7284 59.1803V52.4254C41.7284 51.7596 41.1844 51.2148 40.5196 51.2148Z" fill="#2B2B26"/>
<path d="M77.3592 49.1999C77.2021 49.0304 77.0449 48.8549 76.8877 48.6733C75.8179 47.4567 75.0685 46.2098 74.6575 44.963C74.3794 44.1035 74.4096 43.3832 74.4519 42.4692C74.47 42.1121 74.4882 41.7429 74.4882 41.3555V18.8029C74.4882 18.4156 74.47 18.0464 74.4519 17.6892C74.4096 16.7753 74.3734 16.0489 74.6575 15.1955C75.0624 13.9486 75.8179 12.7018 76.8877 11.4852C77.0449 11.3096 77.2021 11.1341 77.3592 10.9646C78.3928 9.8267 79.4627 8.64642 79.8495 6.81848C80.3149 4.61528 79.6379 2.67235 78.006 1.48601C75.5883 -0.257189 72.6086 0.311769 69.1513 3.18683C68.9881 3.31999 68.8309 3.4592 68.6859 3.58631C66.4495 5.5353 63.8806 6.52795 61.052 6.52795H18.948C16.1133 6.52795 13.5445 5.54135 11.3142 3.59236C11.1631 3.4592 11.0059 3.32604 10.8427 3.19288C7.38545 0.317823 4.40564 -0.257192 1.98796 1.49205C0.34998 2.67234 -0.320956 4.61528 0.144448 6.82454C0.531277 8.65247 1.6011 9.83276 2.63466 10.9707C2.79181 11.1402 2.94898 11.3157 3.10612 11.4912C4.17595 12.7078 4.92547 13.9547 5.33648 15.2016C5.61451 16.061 5.58427 16.7813 5.54196 17.6953C5.52383 18.0524 5.50566 18.4216 5.50566 18.809V41.3616C5.50566 41.7489 5.52383 42.1182 5.54196 42.4753C5.58427 43.3893 5.62055 44.1156 5.33648 44.969C4.93151 46.2098 4.18199 47.4628 3.10612 48.6794C2.94898 48.8549 2.79181 49.0304 2.63466 49.2059C1.6011 50.3439 0.531277 51.5242 0.144448 53.3521C-0.320956 55.5553 0.34998 57.4982 1.98796 58.6846C2.90064 59.3443 3.89191 59.6712 4.95569 59.6712C6.7206 59.6712 8.68496 58.7754 10.8427 56.9777C11.0059 56.8445 11.1571 56.7114 11.3082 56.5782C13.5445 54.6292 16.1133 53.6366 18.942 53.6366H21.0091C20.5074 55.3979 20.2354 57.2561 20.2354 59.1809C20.2354 70.3845 29.338 79.5 40.5258 79.5C51.7137 79.5 60.8162 70.3845 60.8162 59.1809C60.8162 57.2622 60.5443 55.404 60.0426 53.6366H61.052C63.8867 53.6366 66.4556 54.6232 68.6859 56.5722C68.837 56.7053 68.994 56.8385 69.1572 56.9716C72.6145 59.8467 75.5944 60.4217 78.012 58.6725C79.65 57.4922 80.321 55.5492 79.8556 53.34C79.4687 51.5121 78.3988 50.3318 77.3653 49.1938L77.3592 49.1999ZM41.7286 77.0244V72.9328C41.7286 72.267 41.1847 71.7222 40.5198 71.7222C39.8549 71.7222 39.311 72.267 39.311 72.9328V77.0244C30.4199 76.4252 23.2938 69.289 22.6954 60.3854H26.7813C27.4462 60.3854 27.9902 59.8406 27.9902 59.1748C27.9902 58.509 27.4462 57.9643 26.7813 57.9643H22.6954C23.2938 49.0607 30.4199 41.9245 39.311 41.3253V45.4169C39.311 46.0827 39.8549 46.6275 40.5198 46.6275C41.1847 46.6275 41.7286 46.0827 41.7286 45.4169V41.3253C50.6197 41.9245 57.7458 49.0607 58.3442 57.9643H54.2583C53.5934 57.9643 53.0494 58.509 53.0494 59.1748C53.0494 59.8406 53.5934 60.3854 54.2583 60.3854H58.3442C57.7458 69.289 50.6197 76.4252 41.7286 77.0244ZM76.5855 56.7114C75.6729 57.3711 74.0712 57.9219 70.6924 55.1074C70.5474 54.9863 70.4023 54.8653 70.2694 54.7442C67.622 52.4321 64.4307 51.2094 61.0459 51.2094H59.1843C56.0836 43.9522 48.885 38.8557 40.5198 38.8557C32.1546 38.8557 24.956 43.9522 21.8553 51.2094H18.942C15.5089 51.2094 12.4022 52.4018 9.71853 54.7442C9.57951 54.8653 9.44045 54.9863 9.29539 55.1074C5.91668 57.9159 4.31496 57.3651 3.40229 56.7114C2.32642 55.9366 2.32038 54.7261 2.50775 53.8424C2.75557 52.656 3.49298 51.851 4.41774 50.822C4.58094 50.6405 4.7441 50.4589 4.91334 50.2712C6.20075 48.8065 7.11342 47.2751 7.62718 45.7135C8.04423 44.4303 7.9959 43.3711 7.94754 42.3482C7.92941 42.0274 7.91737 41.6945 7.91737 41.3495V18.7969C7.91737 18.4458 7.93545 18.119 7.94754 17.7982C7.9959 16.7753 8.04423 15.716 7.62718 14.4329C7.11947 12.8773 6.2068 11.3399 4.91334 9.87513C4.75014 9.68749 4.58699 9.50591 4.42379 9.32433C3.49299 8.30141 2.76161 7.49034 2.50775 6.304C2.32038 5.42635 2.32642 4.2158 3.40229 3.43499C3.78307 3.15656 4.28474 2.90235 4.98587 2.90235C5.96503 2.90235 7.33102 3.39867 9.29539 5.03897C9.44045 5.16003 9.58556 5.28108 9.71853 5.40214C12.4082 7.75061 15.5089 8.93695 18.942 8.93695H61.0459C64.4307 8.93695 67.622 7.71429 70.2754 5.40214C70.4084 5.28108 70.5534 5.16003 70.6985 5.03897C74.0772 2.23049 75.6789 2.77524 76.5916 3.43499C77.6675 4.20974 77.6674 5.4203 77.4861 6.304C77.2383 7.49034 76.501 8.30141 75.5702 9.32433C75.407 9.50591 75.2437 9.68749 75.0805 9.87513C73.7931 11.3399 72.8805 12.8712 72.3667 14.4329C71.9496 15.716 71.998 16.7753 72.0463 17.7982C72.0645 18.119 72.0766 18.4519 72.0766 18.7969V41.3495C72.0766 41.7005 72.0584 42.0274 72.0463 42.3482C71.998 43.3711 71.9496 44.4303 72.3667 45.7135C72.8744 47.2751 73.7871 48.8065 75.0805 50.2712C75.2437 50.4589 75.407 50.6405 75.5762 50.822C76.507 51.845 77.2383 52.656 77.4861 53.8424C77.6735 54.72 77.6675 55.9366 76.5916 56.7114H76.5855Z" fill="#2B2B26"/>
</svg>
