<svg width="80" height="74" viewBox="0 0 80 74" fill="none" xmlns="http://www.w3.org/2000/svg">
<path d="M79.9949 55.3501V35.1051C79.9949 34.9941 79.9775 34.8831 79.9485 34.7779L72.429 8.6903C71.0924 -0.0153253 63.5497 -0.0211656 62.7826 0.00220518H51.6835C51.0443 0.00220518 50.5213 0.528048 50.5213 1.17075V12.5465C50.5213 15.8827 51.544 18.395 53.5547 20.0135C56.1231 22.0701 59.5923 22.0467 61.4286 21.8481C61.6901 24.302 62.033 30.2908 60.0282 35.4382C59.081 37.8746 58.5231 40.0247 58.2035 41.8184C58.0408 41.6314 57.8665 41.4562 57.6805 41.2867C54.0544 37.9213 47.7901 38.2544 47.116 38.3011H34.907C30.7463 38.3011 27.9047 39.4171 25.958 40.8661C23.2733 39.1834 20.1876 38.3011 16.9973 38.3011C7.6241 38.3011 0 45.9667 0 55.391C0 64.8153 7.6241 72.4809 16.9973 72.4809C19.1707 72.4809 21.1697 72.1128 23.0931 71.3474C29.7293 73.2463 35.5694 74 40.6599 74C57.7735 74 66.3913 65.4755 68.2508 63.3721C72.9055 63.2903 76.2643 62.1393 78.24 59.9542C80.0357 57.9618 80.0182 55.7883 79.9949 55.3501ZM76.4793 58.4292C74.8987 60.1353 71.8653 61.0409 67.7104 61.0409C67.3559 61.0409 67.0189 61.2045 66.7981 61.4849C66.6702 61.6485 53.4443 77.7744 23.3488 68.987C23.2442 68.9577 23.1338 68.9402 23.0234 68.9402C22.8665 68.9402 22.7154 68.9694 22.5701 69.0337C20.7977 69.7874 19.0254 70.138 16.9915 70.138C8.90253 70.138 2.3186 63.5182 2.3186 55.3852C2.3186 47.2521 8.90253 40.6323 16.9915 40.6323C19.5309 40.6323 21.9948 41.2809 24.1798 42.5195C22.2215 44.8274 21.8728 47.2229 21.867 47.2696C21.7856 47.9065 22.2273 48.4908 22.8607 48.5784C23.4941 48.6661 24.081 48.2162 24.1682 47.5852C24.2088 47.2989 25.2665 40.6323 34.8954 40.6323H47.1509C47.18 40.6323 47.2148 40.6323 47.2439 40.6323C47.302 40.6323 53.084 40.2 56.0941 42.9986C57.0529 43.8867 57.6108 44.9968 57.7967 46.3699C57.8083 47.1177 57.8665 47.5443 57.8781 47.5968C57.9652 48.2045 58.5115 48.6368 59.11 48.5959C59.7202 48.5492 60.1909 48.0409 60.1909 47.4332C60.1909 47.0243 60.1676 46.6328 60.127 46.2472C60.1095 44.5937 60.342 41.0238 62.1841 36.2971C65.0024 29.0638 63.6252 20.6737 63.5671 20.3231C63.5148 20.0076 63.3347 19.7272 63.0673 19.546C62.8 19.3649 62.4746 19.3065 62.1666 19.3766C62.1202 19.3883 57.7096 20.364 55.0016 18.1905C53.7929 17.2206 53.0956 15.7191 52.9038 13.7209H57.4481C57.4481 13.7209 57.5004 13.7209 57.5294 13.7209C57.9246 13.7209 58.9531 13.6274 59.8829 12.7627C60.9463 11.7752 61.4868 10.1743 61.4868 8.00086C61.4868 7.35816 60.9638 6.83232 60.3245 6.83232C59.6853 6.83232 59.1623 7.35816 59.1623 8.00086C59.1623 9.82378 58.7149 10.6418 58.343 11.0157C57.9652 11.3896 57.5527 11.3896 57.5643 11.3896C57.5294 11.3896 57.5004 11.3896 57.4655 11.3896H52.8341V2.35097H62.7826C62.7826 2.35097 62.8349 2.35097 62.8582 2.35097C63.108 2.33344 69.076 2.02962 70.1278 9.1285C70.1336 9.18108 70.1452 9.23367 70.1627 9.28041L77.6589 35.2804V55.3968C77.6589 55.3968 77.6589 55.467 77.6589 55.4962C77.6589 55.5604 77.7577 57.0386 76.4619 58.4409L76.4793 58.4292Z" fill="#2B2B26"/>
</svg>
