<svg width="334" height="132" viewBox="0 0 334 132" fill="none" xmlns="http://www.w3.org/2000/svg">
<g clip-path="url(#clip0_1174_41670)">
<path d="M157.548 80.9919C157.468 80.7912 157.368 80.6315 157.247 80.5127C157.126 80.3939 156.986 80.3023 156.826 80.2419C156.666 80.1816 156.496 80.1523 156.315 80.1523C156.053 80.1523 155.809 80.2264 155.579 80.3783C155.349 80.5283 155.173 80.7231 155.054 80.9627L146.431 98.9317C146.271 99.2726 146.17 99.5725 146.131 99.8316C146.09 100.091 146.141 100.311 146.281 100.492C146.422 100.671 146.642 100.821 146.943 100.942C147.442 101.162 147.828 101.213 148.099 101.092C148.371 100.971 148.614 100.683 148.835 100.221L151.221 95.1217H161.383L163.798 100.25C164.019 100.71 164.265 101.006 164.534 101.135C164.805 101.265 165.18 101.209 165.66 100.969C165.96 100.829 166.18 100.675 166.321 100.504C166.461 100.334 166.526 100.143 166.516 99.9329C166.506 99.7225 166.42 99.4674 166.26 99.1674L157.548 80.9899V80.9919ZM152.3 92.8096L156.285 84.2896L160.295 92.8096H152.3Z" fill="#291711"/>
<path d="M182.846 80.0445C182.666 79.9354 182.375 79.8789 181.974 79.8789C181.613 79.8789 181.338 79.9334 181.148 80.0445C180.957 80.1555 180.838 80.3094 180.787 80.51C180.737 80.7106 180.713 80.96 180.713 81.2599V88.9326C180.626 88.8176 180.538 88.7027 180.442 88.5936C179.88 87.9431 179.205 87.4386 178.413 87.0782C177.621 86.7178 176.735 86.5387 175.754 86.5387C174.853 86.5387 173.99 86.7178 173.171 87.0782C172.35 87.4386 171.634 87.9431 171.023 88.5936C170.413 89.2442 169.931 90.0078 169.581 90.8882C169.23 91.7687 169.055 92.729 169.055 93.7672C169.055 94.8054 169.23 95.8027 169.581 96.6909C169.931 97.5811 170.413 98.3563 171.023 99.0167C171.634 99.677 172.346 100.187 173.155 100.546C173.967 100.906 174.833 101.085 175.754 101.085C176.735 101.085 177.627 100.906 178.429 100.546C179.231 100.185 179.911 99.675 180.471 99.0167C180.555 98.9193 180.633 98.818 180.711 98.7147V100.037C180.752 100.417 180.865 100.688 181.057 100.848C181.246 101.007 181.562 101.087 182.003 101.087C182.403 101.087 182.693 101.033 182.875 100.922C183.054 100.811 183.175 100.651 183.236 100.442C183.296 100.232 183.326 99.9886 183.326 99.7082V81.2307C183.326 80.9502 183.29 80.7106 183.22 80.51C183.15 80.3094 183.025 80.1555 182.846 80.0445ZM180.005 96.2741C179.615 96.985 179.084 97.5382 178.413 97.9395C177.742 98.3388 176.987 98.5394 176.144 98.5394C175.301 98.5394 174.568 98.3388 173.875 97.9395C173.185 97.5402 172.644 96.985 172.252 96.2741C171.862 95.565 171.667 94.7489 171.667 93.8295C171.667 92.9101 171.862 92.0901 172.252 91.3693C172.642 90.6486 173.179 90.0896 173.86 89.6903C174.541 89.291 175.301 89.0903 176.142 89.0903C176.983 89.0903 177.74 89.2949 178.411 89.7059C179.082 90.1169 179.613 90.6759 180.003 91.3849C180.393 92.0959 180.588 92.9101 180.588 93.8295C180.588 94.7489 180.393 95.565 180.003 96.2741H180.005Z" fill="#291711"/>
<path d="M200.974 86.7495C200.805 86.6287 200.528 86.5703 200.147 86.5703C199.687 86.5703 199.351 86.6658 199.14 86.8547C198.93 87.0456 198.824 87.3592 198.824 87.7994L198.914 89.0597C198.573 88.6 198.179 88.1851 197.728 87.815C197.277 87.4449 196.741 87.1449 196.12 86.9151C195.5 86.6852 194.749 86.5703 193.867 86.5703C192.925 86.5703 192.039 86.7612 191.208 87.141C190.377 87.5209 189.64 88.0409 189 88.7013C188.358 89.3616 187.858 90.1252 187.497 90.9959C187.136 91.8666 186.957 92.7918 186.957 93.7716C186.957 94.7513 187.136 95.7116 187.497 96.5921C187.858 97.4725 188.354 98.2517 188.984 98.9315C189.614 99.6113 190.346 100.141 191.177 100.521C192.008 100.901 192.905 101.092 193.865 101.092C194.825 101.092 195.652 100.936 196.345 100.626C197.035 100.316 197.591 99.956 198.013 99.547C198.434 99.1379 198.744 98.7717 198.943 98.4523L198.822 99.9521C198.842 100.332 198.953 100.612 199.152 100.792C199.353 100.971 199.673 101.062 200.114 101.062C200.494 101.062 200.775 101.008 200.955 100.897C201.134 100.786 201.255 100.622 201.316 100.402C201.376 100.182 201.405 99.9327 201.405 99.6522V88.0741C201.405 87.7546 201.376 87.4839 201.316 87.2638C201.255 87.0436 201.14 86.8742 200.97 86.7534L200.974 86.7495ZM198.106 96.2434C197.707 96.9544 197.176 97.5173 196.515 97.938C195.853 98.3588 195.112 98.5672 194.29 98.5672C193.37 98.5672 192.552 98.3627 191.842 97.9517C191.13 97.5426 190.576 96.9816 190.174 96.2726C189.774 95.5636 189.573 94.7572 189.573 93.8573C189.573 92.9574 189.774 92.1178 190.174 91.3971C190.574 90.6764 191.12 90.1076 191.811 89.6869C192.501 89.2662 193.307 89.0577 194.23 89.0577C195.051 89.0577 195.797 89.2584 196.468 89.6577C197.139 90.057 197.679 90.6121 198.091 91.3231C198.501 92.0341 198.707 92.858 198.707 93.7988C198.707 94.7396 198.506 95.5344 198.106 96.2434Z" fill="#291711"/>
<path d="M217.756 88.5628C217.135 87.9142 216.423 87.4077 215.623 87.0474C214.821 86.687 213.951 86.5078 213.009 86.5078C212.067 86.5078 211.171 86.6831 210.379 87.0318C209.587 87.3824 208.906 87.883 208.337 88.5316C208.259 88.6212 208.184 88.7108 208.11 88.8043V87.5265C208.069 87.1662 207.944 86.9169 207.736 86.7766C207.525 86.6364 207.199 86.5662 206.76 86.5662C206.38 86.5662 206.093 86.6208 205.904 86.7318C205.713 86.8428 205.588 86.9967 205.527 87.1974C205.467 87.398 205.438 87.6376 205.438 87.9181V105.646C205.438 105.926 205.467 106.166 205.527 106.366C205.588 106.567 205.716 106.721 205.917 106.832C206.118 106.941 206.407 106.997 206.789 106.997C207.189 106.997 207.486 106.943 207.675 106.832C207.864 106.721 207.991 106.561 208.05 106.353C208.11 106.142 208.13 105.897 208.11 105.618V98.6566C208.179 98.7443 208.249 98.83 208.321 98.9138C208.881 99.5643 209.558 100.069 210.35 100.429C211.14 100.79 212.028 100.969 213.009 100.969C213.99 100.969 214.827 100.793 215.637 100.443C216.448 100.094 217.159 99.5974 217.769 98.9585C218.38 98.3177 218.86 97.558 219.211 96.6796C219.56 95.7991 219.738 94.8388 219.738 93.8006C219.738 92.7624 219.562 91.7904 219.211 90.8905C218.86 89.9906 218.374 89.2153 217.754 88.5667L217.756 88.5628ZM216.538 96.1965C216.148 96.9172 215.611 97.4821 214.931 97.8911C214.25 98.3021 213.489 98.5066 212.648 98.5066C211.807 98.5066 211.05 98.3021 210.379 97.8911C209.708 97.4821 209.177 96.9172 208.787 96.1965C208.397 95.4758 208.202 94.6557 208.202 93.7363C208.202 92.8169 208.397 92.0066 208.787 91.3073C209.177 90.6081 209.708 90.0568 210.379 89.6575C211.05 89.2582 211.807 89.0576 212.648 89.0576C213.489 89.0576 214.25 89.2524 214.931 89.6419C215.611 90.0315 216.148 90.5827 216.538 91.2918C216.928 92.0027 217.123 92.8169 217.123 93.7363C217.123 94.6557 216.928 95.4758 216.538 96.1965Z" fill="#291711"/>
<path d="M231.515 86.9446C231.314 86.8959 231.074 86.8706 230.793 86.8706L227.939 86.9115V82.9417C227.939 82.6827 227.91 82.4528 227.85 82.2522C227.789 82.0516 227.658 81.8977 227.459 81.7867C227.258 81.6776 226.968 81.6211 226.587 81.6211C226.207 81.6211 225.926 81.6756 225.746 81.7867C225.567 81.8977 225.446 82.0516 225.386 82.2522C225.325 82.4528 225.296 82.7022 225.296 83.0021V86.9173L223.733 86.9017C223.331 86.9017 223.042 87.0011 222.861 87.2017C222.682 87.4023 222.59 87.7218 222.59 88.162C222.59 88.6022 222.664 88.9528 222.816 89.1515C222.966 89.3522 223.251 89.4612 223.673 89.4807L225.296 89.4476V96.2281C225.296 97.128 225.385 97.8838 225.567 98.4935C225.746 99.1032 226.043 99.5979 226.453 99.9778C226.862 100.358 227.399 100.638 228.06 100.817C228.722 100.996 229.521 101.088 230.464 101.088C230.723 101.088 230.959 101.063 231.17 101.014C231.381 100.963 231.541 100.845 231.65 100.654C231.759 100.465 231.816 100.178 231.816 99.7986C231.816 99.4382 231.765 99.1694 231.665 98.9882C231.566 98.809 231.416 98.6883 231.215 98.6279C231.014 98.5675 230.754 98.5383 230.434 98.5383C229.974 98.5383 229.582 98.5188 229.262 98.4779C228.942 98.4389 228.686 98.3377 228.495 98.1779C228.304 98.0182 228.166 97.7825 228.074 97.4728C227.984 97.1631 227.939 96.7482 227.939 96.2281V89.4359L230.823 89.4788C231.104 89.4788 231.344 89.4496 231.545 89.3892C231.744 89.3288 231.894 89.2041 231.995 89.0132C232.095 88.8243 232.145 88.538 232.145 88.1581C232.145 87.7783 232.091 87.4939 231.98 87.303C231.868 87.1141 231.714 86.9933 231.513 86.9427L231.515 86.9446Z" fill="#291711"/>
<path d="M240.65 84.528C240.829 84.6487 241.081 84.6682 241.401 84.5883L246.118 82.9989C246.498 82.8781 246.744 82.7087 246.854 82.4885C246.963 82.2684 246.949 81.949 246.809 81.5282C246.688 81.1484 246.538 80.8932 246.358 80.7627C246.179 80.6322 245.937 80.5972 245.636 80.6576L240.829 82.2782C240.449 82.3989 240.213 82.5684 240.123 82.7885C240.033 83.0086 240.059 83.3281 240.197 83.7488C240.318 84.1481 240.468 84.4091 240.648 84.528H240.65Z" fill="#291711"/>
<path d="M245.86 87.3646C244.748 86.7159 243.502 86.3906 242.12 86.3906C241.098 86.3906 240.142 86.5854 239.251 86.975C238.359 87.3646 237.573 87.9002 236.892 88.58C236.211 89.2598 235.675 90.0448 235.284 90.935C234.894 91.8252 234.699 92.7894 234.699 93.8295C234.699 94.8697 234.904 95.8689 235.316 96.7688C235.725 97.6687 236.281 98.4537 236.984 99.1238C237.684 99.7939 238.48 100.32 239.372 100.698C240.263 101.078 241.2 101.268 242.181 101.268C243.162 101.268 244.064 101.083 244.945 100.713C245.827 100.343 246.608 99.8289 247.288 99.1686C247.969 98.5083 248.51 97.7233 248.912 96.8136C249.312 95.904 249.512 94.8989 249.512 93.7983C249.512 92.3978 249.183 91.1395 248.521 90.0195C247.86 88.8995 246.974 88.0151 245.862 87.3646H245.86ZM246.208 96.2897C245.767 97.0299 245.185 97.6103 244.465 98.0291C243.746 98.4479 242.963 98.6583 242.122 98.6583C241.282 98.6583 240.495 98.4537 239.764 98.0427C239.032 97.6337 238.447 97.063 238.006 96.3325C237.565 95.6021 237.345 94.7586 237.345 93.7983C237.345 92.838 237.559 92.0589 237.99 91.3382C238.422 90.6175 238.991 90.0487 239.703 89.628C240.413 89.2072 241.209 88.9988 242.091 88.9988C242.973 88.9988 243.833 89.1994 244.555 89.5987C245.277 90 245.843 90.559 246.252 91.2778C246.662 91.9985 246.869 92.8283 246.869 93.7672C246.869 94.706 246.649 95.5475 246.208 96.2877V96.2897Z" fill="#291711"/>
<path d="M265.704 86.6734C265.524 86.5643 265.253 86.5078 264.892 86.5078C264.432 86.5078 264.096 86.5877 263.885 86.7474C263.675 86.9071 263.56 87.1779 263.54 87.5577L263.546 88.8647C263.476 88.7634 263.405 88.6583 263.329 88.5628C262.828 87.9336 262.217 87.4486 261.497 87.1078C260.776 86.7669 259.966 86.5974 259.065 86.5974C258.163 86.5974 257.246 86.7727 256.437 87.1214C255.625 87.472 254.919 87.9668 254.318 88.6057C253.717 89.2465 253.251 89.9964 252.921 90.8554C252.592 91.7164 252.426 92.6553 252.426 93.6759C252.426 94.6966 252.592 95.6355 252.921 96.4965C253.251 97.3574 253.717 98.1073 254.318 98.7462C254.919 99.3871 255.625 99.8818 256.437 100.231C257.248 100.581 258.144 100.754 259.125 100.754C260.327 100.754 261.353 100.464 262.206 99.8838C262.746 99.5156 263.208 99.0501 263.595 98.4891L263.603 100.034C263.603 100.754 263.497 101.399 263.286 101.968C263.076 102.537 262.785 103.022 262.414 103.423C262.044 103.822 261.593 104.122 261.062 104.323C260.532 104.524 259.947 104.623 259.305 104.623C258.663 104.623 258.128 104.537 257.697 104.368C257.266 104.198 256.905 104.007 256.616 103.797C256.326 103.587 256.08 103.398 255.881 103.226C255.68 103.057 255.479 102.971 255.28 102.971C255.081 102.971 254.919 103.01 254.8 103.092C254.679 103.172 254.519 103.312 254.32 103.513C254.199 103.653 254.109 103.787 254.049 103.918C253.988 104.048 253.959 104.212 253.959 104.413C253.959 104.672 254.1 104.952 254.381 105.252C254.662 105.552 255.042 105.833 255.522 106.092C256.002 106.351 256.558 106.561 257.19 106.721C257.82 106.881 258.497 106.96 259.219 106.96C260.22 106.96 261.142 106.81 261.983 106.51C262.824 106.21 263.556 105.77 264.176 105.19C264.796 104.609 265.276 103.904 265.618 103.074C265.957 102.245 266.129 101.3 266.129 100.24V87.8207C266.129 87.5402 266.104 87.3064 266.055 87.1155C266.004 86.9266 265.889 86.7766 265.709 86.6656L265.704 86.6734ZM262.97 96.0465C262.59 96.7458 262.079 97.297 261.439 97.6963C260.797 98.0976 260.067 98.2963 259.246 98.2963C258.425 98.2963 257.693 98.0976 257.053 97.6963C256.411 97.297 255.912 96.7516 255.551 96.0621C255.19 95.3725 255.011 94.5681 255.011 93.6467C255.011 92.7254 255.186 91.9268 255.537 91.247C255.887 90.5672 256.384 90.0315 257.024 89.6419C257.664 89.2524 258.396 89.0576 259.217 89.0576C260.038 89.0576 260.774 89.2485 261.425 89.6283C262.077 90.0081 262.592 90.5438 262.972 91.2333C263.353 91.9229 263.544 92.7176 263.544 93.6175C263.544 94.5174 263.353 95.3472 262.972 96.0465H262.97Z" fill="#291711"/>
<path d="M282.228 88.218C281.666 87.698 280.991 87.2831 280.199 86.9734C279.407 86.6636 278.512 86.5078 277.511 86.5078C276.048 86.5078 274.746 86.8234 273.605 87.4525C272.464 88.0817 271.572 88.9368 270.931 90.0179C270.289 91.097 269.969 92.328 269.969 93.7071C269.969 94.7473 270.144 95.7173 270.494 96.6172C270.845 97.5171 271.344 98.3119 271.996 99.0014C272.645 99.691 273.443 100.236 274.384 100.636C275.324 101.035 276.397 101.236 277.599 101.236C278.68 101.236 279.647 101.115 280.498 100.875C281.348 100.636 282.016 100.349 282.496 100.02C282.975 99.6909 283.217 99.3754 283.217 99.0754C283.217 98.9157 283.198 98.7657 283.157 98.6255C283.116 98.4852 283.036 98.3352 282.917 98.1755C282.815 97.9768 282.677 97.8405 282.496 97.7704C282.316 97.7002 282.144 97.6847 281.984 97.7256C281.824 97.7665 281.655 97.8366 281.473 97.9359C281.294 98.0353 281.099 98.1366 280.888 98.2359C280.677 98.3352 280.422 98.4365 280.121 98.5359C279.821 98.6352 279.466 98.7151 279.054 98.7754C278.642 98.8358 278.168 98.8651 277.626 98.8651C276.865 98.8651 276.108 98.6956 275.357 98.3547C274.606 98.0138 273.986 97.5288 273.494 96.8997C273.002 96.2705 272.768 95.5245 272.788 94.6655H281.471C282.172 94.6655 282.763 94.4551 283.245 94.0363C283.725 93.6156 283.967 92.8968 283.967 91.8761C283.967 91.2372 283.816 90.5964 283.516 89.9555C283.215 89.3147 282.784 88.7362 282.224 88.2161L282.228 88.218ZM281.177 92.7176C280.976 92.8169 280.697 92.8676 280.336 92.8676H272.796C272.776 92.1079 272.975 91.4281 273.396 90.8282C273.818 90.2282 274.393 89.7529 275.125 89.4023C275.857 89.0537 276.653 88.8784 277.513 88.8784C278.293 88.8784 278.98 89.0186 279.571 89.2991C280.162 89.5796 280.627 89.9497 280.968 90.4094C281.309 90.8691 281.479 91.3697 281.479 91.9092C281.479 92.3494 281.38 92.6202 281.179 92.7195L281.177 92.7176Z" fill="#291711"/>
<path d="M299.159 88.3232C298.628 87.733 297.992 87.2831 297.251 86.9734C296.51 86.6636 295.698 86.5078 294.818 86.5078C294.278 86.5078 293.77 86.5779 293.3 86.7182C292.83 86.8584 292.393 87.0532 291.993 87.3025C291.593 87.5519 291.242 87.8324 290.942 88.1421C290.641 88.4518 290.39 88.7771 290.191 89.116L290.251 87.7369C290.251 87.6161 290.241 87.4876 290.222 87.3473C290.202 87.2071 290.157 87.0766 290.087 86.9578C290.017 86.837 289.896 86.7435 289.726 86.6734C289.556 86.6033 289.32 86.5682 289.02 86.5682C288.64 86.5682 288.349 86.6188 288.148 86.7182C287.947 86.8175 287.822 86.9578 287.773 87.1389C287.723 87.3181 287.699 87.5402 287.699 87.7992V99.7085C287.699 99.989 287.725 100.229 287.773 100.429C287.822 100.63 287.943 100.784 288.134 100.895C288.324 101.004 288.61 101.06 288.991 101.06C289.371 101.06 289.656 101.01 289.847 100.91C290.036 100.809 290.163 100.661 290.222 100.46C290.282 100.262 290.311 100.02 290.311 99.7396V93.2007C290.311 92.3611 290.477 91.6307 290.807 91.0113C291.137 90.3919 291.609 89.9127 292.219 89.5718C292.83 89.2309 293.546 89.0615 294.367 89.0615C295.189 89.0615 295.934 89.2309 296.486 89.5718C297.036 89.9127 297.458 90.3919 297.748 91.0113C298.039 91.6307 298.183 92.3611 298.183 93.2007V99.7104C298.183 99.9909 298.209 100.231 298.259 100.431C298.308 100.632 298.435 100.786 298.634 100.897C298.835 101.006 299.124 101.062 299.506 101.062C299.906 101.062 300.203 101.012 300.392 100.912C300.581 100.811 300.702 100.663 300.753 100.462C300.803 100.264 300.829 100.022 300.829 99.7416V93.2318C300.829 92.1917 300.683 91.2625 300.394 90.4425C300.103 89.6224 299.693 88.9173 299.163 88.3271L299.159 88.3232Z" fill="#291711"/>
<path d="M315.349 87.3646C314.237 86.7159 312.99 86.3906 311.609 86.3906C310.586 86.3906 309.631 86.5854 308.739 86.975C307.847 87.3646 307.061 87.9002 306.38 88.58C305.699 89.2598 305.163 90.0448 304.773 90.935C304.383 91.8252 304.188 92.7894 304.188 93.8295C304.188 94.8697 304.392 95.8689 304.804 96.7688C305.214 97.6687 305.77 98.4537 306.472 99.1238C307.172 99.7939 307.968 100.32 308.86 100.698C309.751 101.078 310.688 101.268 311.669 101.268C312.651 101.268 313.552 101.083 314.434 100.713C315.315 100.343 316.096 99.8289 316.777 99.1686C317.458 98.5083 317.998 97.7233 318.4 96.8136C318.8 95.904 319.001 94.8989 319.001 93.7983C319.001 92.3978 318.671 91.1395 318.01 90.0195C317.348 88.8995 316.463 88.0151 315.351 87.3646H315.349ZM315.694 96.2897C315.253 97.0299 314.672 97.6103 313.952 98.0291C313.232 98.4479 312.45 98.6583 311.609 98.6583C310.768 98.6583 309.982 98.4537 309.25 98.0427C308.519 97.6337 307.933 97.063 307.492 96.3325C307.051 95.6021 306.831 94.7586 306.831 93.7983C306.831 92.838 307.046 92.0589 307.477 91.3382C307.908 90.6175 308.478 90.0487 309.19 89.628C309.9 89.2072 310.696 88.9988 311.578 88.9988C312.459 88.9988 313.32 89.1994 314.042 89.5987C314.763 90 315.329 90.559 315.739 91.2778C316.149 91.9985 316.355 92.8283 316.355 93.7672C316.355 94.706 316.135 95.5475 315.694 96.2877V96.2897Z" fill="#291711"/>
<path d="M332.654 94.9537C332.343 94.4433 331.942 94.0343 331.452 93.7246C330.96 93.4149 330.41 93.1655 329.799 92.9746C329.189 92.7857 328.592 92.6201 328.012 92.4799C327.612 92.3806 327.226 92.2754 326.856 92.1643C326.485 92.0553 326.165 91.9286 325.894 91.7903C325.623 91.6501 325.402 91.4806 325.232 91.28C325.063 91.0813 324.977 90.8203 324.977 90.5009C324.977 90.1405 325.082 89.8152 325.293 89.5269C325.504 89.2367 325.804 89.0166 326.194 88.8666C326.584 88.7166 327.031 88.6407 327.531 88.6407C327.93 88.6407 328.321 88.701 328.703 88.8199C329.083 88.9406 329.454 89.0945 329.815 89.2854C330.176 89.4763 330.515 89.6906 330.837 89.9301C331.058 90.0899 331.278 90.1347 331.499 90.0645C331.719 89.9944 331.92 89.8386 332.1 89.599C332.34 89.2795 332.451 88.9796 332.429 88.6991C332.41 88.4186 332.219 88.1595 331.858 87.9199C331.557 87.6804 331.247 87.4758 330.927 87.3044C330.607 87.135 330.272 86.985 329.92 86.8545C329.569 86.724 329.204 86.6285 328.824 86.5701C328.444 86.5097 328.032 86.4805 327.593 86.4805C326.551 86.4805 325.65 86.646 324.889 86.9752C324.128 87.3044 323.541 87.77 323.131 88.3699C322.72 88.9698 322.515 89.6808 322.515 90.4989C322.515 91.1982 322.645 91.7728 322.905 92.2247C323.164 92.6747 323.5 93.0448 323.912 93.335C324.321 93.6252 324.793 93.859 325.324 94.0401C325.855 94.2193 326.379 94.381 326.9 94.5193C327.281 94.6401 327.651 94.7492 328.012 94.8485C328.373 94.9478 328.709 95.0628 329.019 95.1933C329.329 95.3238 329.604 95.4679 329.844 95.6276C330.084 95.7874 330.275 95.988 330.416 96.2276C330.556 96.4672 330.627 96.7574 330.627 97.0983C330.627 97.6787 330.346 98.1443 329.786 98.4929C329.224 98.8436 328.485 99.0189 327.562 99.0189C327.242 99.0189 326.916 98.9741 326.586 98.8845C326.257 98.7949 325.925 98.6858 325.595 98.5553C325.266 98.4248 324.953 98.2748 324.665 98.1053C324.374 97.9359 324.118 97.78 323.898 97.6398C323.578 97.3807 323.322 97.2444 323.131 97.2346C322.94 97.2249 322.745 97.3398 322.546 97.5794C322.366 97.7391 322.24 97.8988 322.171 98.0586C322.101 98.2183 322.076 98.3839 322.097 98.5533C322.117 98.7228 322.177 98.9078 322.277 99.1085C322.437 99.4279 322.708 99.7182 323.088 99.9792C323.469 100.24 323.9 100.464 324.38 100.653C324.86 100.842 325.365 100.988 325.898 101.088C326.428 101.187 326.934 101.237 327.415 101.237C329.138 101.237 330.519 100.858 331.561 100.098C332.603 99.3383 333.124 98.2982 333.124 96.9775C333.124 96.138 332.968 95.4621 332.658 94.9517L332.654 94.9537Z" fill="#291711"/>
<path d="M189.866 30.9414V70.0935H188.142V32.9769L169.634 70.8239L151.229 32.9769V70.0935H149.66V30.9414H152.169L169.79 67.0665L187.461 30.9414H189.866Z" fill="#291711"/>
<path d="M209.684 70.8239H209.161C205.954 70.8239 203.244 69.7097 201.031 67.4833C198.817 65.2569 197.711 62.4539 197.711 59.0783V30.9414H199.436V59.0257C199.436 61.9845 200.393 64.4369 202.311 66.3867C204.227 68.3365 206.599 69.3104 209.422 69.3104C212.245 69.3104 214.606 68.3443 216.506 66.4139C218.406 64.4817 219.356 62.0215 219.356 59.0276V30.9434H221.081V58.977C221.081 62.3877 219.975 65.216 217.76 67.4599C215.546 69.7039 212.854 70.8278 209.682 70.8278L209.684 70.8239Z" fill="#291711"/>
<path d="M257.78 30.9418H259.296V70.6685L230.434 35.2232V70.0939H228.918V30.3672L257.78 65.7599V30.9399V30.9418Z" fill="#291711"/>
<path d="M267.141 30.9414H268.815C274.671 30.9414 279.392 32.864 282.984 36.709C286.574 40.5541 288.368 45.1666 288.368 50.5428C288.368 55.9189 286.581 60.5217 283.009 64.3512C279.435 68.1806 274.704 70.0935 268.815 70.0935H267.141V30.9414ZM269.232 32.5075H268.815V68.4748H269.232C274.32 68.4748 278.495 66.7178 281.755 63.2019C285.013 59.688 286.644 55.4669 286.644 50.5428C286.644 45.6186 285.015 41.382 281.755 37.831C278.495 34.282 274.322 32.5055 269.232 32.5055V32.5075Z" fill="#291711"/>
<path d="M299.005 64.6649C295.049 60.5938 293.07 55.8352 293.07 50.387C293.07 44.9389 295.074 40.225 299.083 36.2397C303.09 32.2544 307.901 30.2617 313.514 30.2617C319.127 30.2617 323.918 32.2446 327.892 36.2124C331.866 40.1802 333.852 44.9038 333.852 50.3851C333.852 55.8664 331.882 60.6347 327.945 64.6882C324.006 68.7437 319.3 70.7695 313.828 70.7695H313.044C307.64 70.7695 302.961 68.734 299.005 64.661V64.6649ZM332.127 50.4922C332.127 45.3596 330.305 40.9574 326.663 37.2857C323.021 33.614 318.629 31.7791 313.487 31.7791C308.344 31.7791 303.945 33.6159 300.285 37.2857C296.625 40.9574 294.795 45.3596 294.795 50.4922C294.795 55.6248 296.625 60.0368 300.285 63.726C303.945 67.4153 308.336 69.2599 313.461 69.2599C318.586 69.2599 322.978 67.4153 326.638 63.726C330.298 60.0368 332.127 55.6268 332.127 50.4922Z" fill="#291711"/>
<path d="M66.2803 0.0175718C29.7554 0.0175718 0.144531 29.5822 0.144531 66.0501C0.144531 92.9287 16.2298 116.058 39.3129 126.362C47.5477 130.037 55.96 130.423 65.5643 130.423C73.5552 130.423 81.9285 130.667 89.0181 128.074C114.341 118.816 132.414 94.5396 132.414 66.0482C132.414 29.5803 102.803 0.015625 66.2783 0.015625L66.2803 0.0175718Z" fill="#291711"/>
<path d="M113.492 65.9883C113.41 67.5427 112.885 69.0484 111.845 70.2015C110.132 72.0968 107.565 72.6344 104.927 72.6013C104.135 73.2168 103.255 73.7271 102.34 74.1265C99.9894 75.1491 97.4142 75.5211 94.8683 75.8211C90.0885 76.3821 85.1313 76.7054 80.5662 75.1822C79.7331 74.9037 78.9177 74.5667 78.0768 74.3154C75.806 75.6808 74.2765 78.2403 73.7048 80.8758C73.6151 81.2888 73.5449 81.7056 73.4922 82.1224C78.4572 82.4419 83.4204 82.8061 88.3952 82.623C92.0121 82.4906 95.3072 82.2763 98.7135 80.9829C103.958 78.9922 110.218 75.9282 112.664 70.669C113.341 69.2139 113.533 67.4842 113.494 65.9902L113.492 65.9883Z" fill="#C86C22"/>
<path d="M54.7008 74.7904C54.0179 74.2703 53.2844 73.9528 52.506 73.7619C52.2173 73.9138 51.9324 74.0716 51.6437 74.2196C45.0301 77.6342 36.9904 76.7733 29.8755 74.578C28.8161 74.2508 27.747 73.8885 26.8516 73.234C26.7423 73.1541 26.637 73.0704 26.5355 72.9847C24.3642 72.86 22.1479 72.3769 20.5287 70.9569C19.2606 69.8447 18.529 68.267 18.2773 66.5898C18.3944 67.6631 18.5797 69.0617 18.6753 69.3519C18.966 70.2323 19.2938 71.1011 19.6586 71.9543C20.714 74.4319 22.8815 76.3467 25.1036 77.8173C28.5196 80.0788 32.5892 81.1832 36.6549 81.7033C43.7328 82.6091 50.9726 82.0715 58.1519 81.8221C57.8729 78.4796 56.9794 76.522 54.7008 74.7884V74.7904Z" fill="#C86C22"/>
<path d="M85.7367 128.864C84.3925 128.564 83.7721 127.5 83.3351 126.207C82.7772 124.559 82.2329 122.89 81.6808 121.234C80.5727 117.903 79.5504 114.543 78.614 111.16C76.7391 104.393 75.2096 97.5304 74.0313 90.6077C73.5533 87.8047 73.1358 84.9258 73.4948 82.1208C73.5474 81.704 73.6177 81.2872 73.7074 80.8742C74.281 78.2388 75.8085 75.6793 78.0794 74.3138C78.5593 74.0255 79.0724 73.7879 79.6167 73.6165C81.4213 73.0477 83.3761 73.2211 85.2334 72.8568C87.3482 72.4419 89.777 70.6265 91.4412 69.0234C90.6471 68.6338 89.8746 68.0904 88.9869 67.6443C88.8328 67.5664 88.6767 67.4944 88.5226 67.4203C88.4758 67.3989 88.429 67.3775 88.386 67.3561C86.4742 68.9182 83.5341 68.8403 80.9687 69.2104C78.7232 69.5357 76.5518 70.348 74.6458 71.579C74.0137 71.9881 73.3211 72.4634 72.5779 72.3406C72.0921 72.2608 71.6882 71.9335 71.2902 71.6433C69.1735 70.1045 66.5086 69.3351 63.8963 69.5104C63.3071 69.5493 62.7024 69.6428 62.2068 69.9603C61.6294 70.3304 61.2294 70.9849 60.572 71.1797C60.1701 71.2985 59.737 71.2187 59.3253 71.1388C56.1649 70.5272 53.0064 69.9155 49.8459 69.302C47.4697 68.8423 44.9979 68.0729 43.4079 66.125C42.2822 66.4347 41.1917 66.8282 40.1713 67.3561C40.0133 67.4379 39.8553 67.5255 39.6992 67.6132C41.8179 70.1259 44.9725 72.3289 48.5446 73.0769C49.8849 73.3574 51.2232 73.4431 52.5108 73.7587C53.2892 73.9496 54.0228 74.2671 54.7056 74.7872C56.9862 76.5207 57.8797 78.4783 58.1567 81.8209C58.2484 82.9136 58.2738 84.1564 58.2582 85.5881C58.2504 86.4529 58.227 87.3879 58.1958 88.4008C58.1958 88.4397 58.1958 88.4709 58.1938 88.4923C58.0338 89.9552 57.7568 91.4024 57.4856 92.8497C57.4388 93.0951 57.39 93.3405 57.3432 93.586C55.4411 103.497 52.6532 113.236 49.0187 122.652C48.7378 123.379 48.4529 124.105 48.1623 124.83C48.0881 124.863 47.9945 125.112 47.9535 125.178C47.8013 125.434 47.6492 125.687 47.4931 125.94C47.1244 126.544 46.703 127.124 46.227 127.648C45.8582 128.053 45.3881 128.153 44.8535 128.153C43.8683 128.153 42.4344 127.621 41.5038 127.288C49.1572 130.377 57.5188 132.084 66.2803 132.084C74.0508 132.084 81.5052 130.741 88.4309 128.283C87.6369 128.533 86.5093 129.037 85.7328 128.864H85.7367Z" fill="url(#paint0_linear_1174_41670)"/>
<path d="M18.9546 64.0406C19.3078 65.032 19.8677 65.9397 20.689 66.5864C21.5689 67.2779 22.6789 67.6149 23.7909 67.7532C23.8105 67.7551 23.8319 67.759 23.8514 67.761C27.7415 68.2129 31.3585 66.2864 33.8498 63.4017C35.1179 61.9349 36.1207 60.2344 36.8093 58.4249C37.5722 56.4225 38.0033 54.2857 39.1875 52.4644C39.6733 51.7184 40.4302 50.6938 41.4193 50.7561C41.8388 50.8165 41.9968 51.099 42.0495 51.5158C42.9332 58.6352 47.7871 61.4421 55.6746 61.0779C59.8164 60.887 68.9057 61.0331 73.0338 60.6143C76.9434 60.2169 79.741 58.7833 79.858 55.1895C79.9458 52.5073 79.2611 49.8971 75.4197 46.7883C73.2386 45.0236 70.0742 43.5685 64.4205 42.1583C62.9749 41.7979 55.7117 41.235 54.9196 41.3674C49.7282 42.2381 49.1566 42.4154 44.1467 44.0633C43.8209 44.1704 43.4405 44.26 43.1322 44.4139C39.2655 45.6683 35.4535 47.139 31.8853 49.0966C28.4926 50.9587 25.3263 53.2611 22.6633 56.066C20.886 57.9379 19.3078 60.0981 18.5781 62.5582C18.582 62.5816 18.584 62.605 18.5879 62.6284C18.6679 63.1056 18.7888 63.5828 18.9527 64.0406H18.9546Z" fill="white"/>
<path d="M112.914 62.4118C112.43 61.1651 111.699 60.0315 110.912 58.9504C108.763 56.0014 106.152 53.3873 103.202 51.233C99.2636 48.3579 94.8253 46.227 90.2679 44.5245C85.6423 42.7968 80.8997 41.5268 76.04 40.6327C72.7234 40.023 69.2703 39.5263 65.8992 39.7172C64.5472 39.7932 57.1806 40.7885 54.9234 41.3651C55.7154 41.2327 62.9787 41.7956 64.4243 42.1559C70.078 43.5681 73.2424 45.0232 75.4235 46.786C79.2668 49.8948 79.9496 52.5069 79.8618 55.1871C79.7448 58.781 76.9472 60.2146 73.0375 60.6119C68.9094 61.0307 59.8201 60.8846 55.6784 61.0755C47.7909 61.4398 42.937 58.6329 42.0532 51.5135C42.0006 51.0966 41.8445 50.8142 41.4231 50.7538C40.434 50.6915 39.677 51.7161 39.1913 52.4621C38.0071 54.2833 37.5759 56.4201 36.8131 58.4225C36.1225 60.2321 35.1197 61.9326 33.8536 63.3993C31.3603 66.2841 27.7453 68.2106 23.8552 67.7586C23.8357 67.7567 23.8142 67.7528 23.7947 67.7509C22.6827 67.6145 21.5707 67.2756 20.6928 66.5841C19.8714 65.9374 19.3135 65.0297 18.9584 64.0382C18.7945 63.5785 18.6755 63.1033 18.5936 62.626C18.5897 62.6027 18.5877 62.5793 18.5838 62.5559C18.5195 62.7741 18.459 62.9942 18.4083 63.2182C18.2502 63.9116 18.1741 64.6304 18.18 65.3491C18.18 65.4426 18.1859 65.5361 18.1898 65.6296C18.2054 65.8634 18.2385 66.2062 18.2795 66.5919C18.5292 68.267 19.2628 69.8468 20.5308 70.959C22.1501 72.379 24.3663 72.8621 26.5377 72.9867C26.7718 73.0004 27.0059 73.0101 27.2381 73.0159C28.8241 73.0568 30.4434 72.9594 31.9241 72.3946C34.6066 71.3719 36.8424 69.3014 39.3278 67.8288C39.4507 67.7567 39.5736 67.6866 39.6965 67.6165C39.8526 67.5288 40.0106 67.4411 40.1687 67.3593C41.189 66.8315 42.2815 66.438 43.4052 66.1283C43.495 66.103 43.5867 66.0776 43.6764 66.0543C45.6858 65.5283 47.7928 65.2634 49.7983 65.0044C57.7229 63.9837 65.7451 64.3635 73.6989 64.7492C78.6971 64.9907 83.8553 65.2751 88.3834 67.3593C89.9597 68.269 93.1475 70.6668 97.8023 71.6213C98.9222 71.8823 100.058 72.079 101.193 72.2563C102.399 72.4452 103.671 72.5874 104.929 72.603C107.567 72.6341 110.134 72.0985 111.847 70.2032C112.889 69.052 113.412 67.5463 113.493 65.99C113.558 64.7784 113.353 63.5376 112.916 62.4098L112.914 62.4118Z" fill="url(#paint1_linear_1174_41670)"/>
<path d="M96.6662 67.0439C97.747 67.5445 98.8825 67.8912 99.934 68.0568C101.397 68.2886 102.48 67.7179 102.909 66.2628C103.748 63.4111 102.195 59.9108 100.398 57.7351C99.0932 56.1554 97.7334 54.5873 96.0946 53.3426C95.2792 52.7232 94.3973 52.1934 93.4531 51.7921C92.5771 51.4201 91.1627 50.7013 90.1951 51.1513C90.0917 51.2 90.002 51.2993 90 51.4143C90 51.498 90.0429 51.5759 90.0878 51.6461C90.3882 52.1272 90.8038 52.5168 91.1042 52.994C91.4183 53.4926 91.6602 54.0322 91.8455 54.5912C92.2104 55.6918 92.3508 56.8566 92.384 58.0097C92.4347 59.7901 91.5666 62.11 92.5596 63.6916C93.457 65.1214 94.9963 66.2667 96.6662 67.0439Z" fill="#FCEED8"/>
<path d="M54.1525 125.728C59.5936 124.519 60.85 119.495 61.5562 115.444C62.2176 111.655 62.7053 107.785 62.6234 103.953C62.598 102.804 62.7131 97.9909 60.1691 98.3512C59.4258 98.4564 59.139 99.2142 59.0005 99.8414C57.3871 107.206 55.3465 114.466 52.742 121.624C52.385 122.606 51.1481 126.254 53.6277 125.832C53.8014 125.802 53.975 125.767 54.1525 125.728Z" fill="white"/>
</g>
<defs>
<linearGradient id="paint0_linear_1174_41670" x1="65.5682" y1="132.082" x2="65.5682" y2="66.1269" gradientUnits="userSpaceOnUse">
<stop stop-color="#FCEED8"/>
<stop offset="1" stop-color="#C86C22"/>
</linearGradient>
<linearGradient id="paint1_linear_1174_41670" x1="18.1761" y1="56.352" x2="113.503" y2="56.352" gradientUnits="userSpaceOnUse">
<stop stop-color="#FCEED8"/>
<stop offset="0.86" stop-color="#C86C22"/>
</linearGradient>
<clipPath id="clip0_1174_41670">
<rect width="333.667" height="132" fill="white" transform="translate(0.167969)"/>
</clipPath>
</defs>
</svg>
