<svg width="112" height="124" viewBox="0 0 112 124" fill="none" xmlns="http://www.w3.org/2000/svg">
<path d="M92.0364 53.5153L77.8186 36.1279L61.0389 15.6115C55.5908 8.94816 45.7275 7.95575 39.0541 13.414L35.449 16.3608C30.1326 20.7051 28.3908 27.814 30.73 33.9709C22.7401 34.6494 16.4414 41.3634 16.4414 49.5254V98.4975C16.4414 107.105 23.449 114.113 32.0566 114.113H36.7148C45.3224 114.113 52.33 107.105 52.33 98.4975V61.6874L64.2389 76.2494C66.8819 79.4798 70.6186 81.4849 74.7705 81.9001C75.2971 81.9507 75.8338 81.9811 76.3604 81.9811C79.9553 81.9811 83.4085 80.7558 86.2237 78.4469L89.8288 75.5001C93.0591 72.857 95.0642 69.1203 95.4794 64.9684C95.8946 60.8165 94.6693 56.7558 92.0262 53.5254L92.0364 53.5153ZM38.011 19.4899L41.6161 16.5431C46.5579 12.5026 53.8591 13.2317 57.8996 18.1735L72.1174 35.5608L52.3401 51.733V49.5254C52.3401 40.9178 45.3325 33.9102 36.7249 33.9102H35.1351C32.5326 29.0798 33.6769 23.0444 38.011 19.5001V19.4899ZM48.2895 98.4874C48.2895 104.867 43.1047 110.052 36.7249 110.052H32.0667C25.687 110.052 20.5022 104.867 20.5022 98.4874V76.0266H48.2996V98.4874H48.2895ZM20.492 71.976V49.5153C20.492 43.1355 25.6768 37.9507 32.0566 37.9507H36.7148C43.0946 37.9507 48.2794 43.1355 48.2794 49.5153V71.976H20.4819H20.492ZM91.4591 64.5532C91.1553 67.6317 89.6667 70.3963 87.2768 72.3507L83.6718 75.2975C81.2819 77.252 78.2743 78.1634 75.1958 77.8494C72.1174 77.5456 69.3528 76.057 67.3984 73.6671L53.1806 56.2798L74.6895 38.6798L88.9072 56.0672C90.8617 58.457 91.7731 61.4646 91.4591 64.5431V64.5532Z" fill="#4C4B40"/>
</svg>
