<?xml version="1.0" encoding="UTF-8" standalone="no"?>
<svg
   width="125"
   height="74"
   viewBox="0 0 125 74"
   fill="none"
   version="1.1"
   id="svg1"
   sodipodi:docname="capsulas.svg"
   inkscape:version="1.4 (86a8ad7, 2024-10-11)"
   xmlns:inkscape="http://www.inkscape.org/namespaces/inkscape"
   xmlns:sodipodi="http://sodipodi.sourceforge.net/DTD/sodipodi-0.dtd"
   xmlns="http://www.w3.org/2000/svg"
   xmlns:svg="http://www.w3.org/2000/svg">
  <defs
     id="defs1" />
  <sodipodi:namedview
     id="namedview1"
     pagecolor="#ffffff"
     bordercolor="#999999"
     borderopacity="1"
     inkscape:showpageshadow="2"
     inkscape:pageopacity="0"
     inkscape:pagecheckerboard="0"
     inkscape:deskcolor="#d1d1d1"
     inkscape:zoom="5.5067568"
     inkscape:cx="26.876074"
     inkscape:cy="45.489571"
     inkscape:window-width="1920"
     inkscape:window-height="1017"
     inkscape:window-x="-8"
     inkscape:window-y="-8"
     inkscape:window-maximized="1"
     inkscape:current-layer="svg1" />
  <path
     d="M 96.381561,40.260777 H 62.531486 L 75.791928,29.48827 c 3.025538,-2.46002 4.902769,-5.931822 5.292195,-9.790482 0.389425,-3.858661 -0.758881,-7.637966 -3.235229,-10.6435647 L 75.11293,5.7312025 C 72.636582,2.7256135 69.141736,0.86076458 65.257465,0.4739066 61.373194,0.08704861 57.568805,1.2277788 54.543267,3.6877988 L 36.949217,17.981725 19.355185,32.275632 c -6.240792,5.068831 -7.15943,14.23439 -2.056956,20.434037 l 2.735955,3.323011 c 2.885744,3.501561 7.069554,5.346576 11.313295,5.346576 1.687511,0 3.394992,-0.297583 5.022592,-0.89275 C 37.079025,67.836808 43.329806,73.6 50.918613,73.6 H 96.381561 C 104.43968,73.6 111,67.082931 111,59.077947 V 54.782831 C 111,46.777847 104.43968,40.260777 96.381561,40.260777 Z M 57.079527,6.7529044 c 2.19676,-1.7854984 4.952695,-2.6088116 7.778527,-2.3310674 2.825833,0.2777442 5.372077,1.6367069 7.159441,3.8189827 l 2.735965,3.3230313 c 1.797349,2.182275 2.626127,4.929959 2.346539,7.737159 -0.279588,2.8072 -1.64757,5.336657 -3.84433,7.112235 L 57.209335,39.457303 45.007332,24.637667 41.023208,19.796982 57.069542,6.7529044 Z M 23.129618,53.523063 20.393654,50.200052 C 16.689117,45.696628 17.358131,39.030767 21.891445,35.350657 L 37.937759,22.306599 52.725948,40.260777 h -1.807335 c -8.058115,0 -14.618439,6.51707 -14.618439,14.522054 v 1.39864 c -4.423476,2.331068 -9.925361,1.279608 -13.170556,-2.658408 z M 71.64804,69.632226 H 50.918613 c -5.861355,0 -10.62433,-4.731571 -10.62433,-10.554279 v -4.295116 c 0,-5.822709 4.762975,-10.554279 10.62433,-10.554279 H 71.64804 Z m 35.35785,-10.554279 c 0,5.822708 -4.76297,10.554279 -10.624329,10.554279 H 75.652134 V 44.228552 h 20.729427 c 5.861359,0 10.624329,4.73157 10.624329,10.554279 z"
     fill="#414139"
     id="path1"
     style="stroke-width:0.99523" />
</svg>
