<svg width="112" height="165" viewBox="0 0 112 165" fill="none" xmlns="http://www.w3.org/2000/svg">
<path d="M77.4609 65.62C75.8209 62.92 72.9009 61.21 69.7709 61.06V57.05H77.4709V42.52C77.4709 39.61 75.1009 37.24 72.1909 37.24H64.0909V18.12C64.0909 13.64 60.4509 10 55.9709 10C51.4909 10 47.8509 13.64 47.8509 18.12V37.24H39.7409C36.8309 37.24 34.4609 39.61 34.4609 42.52V57.05H42.1609V61.07C39.0509 61.25 36.1709 62.95 34.5509 65.62L25.1309 81.15V139.44C25.1309 147.66 31.8209 154.35 40.0409 154.35H71.9609C80.1809 154.35 86.8709 147.66 86.8709 139.44V81.15L77.4609 65.62ZM51.8509 18.13C51.8509 15.86 53.7009 14.01 55.9709 14.01C58.2409 14.01 60.0909 15.86 60.0909 18.13V37.25H51.8509V18.13ZM38.4609 53.05V42.52C38.4609 41.82 39.0309 41.24 39.7409 41.24H72.1909C72.8909 41.24 73.4709 41.81 73.4709 42.52V53.05H38.4709H38.4609ZM51.8509 65.03H60.0909V125.85C60.0909 128.12 58.2409 129.97 55.9709 129.97C53.7009 129.97 51.8509 128.12 51.8509 125.85V65.03ZM46.1609 61.03V57.05H65.7609V61.03H46.1609ZM82.8709 139.45C82.8709 145.46 77.9809 150.36 71.9609 150.36H40.0409C34.0309 150.36 29.1309 145.47 29.1309 139.45V82.27L37.9609 67.69C38.9609 66.05 40.7609 65.03 42.6809 65.03H47.8309V125.85C47.8309 130.33 51.4709 133.97 55.9509 133.97C60.4309 133.97 64.0709 130.33 64.0709 125.85V65.03H69.3009C71.2209 65.03 73.0309 66.05 74.0209 67.69L82.8509 82.27V139.45H82.8709Z" fill="#FAFAF9"/>
</svg>
