<?xml version="1.0" encoding="UTF-8" standalone="no"?>
<svg
   width="125"
   height="145"
   viewBox="0 0 125 145"
   fill="none"
   version="1.1"
   id="svg1"
   sodipodi:docname="frasco.svg"
   inkscape:version="1.4 (86a8ad7, 2024-10-11)"
   xmlns:inkscape="http://www.inkscape.org/namespaces/inkscape"
   xmlns:sodipodi="http://sodipodi.sourceforge.net/DTD/sodipodi-0.dtd"
   xmlns="http://www.w3.org/2000/svg"
   xmlns:svg="http://www.w3.org/2000/svg">
  <defs
     id="defs1" />
  <sodipodi:namedview
     id="namedview1"
     pagecolor="#ffffff"
     bordercolor="#999999"
     borderopacity="1"
     inkscape:showpageshadow="2"
     inkscape:pageopacity="0"
     inkscape:pagecheckerboard="0"
     inkscape:deskcolor="#d1d1d1"
     inkscape:zoom="5.6206897"
     inkscape:cx="38.07362"
     inkscape:cy="92.070552"
     inkscape:window-width="1920"
     inkscape:window-height="1017"
     inkscape:window-x="-8"
     inkscape:window-y="-8"
     inkscape:window-maximized="1"
     inkscape:current-layer="svg1" />
  <path
     d="m 84.050373,55.962203 c -1.646907,-2.697194 -4.579204,-4.405417 -7.722385,-4.555262 v -4.005833 h 7.732427 V 32.886207 c 0,-2.906976 -2.379981,-5.274513 -5.302236,-5.274513 h -8.13411 V 8.5115622 C 70.624069,4.0362175 66.96874,0.4 62.469874,0.4 57.971007,0.4 54.315679,4.0362175 54.315679,8.5115622 V 27.611694 h -8.144153 c -2.922255,0 -5.302235,2.367537 -5.302235,5.274513 v 14.514901 h 7.732426 v 4.015823 c -3.123097,0.179813 -6.015225,1.878046 -7.642037,4.545272 L 31.5,71.476065 V 129.70549 C 31.5,137.91695 38.218173,144.6 46.472789,144.6 H 78.527211 C 86.781827,144.6 93.5,137.91695 93.5,129.70549 V 71.476065 Z M 58.332523,8.5215518 c 0,-2.2676412 1.857791,-4.1157188 4.137351,-4.1157188 2.279559,0 4.13735,1.8480776 4.13735,4.1157188 V 27.621683 H 58.332523 Z M 44.886135,43.405265 V 32.886207 c 0,-0.699272 0.572401,-1.27867 1.285391,-1.27867 h 32.586653 c 0.702948,0 1.285391,0.569408 1.285391,1.27867 V 43.405265 H 44.896178 Z m 13.446388,11.967551 h 8.274701 v 60.756804 c 0,2.26764 -1.857791,4.11571 -4.13735,4.11571 -2.27956,0 -4.137351,-1.84807 -4.137351,-4.11571 z m -5.713961,-3.995843 v -3.975865 h 19.682539 v 3.975865 z m 36.864593,78.338507 c 0,6.00376 -4.910593,10.89867 -10.955944,10.89867 H 46.472789 c -6.035309,0 -10.955944,-4.88492 -10.955944,-10.89867 V 72.594901 L 44.38403,58.030052 c 1.004211,-1.638296 2.811791,-2.657236 4.739877,-2.657236 h 5.171687 v 60.756804 c 0,4.47534 3.655329,8.11156 8.154195,8.11156 4.498867,0 8.154195,-3.63622 8.154195,-8.11156 V 55.372816 h 5.252025 c 1.928086,0 3.745708,1.01894 4.739877,2.657236 l 8.867185,14.564849 v 57.120579 z"
     fill="#fafaf9"
     id="path1"
     style="stroke-width:1.00158" />
</svg>
