<svg width="112" height="124" viewBox="0 0 112 124" fill="none" xmlns="http://www.w3.org/2000/svg">
<path d="M89.35 29.5103C71.2146 2.30215 43.5063 11.13 43.241 11.2219C42.3429 11.5178 21.0641 18.7536 15.8695 49.646C13.4201 64.1993 23.8298 67.1487 27.0752 67.71C27.7182 67.8223 28.3714 67.8733 29.0245 67.8733C30.0961 67.8733 31.1779 67.7202 32.2597 67.4243C34.8213 66.7201 41.4142 64.9749 49.8951 63.3522C51.0789 70.4655 51.4871 79.8547 47.7621 87.4579C43.639 95.8877 41.9142 101.184 42.0163 105.175C42.1388 110.165 46.3435 114.217 51.3953 114.217H59.0597C61.407 114.217 63.6522 113.35 65.377 111.778C69.8062 107.736 77.2257 98.8882 77.1645 85.0902C77.1236 75.7112 74.7457 66.8017 72.3985 60.2395C76.2664 59.9333 79.9914 59.7802 83.5532 59.7802C83.9002 59.77 92.0443 59.3618 95.2692 53.0343C98.0758 47.5233 96.0755 39.6139 89.3398 29.5103H89.35ZM36.6481 62.0765C34.4845 61.6683 32.4843 60.7396 32.2904 60.2395C32.2904 60.2395 32.372 59.5761 34.1069 58.28C36.3113 56.6267 41.5264 55.2796 47.7416 54.259C48.109 55.4326 48.6091 57.1982 49.099 59.3618C44.1901 60.3007 39.9037 61.2805 36.6481 62.0867V62.0765ZM62.6214 108.767C61.6519 109.655 60.3864 110.145 59.0597 110.145H51.3953C48.5377 110.145 46.1598 107.869 46.0883 105.083C46.0067 101.838 47.6498 96.9593 51.4259 89.2643C57.733 76.395 53.7119 59.8007 51.8341 53.6467C56.0286 53.0854 60.4477 52.6567 64.6013 52.371C66.3363 55.8205 73.0108 70.0777 73.072 85.1208C73.123 97.3369 66.5404 105.185 62.6112 108.767H62.6214ZM69.0408 52.1158C75.4805 51.8301 80.6446 51.9423 82.1346 52.5138C83.3797 52.9833 83.3082 53.4425 83.2776 53.5956C83.1143 54.5448 81.7672 55.7082 80.7772 55.7388C77.6033 55.8102 74.2865 55.9939 70.8676 56.2797C70.1838 54.606 69.5409 53.1976 69.0306 52.1158H69.0408ZM91.6565 51.1667C90.6767 53.1058 88.8499 54.2182 87.1762 54.8611C87.2374 54.6672 87.2782 54.4631 87.3089 54.2692C87.7171 51.8199 86.3189 49.7379 83.5838 48.6969C77.736 46.4823 39.7098 48.9929 31.6678 55.004C28.9429 57.0451 27.8203 59.1271 28.3306 61.1886C28.5857 62.2296 29.2287 63.046 30.0553 63.7196C29.2797 63.8217 28.5142 63.8217 27.7692 63.689C23.2787 62.9236 18.278 59.9742 19.9007 50.3298C24.6667 21.9888 43.7104 15.3756 44.5167 15.1102C45.5372 14.7734 69.5919 7.23147 85.9617 31.7862C91.7279 40.4304 93.6976 47.1355 91.6565 51.1769V51.1667Z" fill="#4C4B40"/>
</svg>
