<?xml version="1.0" encoding="UTF-8" standalone="no"?>
<svg
   width="125"
   height="103"
   viewBox="0 0 125 103"
   fill="none"
   version="1.1"
   id="svg1"
   sodipodi:docname="hongo.svg"
   inkscape:version="1.4 (86a8ad7, 2024-10-11)"
   xmlns:inkscape="http://www.inkscape.org/namespaces/inkscape"
   xmlns:sodipodi="http://sodipodi.sourceforge.net/DTD/sodipodi-0.dtd"
   xmlns="http://www.w3.org/2000/svg"
   xmlns:svg="http://www.w3.org/2000/svg">
  <defs
     id="defs1" />
  <sodipodi:namedview
     id="namedview1"
     pagecolor="#ffffff"
     bordercolor="#999999"
     borderopacity="1"
     inkscape:showpageshadow="2"
     inkscape:pageopacity="0"
     inkscape:pagecheckerboard="0"
     inkscape:deskcolor="#d1d1d1"
     inkscape:zoom="2.7975341"
     inkscape:cx="5.7193226"
     inkscape:cy="121.71433"
     inkscape:window-width="1920"
     inkscape:window-height="1017"
     inkscape:window-x="-8"
     inkscape:window-y="-8"
     inkscape:window-maximized="1"
     inkscape:current-layer="svg1" />
  <path
     d="M 95.43824,19.705104 C 77.526734,-6.9210079 50.16053,1.7179968 49.898459,1.8078824 49.011451,2.0975138 27.995446,9.1784915 22.864914,39.410024 c -2.419113,14.241874 7.862093,17.1282 11.067406,17.677501 0.635017,0.109861 1.280113,0.159797 1.92521,0.159797 1.058361,0 2.126803,-0.149809 3.195244,-0.439441 2.529988,-0.689123 9.041532,-2.396949 17.417707,-3.984928 1.169237,6.96114 1.572322,16.149446 -2.106744,23.589976 -4.072172,8.249501 -5.77563,13.432903 -5.674834,17.337933 0.120956,4.883785 4.273765,8.849138 9.263183,8.849138 h 7.569805 c 2.318315,0 4.535835,-0.84892 6.239293,-2.38697 C 76.135744,96.257672 83.463638,87.598693 83.40316,74.095878 83.36284,64.91756 81.014287,56.198657 78.695971,49.77683 c 3.820181,-0.299619 7.499247,-0.449428 11.017039,-0.449428 0.34271,-0.01 8.38626,-0.409479 11.57142,-6.601598 2.7719,-5.393136 0.79629,-13.133285 -5.85627,-23.0207 z M 43.387016,51.574542 c -2.136882,-0.399492 -4.11239,-1.308335 -4.303903,-1.797712 0,0 0.08054,-0.649174 1.794074,-1.917559 2.177201,-1.617941 7.327894,-2.936263 13.46639,-3.934992 0.362867,1.148538 0.856769,2.876339 1.340592,4.993644 -4.848304,0.918831 -9.08175,1.87761 -12.297153,2.666606 z m 25.652667,45.691846 c -0.957566,0.868894 -2.20744,1.348284 -3.517792,1.348284 h -7.569805 c -2.822297,0 -5.170852,-2.227165 -5.241409,-4.953695 -0.08064,-3.175958 1.542284,-7.949882 5.271749,-15.480298 6.229213,-12.593971 2.257737,-28.833302 0.403084,-34.855638 4.14273,-0.5493 8.507211,-0.968767 12.609621,-1.248411 1.713538,3.375704 8.305618,17.327946 8.366096,32.04921 0.0504,11.954785 -6.450965,19.63501 -10.331624,23.140548 z m 6.340089,-55.43944 c 6.360248,-0.279644 11.460543,-0.169784 12.932168,0.389504 1.22972,0.459416 1.15916,0.908844 1.12892,1.058653 -0.16127,0.928818 -1.49178,2.067369 -2.46951,2.097331 -3.134766,0.06991 -6.410647,0.249682 -9.787324,0.529326 -0.675335,-1.637915 -1.310251,-3.016161 -1.814233,-4.074814 z M 97.71624,40.89813 c -0.96765,1.897585 -2.7719,2.9862 -4.42496,3.615399 0.0605,-0.189759 0.1008,-0.389504 0.13104,-0.579263 0.40318,-2.396949 -0.97773,-4.434356 -3.67907,-5.45306 -5.775631,-2.167241 -43.332344,0.289632 -51.275095,6.172145 -2.691262,1.997458 -3.799921,4.034865 -3.295939,6.052297 0.251991,1.018703 0.887007,1.817686 1.703458,2.476847 -0.766052,0.09987 -1.522126,0.09987 -2.257939,-0.02996 C 30.182697,52.403487 25.243717,49.51716 26.846378,40.079173 31.553567,12.344472 50.362122,5.872699 51.158413,5.6130295 52.166377,5.2834489 75.924072,-2.0971475 92.0918,21.932269 c 5.695,8.459234 7.64037,15.020882 5.62444,18.975849 z"
     fill="#414139"
     id="path1"
     style="stroke-width:1.00334" />
</svg>
