<svg width="28" height="36" viewBox="0 0 28 36" fill="none" xmlns="http://www.w3.org/2000/svg">
<path d="M10.1243 19.834L11.5827 15.084L7.74935 12.0007H12.4993L13.9993 7.33398L15.4993 12.0007H20.2493L16.3743 15.084L17.8327 19.834L13.9993 16.8757L10.1243 19.834ZM3.99935 35.334V22.459C2.94379 21.2923 2.12435 19.959 1.54102 18.459C0.957682 16.959 0.666016 15.3618 0.666016 13.6673C0.666016 9.9451 1.95768 6.79232 4.54102 4.20898C7.12435 1.62565 10.2771 0.333984 13.9993 0.333984C17.7216 0.333984 20.8743 1.62565 23.4577 4.20898C26.041 6.79232 27.3327 9.9451 27.3327 13.6673C27.3327 15.3618 27.041 16.959 26.4577 18.459C25.8743 19.959 25.0549 21.2923 23.9993 22.459V35.334L13.9993 32.0007L3.99935 35.334ZM13.9993 23.6673C16.7771 23.6673 19.1382 22.6951 21.0827 20.7507C23.0271 18.8062 23.9993 16.4451 23.9993 13.6673C23.9993 10.8895 23.0271 8.52843 21.0827 6.58398C19.1382 4.63954 16.7771 3.66732 13.9993 3.66732C11.2216 3.66732 8.86046 4.63954 6.91602 6.58398C4.97157 8.52843 3.99935 10.8895 3.99935 13.6673C3.99935 16.4451 4.97157 18.8062 6.91602 20.7507C8.86046 22.6951 11.2216 23.6673 13.9993 23.6673ZM7.33268 30.3757L13.9993 28.6673L20.666 30.3757V25.209C19.6938 25.7645 18.6452 26.202 17.5202 26.5215C16.3952 26.8409 15.2216 27.0007 13.9993 27.0007C12.7771 27.0007 11.6035 26.8409 10.4785 26.5215C9.35351 26.202 8.3049 25.7645 7.33268 25.209V30.3757Z" fill="#B6FF53"/>
</svg>
