<svg width="112" height="124" viewBox="0 0 112 124" fill="none" xmlns="http://www.w3.org/2000/svg">
<circle cx="34.9844" cy="55.0801" r="2.5" fill="#4C4B40"/>
<circle cx="44.9844" cy="51.0801" r="2.5" fill="#4C4B40"/>
<circle cx="53.9844" cy="38.0801" r="2.5" fill="#4C4B40"/>
<circle cx="61.9844" cy="55.0801" r="2.5" fill="#4C4B40"/>
<circle cx="61.9844" cy="44.0801" r="2.5" fill="#4C4B40"/>
<circle cx="73.9844" cy="56.0801" r="2.5" fill="#4C4B40"/>
<path d="M96.4544 60.7418H91.7144C91.3244 59.4218 90.4444 56.8818 88.6244 53.2718C87.2444 50.5218 85.3044 49.3718 83.5844 48.6218C81.3444 47.6318 79.4444 47.0518 77.6744 46.8218C76.7344 44.2118 74.5844 42.1618 72.9944 41.3118C72.9744 41.2218 72.9444 41.1218 72.9244 41.0218C72.7644 40.3418 72.3444 38.5418 70.4144 38.3018C69.9144 38.2418 69.4744 38.3218 69.1444 38.4118C68.9344 38.1218 68.6644 37.6918 68.4844 37.3918C68.3244 37.1318 68.1644 36.8718 68.0144 36.6318C67.1344 35.2818 66.1544 34.6518 65.2544 34.4718C64.3444 32.2618 62.4544 31.3018 60.8444 31.3518C60.6544 31.3518 60.4644 31.3718 60.2644 31.3818C59.9744 31.4018 59.4944 31.4318 59.3744 31.3818C59.3744 31.3818 59.2844 31.3118 59.1644 31.0518C59.0444 30.8018 58.9244 30.4218 58.8044 30.0518C58.5244 29.1818 58.2444 28.2718 57.6244 27.5718C57.0444 26.9118 56.2844 26.5518 55.4644 26.5818C53.9644 26.6118 52.9944 27.8018 52.2144 28.7618C52.0944 28.9018 51.9844 29.0518 51.8744 29.1818C51.0644 30.1218 50.1544 30.3618 48.8944 30.6918C48.5144 30.7918 48.1344 30.8918 47.7644 31.0118C46.8244 31.3018 45.8844 31.7218 44.9744 32.2418C42.5544 33.6218 40.3544 35.7418 38.2244 37.7818L35.3244 40.5618C35.1544 40.7218 34.8644 41.0018 34.6844 41.1318C34.2344 41.1018 33.3244 41.0418 32.4544 41.7218C31.7344 42.2818 31.3644 43.1118 31.0344 43.8418L30.8644 44.2118C30.3244 45.3418 29.6144 46.1218 28.8644 46.9318L23.6244 52.6118C21.6844 54.7118 20.9344 58.5718 20.6544 60.7318H15.5444C12.7044 60.7318 10.4844 63.4618 10.4844 66.9518C10.4844 70.4418 12.7044 73.1718 15.5444 73.1718H16.2544C19.3644 77.7618 33.4844 97.4218 46.8744 97.4218H65.1244C78.5144 97.4218 92.6344 77.7618 95.7444 73.1718H96.4544C99.2944 73.1718 101.514 70.4418 101.514 66.9518C101.514 63.4618 99.2944 60.7318 96.4544 60.7318V60.7418ZM26.5744 55.3318L31.8144 49.6518C32.6944 48.7018 33.6944 47.6218 34.4844 45.9318C34.5544 45.7918 34.6244 45.6418 34.6844 45.4918C34.7344 45.3918 34.7844 45.2718 34.8444 45.1518C34.9544 45.1518 35.0744 45.1518 35.1944 45.1318C36.4844 44.9918 37.4144 44.1018 38.0944 43.4518L40.9944 40.6718C42.9544 38.7918 44.9744 36.8518 46.9644 35.7118C47.6244 35.3318 48.3044 35.0318 48.9744 34.8218C49.2844 34.7218 49.6044 34.6418 49.9244 34.5518C51.4244 34.1518 53.2944 33.6618 54.9144 31.7718C54.9744 31.7018 55.0344 31.6318 55.0944 31.5618C55.2244 31.9518 55.3644 32.3518 55.5444 32.7418C56.8844 35.6218 59.3644 35.4518 60.5444 35.3618C60.6944 35.3518 60.8344 35.3418 60.9744 35.3318C61.0644 35.3318 61.4644 35.5218 61.6644 36.3018C62.0044 37.6318 62.7344 38.1818 63.2844 38.4018C63.6744 38.5618 64.0844 38.6018 64.4744 38.5418C64.5344 38.6118 64.5944 38.7018 64.6644 38.8018C64.8044 39.0118 64.9344 39.2318 65.0744 39.4618C65.8544 40.7518 66.8344 42.3518 68.5844 42.5118C68.7944 42.5318 68.9944 42.5218 69.1744 42.5118C69.2644 42.8318 69.3944 43.1818 69.5744 43.5518C69.8944 44.1618 70.4144 44.6018 71.0344 44.7918C71.4944 44.9618 73.2344 46.3118 73.9044 48.1718C74.6544 50.2518 75.9544 50.6618 76.6744 50.7218C78.1744 50.8518 79.8644 51.3518 81.9644 52.2718C83.2944 52.8518 84.2744 53.5218 85.0444 55.0518C86.0844 57.1218 86.7844 58.8018 87.2544 60.0418H24.8044C25.1944 57.9118 25.8444 56.1018 26.5644 55.3218L26.5744 55.3318ZM96.4544 69.1818H93.5844L92.9944 70.1018C88.8144 76.5918 75.6544 93.4318 65.1244 93.4318H46.8744C34.2144 93.4318 19.1644 70.3318 19.0044 70.1018L18.4144 69.1818H15.5444C15.1844 69.1818 14.4844 68.3118 14.4844 66.9618C14.4844 65.6118 15.1844 64.7418 15.5444 64.7418H96.4444C96.8044 64.7418 97.5044 65.6118 97.5044 66.9618C97.5044 68.3118 96.8044 69.1818 96.4444 69.1818H96.4544Z" fill="#4C4B40"/>
</svg>
