<?xml version="1.0" encoding="UTF-8" standalone="no"?>
<svg
   width="125"
   height="71"
   viewBox="0 0 125 71"
   fill="none"
   version="1.1"
   id="svg6"
   sodipodi:docname="polvo.svg"
   inkscape:version="1.4 (86a8ad7, 2024-10-11)"
   xmlns:inkscape="http://www.inkscape.org/namespaces/inkscape"
   xmlns:sodipodi="http://sodipodi.sourceforge.net/DTD/sodipodi-0.dtd"
   xmlns="http://www.w3.org/2000/svg"
   xmlns:svg="http://www.w3.org/2000/svg">
  <defs
     id="defs6" />
  <sodipodi:namedview
     id="namedview6"
     pagecolor="#ffffff"
     bordercolor="#999999"
     borderopacity="1"
     inkscape:showpageshadow="2"
     inkscape:pageopacity="0"
     inkscape:pagecheckerboard="0"
     inkscape:deskcolor="#d1d1d1"
     inkscape:zoom="5.7394366"
     inkscape:cx="57.322699"
     inkscape:cy="53.925153"
     inkscape:window-width="1920"
     inkscape:window-height="1017"
     inkscape:window-x="-8"
     inkscape:window-y="-8"
     inkscape:window-maximized="1"
     inkscape:current-layer="svg6" />
  <path
     d="m 118.3855,36.225165 h -7.23525 c -0.58042,-1.868106 -1.91138,-6.1138 -4.40319,-9.710152 -1.85134,-2.677285 -4.40319,-3.766181 -6.64481,-4.475462 -3.232344,-1.028956 -5.894273,-1.598378 -8.376072,-1.778196 -0.02001,-0.03996 -0.05004,-0.08991 -0.08006,-0.149849 -1.350979,-2.707254 -4.393183,-4.775157 -6.454677,-5.484438 -0.03002,-0.07992 -0.06004,-0.169827 -0.09006,-0.259736 -0.230167,-0.70928 -0.770559,-2.377589 -2.84206,-2.567396 -0.650471,-0.05994 -1.210877,0.06993 -1.611167,0.169827 -0.140102,0.02997 -0.320232,0.06993 -0.320232,0.08991 -0.310225,-0.0999 -0.990718,-0.909078 -1.391008,-1.398583 C 78.716754,10.401358 78.496595,10.141621 78.276435,9.9018141 77.135609,8.6331008 75.814651,7.9437998 74.563745,7.9338099 73.432925,5.7660083 71.131258,4.8369505 69.22988,4.87691 c -0.250182,0 -0.500363,0.01998 -0.750544,0.02997 -1.681218,0.089908 -2.071501,0 -2.431762,-0.5594327 C 65.897462,4.117676 65.737346,3.7580508 65.57723,3.3884256 65.206962,2.5392868 64.77665,1.5702695 63.946048,0.89095936 61.584336,-1.0470762 59.232632,1.0607801 58.091806,2.0697529 c -0.160116,0.149848 -0.33024,0.2897062 -0.480348,0.4195745 -1.270921,1.0789059 -2.812038,1.368622 -4.583322,1.7082775 -0.500362,0.099899 -1.010732,0.1898075 -1.511095,0.309686 -1.220884,0.2797163 -2.441769,0.6693212 -3.632632,1.1588248 -3.24235,1.3386425 -6.254532,3.426515 -9.166643,5.4545093 l -4.0029,2.777183 c -0.430312,0.299696 -1.090791,0.75913 -1.391008,0.77911 -0.11008,0 -0.22016,0 -0.320232,0 -0.530385,-0.02997 -1.411023,-0.07982 -2.311675,0.429664 -0.900653,0.509483 -1.431037,1.358622 -1.851342,2.047924 -0.08006,0.119878 -0.150109,0.249746 -0.230167,0.359635 -0.750544,1.138845 -1.741261,1.918054 -2.792023,2.737224 l -7.24525,5.674246 c -2.641914,2.067902 -3.772734,7.732158 -4.153009,10.319534 H 6.6245105 C 3.1920232,36.245145 0.4,39.032318 0.4,42.458843 c 0,3.426526 2.7920232,6.213699 6.2245105,6.213699 H 8.2456853 C 11.988397,52.368793 31.64264,70.9 49.895867,70.9 H 75.104133 C 93.35736,70.9 113.0116,52.368793 116.75431,48.672542 h 1.62118 c 3.43249,0 6.22451,-2.787173 6.22451,-6.213699 0,-3.426525 -2.79202,-6.213698 -6.22451,-6.213698 z m -97.330533,-7.182716 7.245251,-5.674246 c 1.20087,-0.939047 2.561856,-2.008062 3.662654,-3.696351 0.100072,-0.149848 0.190137,-0.299595 0.280203,-0.449444 0.120087,-0.199797 0.29021,-0.469524 0.380275,-0.599392 0.05004,0 0.11008,0 0.160116,0.01 0.280203,0.01999 0.560406,0.02997 0.840609,0 1.391008,-0.0999 2.491806,-0.869119 3.372444,-1.4785 l 4.002901,-2.777184 c 2.741987,-1.898075 5.574039,-3.866079 8.416098,-5.0349446 0.980711,-0.4095846 1.991444,-0.7292503 2.992169,-0.9590173 0.450326,-0.099899 0.91066,-0.1898076 1.370993,-0.2797164 2.04148,-0.3896049 4.343147,-0.8291592 6.424656,-2.5773862 0.18013,-0.1598379 0.370268,-0.3296657 0.570413,-0.4994935 0.230167,-0.2097872 0.570413,-0.5094832 0.850616,-0.7192705 0.11008,0.2097873 0.22016,0.4695238 0.310225,0.6693213 0.210153,0.4795137 0.450327,1.0189665 0.770559,1.51846 1.681218,2.6073558 4.383176,2.4674977 5.994343,2.3875787 0.22016,-0.00999 0.430312,-0.01998 0.640464,-0.02997 0.460334,-0.01998 1.451052,0.2097872 1.781291,1.138845 0.410298,1.1588665 1.120812,1.6683485 1.64119,1.8881265 0.570413,0.249746 1.20087,0.269726 1.78129,0.05993 0.150109,0.06993 0.440319,0.259737 0.760551,0.619373 0.190138,0.209787 0.380276,0.429564 0.570414,0.659331 1.000725,1.198784 2.251631,2.687274 4.143002,2.807153 0.530384,0.03996 1.010732,-0.04995 1.381001,-0.139858 0.140101,0.409584 0.340246,0.898988 0.700507,1.398482 0.390283,0.539553 0.930675,0.909178 1.581146,1.049036 0.900653,0.199798 3.482524,1.738237 4.383176,3.546404 0.700508,1.408571 1.841335,2.25771 3.13227,2.337629 2.22161,0.139858 4.663379,0.659331 7.695577,1.618359 1.941409,0.619371 3.462509,1.358622 4.573309,2.947011 1.54112,2.217751 2.59188,4.825106 3.26237,6.743162 H 18.603191 c 0.590428,-3.07688 1.591153,-5.814105 2.451776,-6.493416 z M 118.3855,44.666605 h -3.3024 l -0.59042,0.609381 C 114.28252,45.495764 93.257288,66.894063 75.114141,66.894063 H 49.905874 c -18.143147,0 -39.168383,-21.398299 -39.378535,-21.618077 L 9.9369108,44.666605 h -3.302383 c -1.230892,0 -2.2216099,-0.998987 -2.2216099,-2.217752 0,-1.218864 1.0007252,-2.21785 2.2216099,-2.21785 H 118.3955 c 1.2309,0 2.22161,0.998986 2.22161,2.21785 0,1.218765 -1.00072,2.217752 -2.22161,2.217752 z"
     fill="#414139"
     id="path1"
     style="stroke-width:0.999861" />
  <ellipse
     cx="32.923569"
     cy="28.571127"
     fill="#414139"
     id="circle1"
     style="stroke-width:0.999861"
     rx="2.5018129"
     ry="2.4974673" />
  <ellipse
     cx="43.931545"
     cy="18.581259"
     fill="#414139"
     id="circle2"
     style="stroke-width:0.999861"
     rx="2.5018129"
     ry="2.4974673" />
  <ellipse
     cx="41.930096"
     cy="30.569101"
     fill="#414139"
     id="circle3"
     style="stroke-width:0.999861"
     rx="2.5018129"
     ry="2.4974673" />
  <ellipse
     cx="65.947502"
     cy="14.585311"
     fill="#414139"
     id="circle4"
     style="stroke-width:0.999861"
     rx="2.5018129"
     ry="2.4974673" />
  <ellipse
     cx="85.962006"
     cy="28.571127"
     fill="#414139"
     id="circle5"
     style="stroke-width:0.999861"
     rx="2.5018129"
     ry="2.4974673" />
  <ellipse
     cx="69.950401"
     cy="27.57214"
     fill="#414139"
     id="circle6"
     style="stroke-width:0.999861"
     rx="2.5018129"
     ry="2.4974673" />
</svg>
