<?xml version="1.0" encoding="UTF-8" standalone="no"?>
<svg
   width="20"
   height="20"
   viewBox="0 0 20 20"
   fill="none"
   version="1.1"
   id="svg4"
   sodipodi:docname="punto-hongo-blanco.svg"
   inkscape:version="1.4 (86a8ad7, 2024-10-11)"
   xmlns:inkscape="http://www.inkscape.org/namespaces/inkscape"
   xmlns:sodipodi="http://sodipodi.sourceforge.net/DTD/sodipodi-0.dtd"
   xmlns="http://www.w3.org/2000/svg"
   xmlns:svg="http://www.w3.org/2000/svg">
  <defs
     id="defs4" />
  <sodipodi:namedview
     id="namedview4"
     pagecolor="#ffffff"
     bordercolor="#999999"
     borderopacity="1"
     inkscape:showpageshadow="2"
     inkscape:pageopacity="0"
     inkscape:pagecheckerboard="0"
     inkscape:deskcolor="#d1d1d1"
     inkscape:zoom="40.75"
     inkscape:cx="6.7484663"
     inkscape:cy="7.4233129"
     inkscape:window-width="1920"
     inkscape:window-height="1017"
     inkscape:window-x="-8"
     inkscape:window-y="-8"
     inkscape:window-maximized="1"
     inkscape:current-layer="svg4" />
  <path
     d="M 9.8016892,1.7113413 C 7.751719,1.9755656 6.010414,2.8133058 4.6939741,3.9484221 3.9212538,4.6147044 3.3036018,5.3261533 2.8591793,5.9554566 2.4012453,6.603909 2.1703402,7.1030109 2.1075331,7.3377839 1.9072695,8.0863791 1.9036844,8.4749104 1.9828039,8.7395429 c 0.070559,0.2355269 0.2537717,0.5250983 0.8391684,0.9569952 0.078526,0.057772 0.3196711,0.1708238 0.8041687,0.2822324 0.4534638,0.1041735 1.0111094,0.1829055 1.6159781,0.2381855 1.2083479,0.110351 2.5028065,0.118726 3.3173048,0.09203 0.3037171,-0.01 0.5986619,0.09612 0.817288,0.293465 0.2186597,0.19725 -0.2219694,0.567623 -0.2219694,0.851666 -0.00688,2.572228 -1.2802653,3.729601 -0.6739546,5.002744 -0.2275554,0.625357 0.1736982,0.89259 0.2230498,1.085862 0.043213,0.169085 0.1330758,0.280169 0.2921214,0.379317 0.1983925,0.123647 0.4704933,0.205835 0.7811902,0.25965 z"
     fill="#fafaf9"
     stroke="#fafaf9"
     stroke-width="2.12111"
     stroke-linejoin="round"
     id="path1"
     sodipodi:nodetypes="cccccccccccccccc" />
  <path
     d="M10 19C11.368 19 13.7695 18.744 12.7359 15.8C12.508 15.3733 12.052 13.896 12.052 11.4C13.5719 11.4533 16.8551 11.368 17.8278 10.6C19.0438 9.64 19.1958 8.84 18.8158 7.32C18.4358 5.8 15.1679 1 10 1"
     stroke="#FAFAF9"
     stroke-linejoin="round"
     id="path2" />
  <path
     d="M10 19C8.67596 19 6.23047 18.744 7.26405 15.8C7.49205 15.3733 7.94804 13.896 7.94804 11.4C6.42807 11.4533 3.14493 11.368 2.17215 10.6C0.956177 9.64 0.80418 8.84 1.18417 7.32C1.56417 5.8 4.80004 1 10 1"
     stroke="#FAFAF9"
     stroke-linejoin="round"
     id="path3" />
  <path
     d="M10.5 1.5166C12.7112 1.65743 14.5312 2.71637 15.876 3.95703C16.5975 4.62274 17.1744 5.33438 17.5918 5.9668C18.0152 6.60839 18.2555 7.13929 18.3311 7.44141C18.5154 8.17867 18.545 8.65385 18.4385 9.03516C18.3358 9.40268 18.083 9.7616 17.5176 10.208C17.3609 10.3315 17.0597 10.4606 16.6094 10.5713C16.1729 10.6786 15.6496 10.7565 15.0967 10.8105C13.9912 10.9186 12.8128 10.9265 12.0693 10.9004C11.934 10.8957 11.8026 10.9461 11.7051 11.04C11.6075 11.1343 11.5518 11.2647 11.5518 11.4004C11.5518 13.8544 11.9849 15.4026 12.2686 15.9795C12.5031 16.653 12.5187 17.1142 12.4443 17.4258C12.3727 17.7255 12.2075 17.9325 11.9746 18.0879C11.5883 18.3456 11.0345 18.4483 10.5 18.4834V1.5166Z"
     fill="#FAFAF9"
     stroke="#FAFAF9"
     stroke-linejoin="round"
     id="path4" />
</svg>
