<svg width="19" height="20" viewBox="0 0 19 20" fill="none" xmlns="http://www.w3.org/2000/svg">
<path d="M8.5 2.07129C6.67025 2.32366 5.13791 3.24101 3.96289 4.3252C3.27318 4.96159 2.72188 5.64112 2.3252 6.24219C1.91646 6.86155 1.71036 7.33826 1.6543 7.5625C1.47555 8.27751 1.47235 8.64861 1.54297 8.90137C1.60595 9.12633 1.76948 9.40291 2.29199 9.81543C2.36208 9.87061 2.57732 9.97859 3.00977 10.085C3.41452 10.1845 3.91226 10.2597 4.45215 10.3125C5.53069 10.4179 6.68609 10.4259 7.41309 10.4004C7.68418 10.3909 7.94744 10.4922 8.14258 10.6807C8.33775 10.8691 8.44824 11.1291 8.44824 11.4004C8.4482 13.8609 8.02459 15.4878 7.69336 16.1787C7.49025 16.776 7.49794 17.125 7.54199 17.3096C7.58056 17.4711 7.66077 17.5772 7.80273 17.6719C7.97981 17.79 8.22268 17.8685 8.5 17.9199V2.07129Z" fill="#291711" stroke="#291711" stroke-width="2" stroke-linejoin="round"/>
<path d="M9.5 19C10.868 19 13.2695 18.744 12.2359 15.8C12.008 15.3733 11.552 13.896 11.552 11.4C13.0719 11.4533 16.3551 11.368 17.3278 10.6C18.5438 9.64 18.6958 8.84 18.3158 7.32C17.9358 5.8 14.6679 1 9.5 1" stroke="#291711" stroke-linejoin="round"/>
<path d="M9.5 19C8.17596 19 5.73047 18.744 6.76405 15.8C6.99205 15.3733 7.44804 13.896 7.44804 11.4C5.92807 11.4533 2.64493 11.368 1.67215 10.6C0.456177 9.64 0.30418 8.84 0.684173 7.32C1.06417 5.8 4.30004 1 9.5 1" stroke="#291711" stroke-linejoin="round"/>
</svg>
