<?xml version="1.0" encoding="UTF-8" standalone="no"?>
<svg
   width="19"
   height="20"
   viewBox="0 0 19 20"
   fill="none"
   version="1.1"
   id="svg4"
   sodipodi:docname="punto-hongo.svg"
   inkscape:version="1.4 (86a8ad7, 2024-10-11)"
   xmlns:inkscape="http://www.inkscape.org/namespaces/inkscape"
   xmlns:sodipodi="http://sodipodi.sourceforge.net/DTD/sodipodi-0.dtd"
   xmlns="http://www.w3.org/2000/svg"
   xmlns:svg="http://www.w3.org/2000/svg">
  <defs
     id="defs4" />
  <sodipodi:namedview
     id="namedview4"
     pagecolor="#ffffff"
     bordercolor="#999999"
     borderopacity="1"
     inkscape:showpageshadow="2"
     inkscape:pageopacity="0"
     inkscape:pagecheckerboard="0"
     inkscape:deskcolor="#d1d1d1"
     inkscape:zoom="40.75"
     inkscape:cx="9.4969325"
     inkscape:cy="10"
     inkscape:window-width="1920"
     inkscape:window-height="1017"
     inkscape:window-x="-8"
     inkscape:window-y="-8"
     inkscape:window-maximized="1"
     inkscape:current-layer="svg4" />
  <path
     d="M 9.506135,1.9976704 C 7.676385,2.2500404 5.13791,3.24101 3.96289,4.3252 3.27318,4.96159 2.72188,5.64112 2.3252,6.24219 1.91646,6.86155 1.71036,7.33826 1.6543,7.5625 1.47555,8.27751 1.47235,8.64861 1.54297,8.90137 1.60595,9.12633 1.76948,9.40291 2.29199,9.81543 2.36208,9.87061 2.57732,9.97859 3.00977,10.085 c 0.40475,0.0995 0.90249,0.1747 1.44238,0.2275 1.07854,0.1054 2.23394,0.1134 2.96094,0.0879 0.27109,-0.0095 0.53435,0.0918 0.72949,0.2803 0.19517,0.1884 0.30566,0.4484 0.30566,0.7197 -4e-5,2.4605 -0.42365,4.0874 -0.75488,4.7783 -0.20311,0.5973 -0.19542,0.9463 -0.15137,1.1309 0.03857,0.1615 0.11878,0.2676 0.26074,0.3623 0.17708,0.1181 1.4751648,0.736477 1.7524848,0.787877 L 11.273006,6.2822086 Z"
     fill="#291711"
     stroke="#291711"
     stroke-width="2"
     stroke-linejoin="round"
     id="path1"
     sodipodi:nodetypes="ccccccccccccccccc" />
  <path
     d="M9.5 19C10.868 19 13.2695 18.744 12.2359 15.8C12.008 15.3733 11.552 13.896 11.552 11.4C13.0719 11.4533 16.3551 11.368 17.3278 10.6C18.5438 9.64 18.6958 8.84 18.3158 7.32C17.9358 5.8 14.6679 1 9.5 1"
     stroke="#291711"
     stroke-linejoin="round"
     id="path2" />
  <path
     d="M9.5 19C8.17596 19 5.73047 18.744 6.76405 15.8C6.99205 15.3733 7.44804 13.896 7.44804 11.4C5.92807 11.4533 2.64493 11.368 1.67215 10.6C0.456177 9.64 0.30418 8.84 0.684173 7.32C1.06417 5.8 4.30004 1 9.5 1"
     stroke="#291711"
     stroke-linejoin="round"
     id="path3" />
  <path
     d="M10 1.5166C12.2112 1.65743 14.0312 2.71637 15.376 3.95703C16.0975 4.62274 16.6744 5.33438 17.0918 5.9668C17.5152 6.60839 17.7555 7.13929 17.8311 7.44141C18.0154 8.17867 18.045 8.65385 17.9385 9.03516C17.8358 9.40268 17.583 9.7616 17.0176 10.208C16.8609 10.3315 16.5597 10.4606 16.1094 10.5713C15.6729 10.6786 15.1496 10.7565 14.5967 10.8105C13.4912 10.9186 12.3128 10.9265 11.5693 10.9004C11.434 10.8957 11.3026 10.9461 11.2051 11.04C11.1075 11.1343 11.0518 11.2647 11.0518 11.4004C11.0518 13.8544 11.4849 15.4026 11.7686 15.9795C12.0031 16.653 12.0187 17.1142 11.9443 17.4258C11.8727 17.7255 11.7075 17.9325 11.4746 18.0879C11.0883 18.3456 10.5345 18.4483 10 18.4834V1.5166Z"
     fill="#291711"
     stroke="#291711"
     stroke-linejoin="round"
     id="path4" />
</svg>
