<svg width="19" height="20" viewBox="0 0 19 20" fill="none" xmlns="http://www.w3.org/2000/svg">
<path d="M9.5 19C8.17596 19 5.73047 18.744 6.76405 15.8C6.99205 15.3733 7.44804 13.896 7.44804 11.4C5.92807 11.4533 2.64493 11.368 1.67215 10.6C0.456178 9.64 0.304181 8.84 0.684173 7.32C1.06417 5.8 4.30004 1 9.5 1" stroke="#291711" stroke-linejoin="round"/>
<path d="M9.5 19C10.868 19 13.2695 18.744 12.2359 15.8C12.008 15.3733 11.552 13.896 11.552 11.4C13.0719 11.4533 16.3551 11.368 17.3278 10.6C18.5438 9.64 18.6958 8.84 18.3158 7.32C17.9358 5.8 14.6679 1 9.5 1" stroke="#291711" stroke-linejoin="round"/>
</svg>
