<svg width="112" height="124" viewBox="0 0 112 124" fill="none" xmlns="http://www.w3.org/2000/svg">
<path d="M73.8253 38.1604H68.4553V28.3504H76.0953V15.2404C76.0953 12.4304 73.8053 10.1504 71.0053 10.1504H40.9953C38.1853 10.1504 35.9053 12.4404 35.9053 15.2404V28.3504H43.5453V38.1604H38.1753C32.3953 38.1604 27.6953 42.8604 27.6953 48.6404L33.6353 106.65C34.1753 110.75 37.7053 113.85 41.8453 113.85H70.1753C74.3153 113.85 77.8453 110.76 78.3853 106.6L84.3053 48.8504V48.6504C84.3153 42.8704 79.6153 38.1704 73.8353 38.1704L73.8253 38.1604ZM39.8953 24.3404V15.2304C39.8953 14.6304 40.3853 14.1404 40.9853 14.1404H70.9953C71.5953 14.1404 72.0853 14.6304 72.0853 15.2304V24.3404H39.8853H39.8953ZM47.5353 28.3404H64.4653V38.1504H47.5353V28.3404ZM74.3953 106.13C74.1153 108.25 72.2953 109.85 70.1553 109.85H41.8253C39.6853 109.85 37.8653 108.25 37.5953 106.19L31.6853 48.5504C31.7353 45.0204 34.6253 42.1604 38.1653 42.1604H73.8253C77.3653 42.1604 80.2553 45.0204 80.3053 48.5504L74.3953 106.13Z" fill="#4C4B40"/>
</svg>
