<?xml version="1.0" encoding="UTF-8" standalone="no"?>
<svg
   width="125"
   height="125"
   viewBox="0 0 125 125"
   fill="none"
   version="1.1"
   id="svg1"
   sodipodi:docname="tintura.svg"
   inkscape:version="1.4 (86a8ad7, 2024-10-11)"
   xmlns:inkscape="http://www.inkscape.org/namespaces/inkscape"
   xmlns:sodipodi="http://sodipodi.sourceforge.net/DTD/sodipodi-0.dtd"
   xmlns="http://www.w3.org/2000/svg"
   xmlns:svg="http://www.w3.org/2000/svg">
  <defs
     id="defs1" />
  <sodipodi:namedview
     id="namedview1"
     pagecolor="#ffffff"
     bordercolor="#999999"
     borderopacity="1"
     inkscape:showpageshadow="2"
     inkscape:pageopacity="0"
     inkscape:pagecheckerboard="0"
     inkscape:deskcolor="#d1d1d1"
     inkscape:zoom="3.26"
     inkscape:cx="13.190184"
     inkscape:cy="94.018405"
     inkscape:window-width="1920"
     inkscape:window-height="1017"
     inkscape:window-x="-8"
     inkscape:window-y="-8"
     inkscape:window-maximized="1"
     inkscape:current-layer="svg1" />
  <path
     d="m 96.5,46.410852 c 0,-6.745983 -5.529604,-12.230848 -12.330613,-12.230848 h -6.932186 v -12.65122 h 9.283277 V 6.1350806 C 86.520478,2.9722754 83.927215,0.4 80.738611,0.4 H 44.261389 c -3.188604,0 -5.781887,2.5722754 -5.781887,5.7350806 V 21.528784 h 9.283297 v 12.65122 H 40.830613 C 34.029604,34.180004 28.5,39.664869 28.5,46.410852 l 0.776959,7.496549 0.413712,4.003551 6.03414,58.371668 c 0.625612,4.74421 4.742543,8.31738 9.565811,8.31738 h 34.428847 c 4.823267,0 8.940199,-3.57317 9.565811,-8.37743 l 1.36222,-13.1917 0.413711,-4.003451 4.258198,-41.126376 0.413712,-4.003551 0.756788,-7.296471 V 46.400843 Z M 42.52582,17.525233 V 6.1350806 c 0,-0.9508433 0.77697,-1.7315257 1.745659,-1.7315257 h 36.477223 c 0.958599,0 1.745659,0.7706735 1.745659,1.7315257 V 17.525233 H 42.53591 Z m 30.675174,4.003551 v 12.65122 H 51.809096 v -12.65122 z m 12.07835,94.233376 c -0.363259,2.76245 -2.754711,4.84429 -5.559875,4.84429 H 45.290622 c -2.805164,0 -5.196617,-2.08184 -5.559876,-4.78424 L 38.408899,103.04087 H 86.591111 Z M 87.014913,99.027419 H 38.005248 L 33.747049,57.901043 H 91.263021 L 87.004823,99.027419 Z M 33.333368,53.907401 32.546308,46.310763 c 0.05045,-4.493985 3.753642,-8.127208 8.294395,-8.127208 h 43.338775 c 4.540733,0 8.243953,3.633223 8.294405,8.127208 l -0.78706,7.596638 z"
     fill="#4c4b40"
     id="path1"
     style="stroke-width:1.00496" />
</svg>
